AndadaPro-Regular.ufo
<glyph name="exclam" format="2">
  <advance width="315.1"/>
  <unicode hex="0021"/>
  <outline>
    <contour>
      <point x="186" y="216" type="line"/>
      <point x="192" y="221" type="line"/>
      <point x="189" y="307" type="line" smooth="yes"/>
      <point x="187" y="368"/>
      <point x="200" y="624"/>
      <point x="208" y="755" type="curve"/>
      <point x="190" y="772" type="line"/>
      <point x="113" y="765" type="line"/>
      <point x="121" y="285" type="line"/>
      <point x="120" y="219" type="line"/>
    </contour>
    <contour>
      <point x="162" y="-10" type="curve" smooth="yes"/>
      <point x="199" y="-10"/>
      <point x="219" y="17"/>
      <point x="219" y="54" type="curve" smooth="yes"/>
      <point x="219" y="91"/>
      <point x="199" y="117"/>
      <point x="162" y="117" type="curve" smooth="yes"/>
      <point x="125" y="117"/>
      <point x="104" y="91"/>
      <point x="104" y="54" type="curve" smooth="yes"/>
      <point x="104" y="14"/>
      <point x="126" y="-10"/>
    </contour>
  </outline>
</glyph>
<glyph name="quotedbl" format="2">
  <advance width="443.2"/>
  <unicode hex="0022"/>
  <outline>
    <contour>
      <point x="316" y="463" type="line"/>
      <point x="329" y="705" type="line"/>
      <point x="253" y="705" type="line"/>
      <point x="257" y="655"/>
      <point x="262" y="575"/>
      <point x="262" y="560" type="curve" smooth="yes"/>
      <point x="261" y="466" type="line"/>
    </contour>
    <contour>
      <point x="178" y="463" type="line"/>
      <point x="191" y="705" type="line"/>
      <point x="115" y="705" type="line"/>
      <point x="119" y="655"/>
      <point x="124" y="575"/>
      <point x="124" y="560" type="curve" smooth="yes"/>
      <point x="123" y="466" type="line"/>
    </contour>
  </outline>
</glyph>
<glyph name="numbersign" format="2">
  <advance width="664.5"/>
  <unicode hex="0023"/>
  <outline>
    <contour>
      <point x="400" y="-15" type="line"/>
      <point x="491" y="562" type="line"/>
      <point x="433" y="572" type="line"/>
      <point x="342" y="-5" type="line"/>
    </contour>
    <contour>
      <point x="75" y="151" type="line"/>
      <point x="570" y="151" type="line"/>
      <point x="570" y="220" type="line"/>
      <point x="75" y="215" type="line"/>
    </contour>
    <contour>
      <point x="228" y="-15" type="line"/>
      <point x="319" y="562" type="line"/>
      <point x="261" y="572" type="line"/>
      <point x="170" y="-5" type="line"/>
    </contour>
    <contour>
      <point x="95" y="338" type="line"/>
      <point x="590" y="343" type="line"/>
      <point x="590" y="407" type="line"/>
      <point x="95" y="407" type="line"/>
    </contour>
  </outline>
</glyph>
<glyph name="ampersand" format="2">
  <advance width="824"/>
  <unicode hex="0026"/>
  <outline>
    <contour>
      <point x="584" y="0" type="line"/>
      <point x="730" y="0" type="line"/>
      <point x="738" y="53" type="line"/>
      <point x="656" y="60" type="line"/>
      <point x="599" y="101" type="line"/>
      <point x="504" y="196"/>
      <point x="409" y="292"/>
      <point x="313" y="392" type="curve" smooth="yes"/>
      <point x="269" y="438"/>
      <point x="250" y="477"/>
      <point x="250" y="523" type="curve" smooth="yes"/>
      <point x="250" y="580"/>
      <point x="293" y="617"/>
      <point x="347" y="617" type="curve" smooth="yes"/>
      <point x="386" y="617"/>
      <point x="424" y="599"/>
      <point x="463" y="580" type="curve"/>
      <point x="424" y="624" type="line"/>
      <point x="431" y="597"/>
      <point x="440" y="553"/>
      <point x="440" y="542" type="curve" smooth="yes"/>
      <point x="438" y="495" type="line"/>
      <point x="492" y="493" type="line"/>
      <point x="505" y="631" type="line"/>
      <point x="476" y="642"/>
      <point x="396" y="662"/>
      <point x="348" y="662" type="curve" smooth="yes"/>
      <point x="247" y="662"/>
      <point x="169" y="625"/>
      <point x="169" y="523" type="curve" smooth="yes"/>
      <point x="169" y="477"/>
      <point x="188" y="414"/>
      <point x="252" y="352" type="curve" smooth="yes"/>
      <point x="462" y="143"/>
      <point x="467" y="132"/>
      <point x="576" y="25" type="curve"/>
    </contour>
    <contour>
      <point x="320" y="-10" type="curve" smooth="yes"/>
      <point x="496" y="-10"/>
      <point x="603" y="115"/>
      <point x="601" y="267" type="curve" smooth="yes"/>
      <point x="601" y="304"/>
      <point x="605" y="340"/>
      <point x="606" y="347" type="curve"/>
      <point x="530" y="347" type="line"/>
      <point x="532" y="339"/>
      <point x="539" y="296"/>
      <point x="539" y="279" type="curve" smooth="yes"/>
      <point x="539" y="149"/>
      <point x="473" y="46"/>
      <point x="318" y="46" type="curve" smooth="yes"/>
      <point x="233" y="46"/>
      <point x="179" y="114"/>
      <point x="179" y="198" type="curve" smooth="yes"/>
      <point x="179" y="262"/>
      <point x="205" y="311"/>
      <point x="263" y="350" type="curve"/>
      <point x="228" y="393" type="line"/>
      <point x="145" y="345"/>
      <point x="96" y="281"/>
      <point x="96" y="191" type="curve" smooth="yes"/>
      <point x="96" y="68"/>
      <point x="197" y="-10"/>
    </contour>
    <contour>
      <point x="533" y="337" type="line"/>
      <point x="601" y="337" type="line"/>
      <point x="685" y="344" type="line"/>
      <point x="681" y="402" type="line"/>
      <point x="644" y="398"/>
      <point x="609" y="397"/>
      <point x="572" y="397" type="curve" smooth="yes"/>
      <point x="532" y="397"/>
      <point x="493" y="400"/>
      <point x="455" y="402" type="curve"/>
      <point x="450" y="349" type="line"/>
    </contour>
  </outline>
</glyph>
<glyph name="quotesingle" format="2">
  <advance width="305.2"/>
  <unicode hex="0027"/>
  <outline>
    <contour>
      <point x="178" y="463" type="line"/>
      <point x="191" y="705" type="line"/>
      <point x="115" y="705" type="line"/>
      <point x="119" y="655"/>
      <point x="124" y="575"/>
      <point x="124" y="560" type="curve" smooth="yes"/>
      <point x="123" y="466" type="line"/>
    </contour>
  </outline>
</glyph>
<glyph name="plus" format="2">
  <advance width="698.7"/>
  <unicode hex="002B"/>
  <outline>
    <contour>
      <point x="92" y="220" type="line"/>
      <point x="607" y="225" type="line"/>
      <point x="607" y="292" type="line"/>
      <point x="92" y="292" type="line"/>
    </contour>
    <contour>
      <point x="314" y="0" type="line"/>
      <point x="386" y="0" type="line"/>
      <point x="381" y="511" type="line"/>
      <point x="314" y="511" type="line"/>
    </contour>
  </outline>
</glyph>
<glyph name="period" format="2">
  <advance width="332.8"/>
  <unicode hex="002E"/>
  <outline>
    <contour>
      <point x="166" y="-10" type="curve" smooth="yes"/>
      <point x="207" y="-10"/>
      <point x="229" y="18"/>
      <point x="229" y="58" type="curve" smooth="yes"/>
      <point x="229" y="101"/>
      <point x="206" y="127"/>
      <point x="166" y="127" type="curve" smooth="yes"/>
      <point x="126" y="127"/>
      <point x="104" y="98"/>
      <point x="104" y="58" type="curve" smooth="yes"/>
      <point x="104" y="18"/>
      <point x="126" y="-10"/>
    </contour>
  </outline>
</glyph>
<glyph name="seven" format="2">
  <advance width="561.6"/>
  <unicode hex="0037"/>
  <outline>
    <contour>
      <point x="214" y="-105" type="line"/>
      <point x="497" y="616" type="line"/>
      <point x="481" y="652" type="line"/>
      <point x="219" y="652" type="line" smooth="yes"/>
      <point x="201" y="652"/>
      <point x="139" y="657"/>
      <point x="97" y="661" type="curve"/>
      <point x="78" y="641" type="line"/>
      <point x="69" y="499" type="line"/>
      <point x="122" y="495" type="line"/>
      <point x="126" y="546" type="line" smooth="yes"/>
      <point x="127" y="555"/>
      <point x="145" y="588"/>
      <point x="155" y="610" type="curve"/>
      <point x="107" y="576" type="line"/>
      <point x="147" y="580"/>
      <point x="207" y="585"/>
      <point x="228" y="585" type="curve" smooth="yes"/>
      <point x="431" y="585" type="line"/>
      <point x="406" y="617" type="line"/>
      <point x="390" y="554"/>
      <point x="366" y="455"/>
      <point x="354" y="426" type="curve" smooth="yes"/>
      <point x="141" y="-82" type="line"/>
    </contour>
  </outline>
</glyph>
<glyph name="nine" format="2">
  <advance width="605.6"/>
  <unicode hex="0039"/>
  <outline>
    <contour>
      <point x="107" y="-107" type="line"/>
      <point x="401" y="-44"/>
      <point x="523" y="184"/>
      <point x="523" y="401" type="curve" smooth="yes"/>
      <point x="523" y="553"/>
      <point x="442" y="662"/>
      <point x="291" y="662" type="curve" smooth="yes"/>
      <point x="168" y="662"/>
      <point x="72" y="574"/>
      <point x="72" y="450" type="curve" smooth="yes"/>
      <point x="72" y="327"/>
      <point x="164" y="249"/>
      <point x="286" y="249" type="curve" smooth="yes"/>
      <point x="315" y="249"/>
      <point x="343" y="255"/>
      <point x="365" y="265" type="curve"/>
      <point x="358" y="309" type="line"/>
      <point x="336" y="306"/>
      <point x="316" y="306"/>
      <point x="293" y="306" type="curve" smooth="yes"/>
      <point x="215" y="306"/>
      <point x="162" y="374"/>
      <point x="162" y="450" type="curve" smooth="yes"/>
      <point x="162" y="534"/>
      <point x="205" y="609"/>
      <point x="288" y="609" type="curve" smooth="yes"/>
      <point x="387" y="609"/>
      <point x="431" y="499"/>
      <point x="431" y="401" type="curve" smooth="yes"/>
      <point x="431" y="229"/>
      <point x="361" y="28"/>
      <point x="94" y="-57" type="curve"/>
    </contour>
  </outline>
</glyph>
<glyph name="colon" format="2">
  <advance width="285.6"/>
  <unicode hex="003A"/>
  <outline>
    <contour>
      <point x="143" y="345" type="curve" smooth="yes"/>
      <point x="180" y="345"/>
      <point x="200" y="370"/>
      <point x="200" y="407" type="curve" smooth="yes"/>
      <point x="200" y="447"/>
      <point x="179" y="471"/>
      <point x="143" y="471" type="curve" smooth="yes"/>
      <point x="106" y="471"/>
      <point x="85" y="444"/>
      <point x="85" y="407" type="curve" smooth="yes"/>
      <point x="85" y="370"/>
      <point x="106" y="345"/>
    </contour>
    <contour>
      <point x="143" y="-10" type="curve" smooth="yes"/>
      <point x="180" y="-10"/>
      <point x="200" y="16"/>
      <point x="200" y="53" type="curve" smooth="yes"/>
      <point x="200" y="93"/>
      <point x="179" y="117"/>
      <point x="143" y="117" type="curve" smooth="yes"/>
      <point x="106" y="117"/>
      <point x="85" y="90"/>
      <point x="85" y="53" type="curve" smooth="yes"/>
      <point x="85" y="16"/>
      <point x="106" y="-10"/>
    </contour>
  </outline>
</glyph>
<glyph name="semicolon" format="2">
  <advance width="301.1"/>
  <unicode hex="003B"/>
  <outline>
    <contour>
      <point x="88" y="-151" type="line"/>
      <point x="174" y="-130"/>
      <point x="217" y="-40"/>
      <point x="217" y="39" type="curve" smooth="yes"/>
      <point x="217" y="85"/>
      <point x="201" y="127"/>
      <point x="155" y="127" type="curve" smooth="yes"/>
      <point x="117" y="127"/>
      <point x="94" y="97"/>
      <point x="94" y="59" type="curve" smooth="yes"/>
      <point x="94" y="15"/>
      <point x="123" y="-21"/>
      <point x="175" y="-8" type="curve"/>
      <point x="145" y="8" type="line"/>
      <point x="158" y="-44"/>
      <point x="127" y="-93"/>
      <point x="79" y="-115" type="curve"/>
    </contour>
    <contour>
      <point x="154" y="346" type="curve" smooth="yes"/>
      <point x="191" y="346"/>
      <point x="212" y="371"/>
      <point x="212" y="408" type="curve" smooth="yes"/>
      <point x="212" y="448"/>
      <point x="190" y="472"/>
      <point x="154" y="472" type="curve" smooth="yes"/>
      <point x="117" y="472"/>
      <point x="97" y="445"/>
      <point x="97" y="408" type="curve" smooth="yes"/>
      <point x="97" y="371"/>
      <point x="117" y="346"/>
    </contour>
  </outline>
</glyph>
<glyph name="greater" format="2">
  <advance width="531.9"/>
  <unicode hex="003E"/>
  <outline>
    <contour>
      <point x="144" y="-15" type="line"/>
      <point x="448" y="247" type="line"/>
      <point x="146" y="513" type="line"/>
      <point x="94" y="462" type="line"/>
      <point x="377" y="227" type="line"/>
      <point x="377" y="269" type="line"/>
      <point x="93" y="36" type="line"/>
    </contour>
  </outline>
</glyph>
<glyph name="at" format="2">
  <advance width="1027.5"/>
  <unicode hex="0040"/>
  <outline>
    <contour>
      <point x="527" y="-213" type="curve" smooth="yes"/>
      <point x="565" y="-213"/>
      <point x="664" y="-173"/>
      <point x="731" y="-144" type="curve"/>
      <point x="715" y="-113" type="line"/>
      <point x="652" y="-129"/>
      <point x="554" y="-153"/>
      <point x="527" y="-153" type="curve" smooth="yes"/>
      <point x="281" y="-153"/>
      <point x="192" y="10"/>
      <point x="192" y="232" type="curve" smooth="yes"/>
      <point x="192" y="358"/>
      <point x="236" y="620"/>
      <point x="522" y="620" type="curve" smooth="yes"/>
      <point x="728" y="620"/>
      <point x="852" y="484"/>
      <point x="852" y="287" type="curve" smooth="yes"/>
      <point x="852" y="191"/>
      <point x="818" y="65"/>
      <point x="722" y="44" type="curve"/>
      <point x="670" y="0" type="line"/>
      <point x="839" y="14"/>
      <point x="930" y="151"/>
      <point x="930" y="287" type="curve" smooth="yes"/>
      <point x="930" y="527"/>
      <point x="769" y="667"/>
      <point x="522" y="667" type="curve" smooth="yes"/>
      <point x="216" y="667"/>
      <point x="104" y="447"/>
      <point x="104" y="232" type="curve" smooth="yes"/>
      <point x="104" y="25"/>
      <point x="193" y="-213"/>
    </contour>
    <contour>
      <point x="483" y="-10" type="curve" smooth="yes"/>
      <point x="555" y="-10"/>
      <point x="635" y="39"/>
      <point x="651" y="97" type="curve"/>
      <point x="638" y="113" type="line"/>
      <point x="659" y="0" type="line"/>
      <point x="670" y="0" type="line"/>
      <point x="724" y="33" type="line"/>
      <point x="719" y="58"/>
      <point x="709" y="104"/>
      <point x="709" y="164" type="curve" smooth="yes"/>
      <point x="709" y="288" type="line" smooth="yes"/>
      <point x="709" y="445"/>
      <point x="666" y="503"/>
      <point x="549" y="503" type="curve" smooth="yes"/>
      <point x="487" y="503"/>
      <point x="427" y="495"/>
      <point x="367" y="479" type="curve"/>
      <point x="378" y="346" type="line"/>
      <point x="435" y="349" type="line"/>
      <point x="434" y="390" type="line"/>
      <point x="446" y="466" type="line"/>
      <point x="417" y="422" type="line"/>
      <point x="438" y="438"/>
      <point x="497" y="453"/>
      <point x="538" y="453" type="curve" smooth="yes"/>
      <point x="602" y="453"/>
      <point x="634" y="406"/>
      <point x="634" y="310" type="curve" smooth="yes"/>
      <point x="634" y="168" type="line"/>
      <point x="624" y="101"/>
      <point x="565" y="50"/>
      <point x="495" y="50" type="curve" smooth="yes"/>
      <point x="447" y="50"/>
      <point x="420" y="80"/>
      <point x="420" y="131" type="curve" smooth="yes"/>
      <point x="420" y="166"/>
      <point x="444" y="191"/>
      <point x="484" y="198" type="curve" smooth="yes"/>
      <point x="647" y="229" type="line"/>
      <point x="647" y="278" type="line"/>
      <point x="472" y="249" type="line" smooth="yes"/>
      <point x="382" y="234"/>
      <point x="338" y="188"/>
      <point x="338" y="117" type="curve" smooth="yes"/>
      <point x="338" y="40"/>
      <point x="394" y="-10"/>
    </contour>
  </outline>
</glyph>
<glyph name="C" format="2">
  <advance width="674.8"/>
  <unicode hex="0043"/>
  <anchor x="377" y="0" name="bottom"/>
  <anchor x="377" y="720" name="top"/>
  <outline>
    <contour>
      <point x="387" y="-15" type="curve" smooth="yes"/>
      <point x="468" y="-15"/>
      <point x="540" y="3"/>
      <point x="603" y="19" type="curve"/>
      <point x="597" y="168" type="line"/>
      <point x="539" y="166" type="line"/>
      <point x="537" y="119" type="line" smooth="yes"/>
      <point x="536" y="105"/>
      <point x="525" y="65"/>
      <point x="514" y="36" type="curve"/>
      <point x="542" y="70" type="line"/>
      <point x="500" y="53"/>
      <point x="434" y="40"/>
      <point x="386" y="40" type="curve" smooth="yes"/>
      <point x="242" y="40"/>
      <point x="170" y="179"/>
      <point x="170" y="353" type="curve" smooth="yes"/>
      <point x="170" y="528"/>
      <point x="242" y="665"/>
      <point x="387" y="665" type="curve" smooth="yes"/>
      <point x="432" y="665"/>
      <point x="494" y="650"/>
      <point x="533" y="633" type="curve"/>
      <point x="507" y="666" type="line"/>
      <point x="514" y="642"/>
      <point x="526" y="603"/>
      <point x="526" y="590" type="curve" smooth="yes"/>
      <point x="526" y="544" type="line"/>
      <point x="584" y="540" type="line"/>
      <point x="594" y="686" type="line"/>
      <point x="531" y="702"/>
      <point x="469" y="720"/>
      <point x="387" y="720" type="curve" smooth="yes"/>
      <point x="179" y="720"/>
      <point x="73" y="570"/>
      <point x="73" y="352" type="curve" smooth="yes"/>
      <point x="73" y="134"/>
      <point x="179" y="-15"/>
    </contour>
  </outline>
</glyph>
<glyph name="F" format="2">
  <advance width="595.5"/>
  <unicode hex="0046"/>
  <anchor x="299" y="0" name="bottom"/>
  <anchor x="299" y="720" name="top"/>
  <outline>
    <contour>
      <point x="61" y="-5" type="line"/>
      <point x="111" y="-3"/>
      <point x="170" y="0"/>
      <point x="195" y="0" type="curve" smooth="yes"/>
      <point x="331" y="0" type="line"/>
      <point x="339" y="53" type="line"/>
      <point x="204" y="63" type="line"/>
      <point x="243" y="23" type="line"/>
      <point x="239" y="43"/>
      <point x="231" y="113"/>
      <point x="231" y="165" type="curve"/>
      <point x="231" y="540" type="line"/>
      <point x="231" y="588"/>
      <point x="241" y="674"/>
      <point x="242" y="680" type="curve"/>
      <point x="205" y="651" type="line"/>
      <point x="371" y="651" type="line" smooth="yes"/>
      <point x="406" y="651"/>
      <point x="448" y="646"/>
      <point x="468" y="645" type="curve"/>
      <point x="434" y="666" type="line"/>
      <point x="448" y="653"/>
      <point x="471" y="622"/>
      <point x="473" y="611" type="curve"/>
      <point x="477" y="596"/>
      <point x="482" y="574"/>
      <point x="484" y="558" type="curve"/>
      <point x="541" y="563" type="line"/>
      <point x="534" y="692" type="line"/>
      <point x="515" y="710" type="line"/>
      <point x="498" y="709"/>
      <point x="421" y="705"/>
      <point x="401" y="705" type="curve" smooth="yes"/>
      <point x="178" y="705" type="line" smooth="yes"/>
      <point x="159" y="705"/>
      <point x="100" y="708"/>
      <point x="63" y="710" type="curve"/>
      <point x="58" y="658" type="line"/>
      <point x="170" y="640" type="line"/>
      <point x="130" y="677" type="line"/>
      <point x="135" y="654"/>
      <point x="145" y="591"/>
      <point x="145" y="570" type="curve" smooth="yes"/>
      <point x="145" y="135" type="line" smooth="yes"/>
      <point x="145" y="113"/>
      <point x="135" y="50"/>
      <point x="129" y="19" type="curve"/>
      <point x="170" y="67" type="line"/>
      <point x="56" y="44" type="line"/>
    </contour>
    <contour>
      <point x="420" y="258" type="line"/>
      <point x="467" y="264" type="line"/>
      <point x="466" y="289"/>
      <point x="464" y="336"/>
      <point x="464" y="372" type="curve" smooth="yes"/>
      <point x="464" y="456" type="line"/>
      <point x="420" y="461" type="line"/>
      <point x="407" y="366" type="line"/>
      <point x="439" y="402" type="line"/>
      <point x="422" y="397"/>
      <point x="379" y="386"/>
      <point x="350" y="386" type="curve" smooth="yes"/>
      <point x="199" y="386" type="line"/>
      <point x="199" y="332" type="line"/>
      <point x="330" y="332" type="line" smooth="yes"/>
      <point x="356" y="332"/>
      <point x="427" y="325"/>
      <point x="444" y="322" type="curve"/>
      <point x="407" y="355" type="line"/>
    </contour>
  </outline>
</glyph>
<glyph name="J" format="2">
  <advance width="352.4"/>
  <unicode hex="004A"/>
  <anchor x="177" y="0" name="bottom"/>
  <anchor x="177" y="705" name="top"/>
  <outline>
    <contour>
      <point x="85" y="-200" type="line"/>
      <point x="129" y="-147"/>
      <point x="219" y="-38"/>
      <point x="219" y="-12" type="curve" smooth="yes"/>
      <point x="219" y="540" type="line" smooth="yes"/>
      <point x="219" y="592"/>
      <point x="226" y="648"/>
      <point x="229" y="674" type="curve"/>
      <point x="192" y="643" type="line"/>
      <point x="305" y="653" type="line"/>
      <point x="301" y="710" type="line"/>
      <point x="305" y="710"/>
      <point x="225" y="705"/>
      <point x="166" y="705" type="curve" smooth="yes"/>
      <point x="147" y="705"/>
      <point x="88" y="708"/>
      <point x="51" y="710" type="curve"/>
      <point x="46" y="658" type="line"/>
      <point x="158" y="640" type="line"/>
      <point x="119" y="674" type="line"/>
      <point x="122" y="659"/>
      <point x="133" y="591"/>
      <point x="133" y="570" type="curve" smooth="yes"/>
      <point x="133" y="11" type="line" smooth="yes"/>
      <point x="133" y="-4"/>
      <point x="87" y="-106"/>
      <point x="53" y="-179" type="curve"/>
    </contour>
  </outline>
</glyph>
<glyph name="L" format="2">
  <advance width="592"/>
  <unicode hex="004C"/>
  <anchor x="294" y="0" name="bottom"/>
  <anchor x="196" y="355" name="center"/>
  <anchor x="546" y="423" name="centerright"/>
  <anchor x="235" y="720" name="top"/>
  <anchor x="474" y="494" name="topright"/>
  <outline>
    <contour>
      <point x="61" y="-5" type="line"/>
      <point x="111" y="-3"/>
      <point x="170" y="0"/>
      <point x="195" y="0" type="curve" smooth="yes"/>
      <point x="388" y="0" type="line" smooth="yes"/>
      <point x="407" y="0"/>
      <point x="454" y="-2"/>
      <point x="502" y="-4" type="curve"/>
      <point x="521" y="14" type="line"/>
      <point x="536" y="163" type="line"/>
      <point x="482" y="168" type="line"/>
      <point x="467" y="100" type="line" smooth="yes"/>
      <point x="464" y="88"/>
      <point x="444" y="61"/>
      <point x="430" y="43" type="curve"/>
      <point x="460" y="67" type="line"/>
      <point x="442" y="63"/>
      <point x="398" y="55"/>
      <point x="358" y="55" type="curve" smooth="yes"/>
      <point x="203" y="55" type="line"/>
      <point x="243" y="28" type="line"/>
      <point x="238" y="54"/>
      <point x="231" y="113"/>
      <point x="231" y="165" type="curve" smooth="yes"/>
      <point x="231" y="540" type="line" smooth="yes"/>
      <point x="231" y="592"/>
      <point x="239" y="661"/>
      <point x="242" y="678" type="curve"/>
      <point x="204" y="643" type="line"/>
      <point x="327" y="653" type="line"/>
      <point x="323" y="710" type="line"/>
      <point x="328" y="710"/>
      <point x="236" y="705"/>
      <point x="178" y="705" type="curve" smooth="yes"/>
      <point x="159" y="705"/>
      <point x="100" y="708"/>
      <point x="63" y="710" type="curve"/>
      <point x="58" y="658" type="line"/>
      <point x="170" y="640" type="line"/>
      <point x="131" y="678" type="line"/>
      <point x="135" y="658"/>
      <point x="145" y="591"/>
      <point x="145" y="570" type="curve" smooth="yes"/>
      <point x="145" y="135" type="line" smooth="yes"/>
      <point x="145" y="114"/>
      <point x="134" y="45"/>
      <point x="131" y="28" type="curve"/>
      <point x="170" y="67" type="line"/>
      <point x="56" y="44" type="line"/>
    </contour>
  </outline>
</glyph>
<glyph name="N" format="2">
  <advance width="805.2"/>
  <unicode hex="004E"/>
  <anchor x="416" y="0" name="bottom"/>
  <anchor x="394" y="720" name="top"/>
  <outline>
    <contour>
      <point x="63" y="-5" type="line"/>
      <point x="103" y="-3"/>
      <point x="164" y="0"/>
      <point x="185" y="0" type="curve" smooth="yes"/>
      <point x="291" y="0" type="line"/>
      <point x="298" y="53" type="line"/>
      <point x="182" y="63" type="line"/>
      <point x="220" y="26" type="line"/>
      <point x="216" y="53"/>
      <point x="209" y="113"/>
      <point x="209" y="165" type="curve" smooth="yes"/>
      <point x="209" y="598" type="line"/>
      <point x="189" y="592" type="line"/>
      <point x="608" y="0" type="line"/>
      <point x="662" y="0" type="line"/>
      <point x="663" y="540" type="line" smooth="yes"/>
      <point x="663" y="595"/>
      <point x="681" y="655"/>
      <point x="686" y="679" type="curve"/>
      <point x="645" y="643" type="line"/>
      <point x="758" y="653" type="line"/>
      <point x="754" y="710" type="line"/>
      <point x="725" y="708"/>
      <point x="684" y="705"/>
      <point x="625" y="705" type="curve" smooth="yes"/>
      <point x="606" y="705"/>
      <point x="549" y="708"/>
      <point x="518" y="710" type="curve"/>
      <point x="513" y="658" type="line"/>
      <point x="626" y="640" type="line"/>
      <point x="586" y="684" type="line"/>
      <point x="590" y="665"/>
      <point x="601" y="590"/>
      <point x="601" y="570" type="curve" smooth="yes"/>
      <point x="601" y="129" type="line"/>
      <point x="621" y="135" type="line"/>
      <point x="336" y="529" type="line" smooth="yes"/>
      <point x="324" y="546"/>
      <point x="273" y="628"/>
      <point x="238" y="685" type="curve"/>
      <point x="218" y="705" type="line"/>
      <point x="177" y="705" type="line" smooth="yes"/>
      <point x="157" y="705"/>
      <point x="99" y="708"/>
      <point x="61" y="710" type="curve"/>
      <point x="56" y="658" type="line"/>
      <point x="171" y="641" type="line"/>
      <point x="134" y="673" type="line"/>
      <point x="135" y="658"/>
      <point x="146" y="590"/>
      <point x="146" y="570" type="curve" smooth="yes"/>
      <point x="146" y="135" type="line" smooth="yes"/>
      <point x="146" y="114"/>
      <point x="136" y="49"/>
      <point x="132" y="29" type="curve"/>
      <point x="171" y="67" type="line"/>
      <point x="58" y="44" type="line"/>
    </contour>
  </outline>
</glyph>
<glyph name="P" format="2">
  <advance width="626.6"/>
  <unicode hex="0050"/>
  <anchor x="314" y="0" name="bottom"/>
  <anchor x="314" y="705" name="top"/>
  <outline>
    <contour>
      <point x="61" y="-5" type="line"/>
      <point x="106" y="-3"/>
      <point x="171" y="0"/>
      <point x="195" y="0" type="curve" smooth="yes"/>
      <point x="333" y="0" type="line"/>
      <point x="340" y="53" type="line"/>
      <point x="204" y="63" type="line"/>
      <point x="243" y="28" type="line"/>
      <point x="238" y="54"/>
      <point x="231" y="113"/>
      <point x="231" y="165" type="curve" smooth="yes"/>
      <point x="231" y="540" type="line" smooth="yes"/>
      <point x="231" y="592"/>
      <point x="240" y="661"/>
      <point x="242" y="678" type="curve"/>
      <point x="178" y="705" type="line"/>
      <point x="159" y="705"/>
      <point x="100" y="708"/>
      <point x="63" y="710" type="curve"/>
      <point x="58" y="658" type="line"/>
      <point x="170" y="640" type="line"/>
      <point x="131" y="678" type="line"/>
      <point x="135" y="658"/>
      <point x="145" y="591"/>
      <point x="145" y="570" type="curve" smooth="yes"/>
      <point x="145" y="135" type="line" smooth="yes"/>
      <point x="145" y="114"/>
      <point x="134" y="45"/>
      <point x="131" y="28" type="curve"/>
      <point x="170" y="67" type="line"/>
      <point x="56" y="44" type="line"/>
    </contour>
    <contour>
      <point x="323" y="293" type="curve" smooth="yes"/>
      <point x="456" y="293"/>
      <point x="567" y="368"/>
      <point x="567" y="502" type="curve" smooth="yes"/>
      <point x="567" y="640"/>
      <point x="483" y="710"/>
      <point x="345" y="710" type="curve" smooth="yes"/>
      <point x="290" y="710"/>
      <point x="233" y="705"/>
      <point x="178" y="705" type="curve"/>
      <point x="178" y="655" type="line"/>
      <point x="221" y="659"/>
      <point x="261" y="662"/>
      <point x="304" y="662" type="curve" smooth="yes"/>
      <point x="409" y="662"/>
      <point x="478" y="606"/>
      <point x="478" y="502" type="curve" smooth="yes"/>
      <point x="478" y="393"/>
      <point x="409" y="340"/>
      <point x="304" y="340" type="curve" smooth="yes"/>
      <point x="257" y="340"/>
      <point x="209" y="348"/>
      <point x="162" y="354" type="curve"/>
      <point x="162" y="298" type="line"/>
      <point x="220" y="295"/>
      <point x="267" y="293"/>
    </contour>
  </outline>
</glyph>
<glyph name="Q" format="2">
  <advance width="796.3"/>
  <unicode hex="0051"/>
  <anchor x="399" y="0" name="bottom"/>
  <anchor x="399" y="705" name="top"/>
  <outline>
    <contour>
      <point x="398" y="-15" type="curve" smooth="yes"/>
      <point x="615" y="-15"/>
      <point x="723" y="135"/>
      <point x="723" y="352" type="curve" smooth="yes"/>
      <point x="723" y="570"/>
      <point x="615" y="720"/>
      <point x="398" y="720" type="curve" smooth="yes"/>
      <point x="181" y="720"/>
      <point x="72" y="570"/>
      <point x="72" y="352" type="curve" smooth="yes"/>
      <point x="72" y="135"/>
      <point x="181" y="-15"/>
    </contour>
    <contour>
      <point x="691" y="-224" type="line"/>
      <point x="748" y="-134" type="line"/>
      <point x="687" y="-108"/>
      <point x="602" y="-70"/>
      <point x="590" y="-62" type="curve" smooth="yes"/>
      <point x="472" y="19" type="line"/>
      <point x="406" y="7" type="line"/>
    </contour>
    <contour>
      <point x="398" y="35" type="curve" smooth="yes"/>
      <point x="246" y="35"/>
      <point x="173" y="179"/>
      <point x="173" y="352" type="curve" smooth="yes"/>
      <point x="173" y="526"/>
      <point x="246" y="670"/>
      <point x="398" y="670" type="curve" smooth="yes"/>
      <point x="549" y="670"/>
      <point x="622" y="526"/>
      <point x="622" y="352" type="curve" smooth="yes"/>
      <point x="622" y="179"/>
      <point x="549" y="35"/>
    </contour>
  </outline>
</glyph>
<glyph name="V" format="2">
  <advance width="774.5"/>
  <unicode hex="0056"/>
  <anchor x="388" y="0" name="bottom"/>
  <anchor x="388" y="720" name="top"/>
  <outline>
    <contour>
      <point x="374" y="0" type="line"/>
      <point x="431" y="0" type="line"/>
      <point x="621" y="548" type="line" smooth="yes"/>
      <point x="644" y="612"/>
      <point x="671" y="652"/>
      <point x="682" y="671" type="curve"/>
      <point x="633" y="642" type="line"/>
      <point x="727" y="653" type="line"/>
      <point x="723" y="710" type="line"/>
      <point x="675" y="707"/>
      <point x="628" y="705"/>
      <point x="578" y="705" type="curve" smooth="yes"/>
      <point x="565" y="705"/>
      <point x="531" y="707"/>
      <point x="491" y="710" type="curve"/>
      <point x="486" y="658" type="line"/>
      <point x="601" y="638" type="line"/>
      <point x="574" y="677" type="line"/>
      <point x="573" y="656"/>
      <point x="572" y="608"/>
      <point x="562" y="581" type="curve" smooth="yes"/>
      <point x="399" y="112" type="line"/>
      <point x="423" y="112" type="line"/>
      <point x="260" y="535" type="line" smooth="yes"/>
      <point x="240" y="585"/>
      <point x="228" y="645"/>
      <point x="225" y="671" type="curve"/>
      <point x="196" y="637" type="line"/>
      <point x="308" y="653" type="line"/>
      <point x="304" y="710" type="line"/>
      <point x="258" y="707"/>
      <point x="214" y="705"/>
      <point x="167" y="705" type="curve" smooth="yes"/>
      <point x="147" y="705"/>
      <point x="89" y="708"/>
      <point x="51" y="710" type="curve"/>
      <point x="46" y="658" type="line"/>
      <point x="148" y="635" type="line"/>
      <point x="99" y="667" type="line"/>
      <point x="108" y="652"/>
      <point x="140" y="604"/>
      <point x="158" y="557" type="curve" smooth="yes"/>
    </contour>
  </outline>
</glyph>
<glyph name="X" format="2">
  <advance width="796.1"/>
  <unicode hex="0058"/>
  <anchor x="398" y="0" name="bottom"/>
  <anchor x="398" y="705" name="top"/>
  <outline>
    <contour>
      <point x="57" y="-5" type="line"/>
      <point x="105" y="-3"/>
      <point x="174" y="0"/>
      <point x="202" y="0" type="curve" smooth="yes"/>
      <point x="298" y="0" type="line"/>
      <point x="303" y="53" type="line"/>
      <point x="194" y="68" type="line"/>
      <point x="219" y="45" type="line"/>
      <point x="230" y="67"/>
      <point x="249" y="112"/>
      <point x="263" y="132" type="curve" smooth="yes"/>
      <point x="398" y="333" type="line"/>
      <point x="360" y="333" type="line"/>
      <point x="495" y="142" type="line" smooth="yes"/>
      <point x="513" y="117"/>
      <point x="538" y="70"/>
      <point x="548" y="43" type="curve"/>
      <point x="573" y="71" type="line"/>
      <point x="472" y="42" type="line"/>
      <point x="476" y="-5" type="line"/>
      <point x="527" y="-3"/>
      <point x="597" y="0"/>
      <point x="627" y="0" type="curve" smooth="yes"/>
      <point x="739" y="0" type="line"/>
      <point x="744" y="53" type="line"/>
      <point x="632" y="68" type="line"/>
      <point x="680" y="49" type="line"/>
      <point x="660" y="68"/>
      <point x="615" y="116"/>
      <point x="604" y="132" type="curve" smooth="yes"/>
      <point x="416" y="396" type="line"/>
      <point x="416" y="338" type="line"/>
      <point x="565" y="569" type="line" smooth="yes"/>
      <point x="575" y="585"/>
      <point x="652" y="651"/>
      <point x="672" y="667" type="curve"/>
      <point x="612" y="642" type="line"/>
      <point x="716" y="653" type="line"/>
      <point x="712" y="710" type="line"/>
      <point x="660" y="708"/>
      <point x="598" y="705"/>
      <point x="557" y="705" type="curve" smooth="yes"/>
      <point x="537" y="705"/>
      <point x="490" y="708"/>
      <point x="457" y="710" type="curve"/>
      <point x="452" y="658" type="line"/>
      <point x="565" y="636" type="line"/>
      <point x="540" y="661" type="line"/>
      <point x="529" y="638"/>
      <point x="509" y="598"/>
      <point x="497" y="578" type="curve" smooth="yes"/>
      <point x="380" y="389" type="line"/>
      <point x="418" y="390" type="line"/>
      <point x="300" y="555" type="line" smooth="yes"/>
      <point x="284" y="579"/>
      <point x="261" y="640"/>
      <point x="254" y="655" type="curve"/>
      <point x="225" y="637" type="line"/>
      <point x="341" y="653" type="line"/>
      <point x="337" y="710" type="line"/>
      <point x="288" y="708"/>
      <point x="229" y="705"/>
      <point x="190" y="705" type="curve" smooth="yes"/>
      <point x="171" y="705"/>
      <point x="112" y="708"/>
      <point x="75" y="710" type="curve"/>
      <point x="70" y="658" type="line"/>
      <point x="171" y="634" type="line"/>
      <point x="130" y="653" type="line"/>
      <point x="140" y="640"/>
      <point x="183" y="583"/>
      <point x="200" y="558" type="curve" smooth="yes"/>
      <point x="363" y="328" type="line"/>
      <point x="363" y="384" type="line"/>
      <point x="212" y="164" type="line" smooth="yes"/>
      <point x="192" y="135"/>
      <point x="119" y="63"/>
      <point x="108" y="51" type="curve"/>
      <point x="150" y="69" type="line"/>
      <point x="53" y="42" type="line"/>
    </contour>
  </outline>
</glyph>
<glyph name="Y" format="2">
  <advance width="729.2"/>
  <unicode hex="0059"/>
  <anchor x="361" y="0" name="bottom"/>
  <anchor x="370" y="720" name="top"/>
  <outline>
    <contour>
      <point x="334" y="238" type="line"/>
      <point x="391" y="238" type="line"/>
      <point x="548" y="545" type="line" smooth="yes"/>
      <point x="582" y="609"/>
      <point x="618" y="655"/>
      <point x="630" y="669" type="curve"/>
      <point x="578" y="642" type="line"/>
      <point x="682" y="653" type="line"/>
      <point x="678" y="710" type="line"/>
      <point x="661" y="709"/>
      <point x="596" y="705"/>
      <point x="534" y="705" type="curve" smooth="yes"/>
      <point x="514" y="705"/>
      <point x="476" y="708"/>
      <point x="445" y="710" type="curve"/>
      <point x="440" y="658" type="line"/>
      <point x="552" y="636" type="line"/>
      <point x="533" y="675" type="line"/>
      <point x="530" y="667"/>
      <point x="504" y="609"/>
      <point x="489" y="577" type="curve" smooth="yes"/>
      <point x="358" y="311" type="line"/>
      <point x="389" y="312" type="line"/>
      <point x="273" y="530" type="line" smooth="yes"/>
      <point x="231" y="605"/>
      <point x="221" y="655"/>
      <point x="221" y="668" type="curve"/>
      <point x="193" y="637" type="line"/>
      <point x="309" y="653" type="line"/>
      <point x="305" y="710" type="line"/>
      <point x="288" y="709"/>
      <point x="227" y="705"/>
      <point x="166" y="705" type="curve" smooth="yes"/>
      <point x="147" y="705"/>
      <point x="88" y="708"/>
      <point x="51" y="710" type="curve"/>
      <point x="46" y="658" type="line"/>
      <point x="147" y="634" type="line"/>
      <point x="93" y="669" type="line"/>
      <point x="104" y="655"/>
      <point x="143" y="607"/>
      <point x="170" y="554" type="curve" smooth="yes"/>
    </contour>
    <contour>
      <point x="239" y="-5" type="line"/>
      <point x="289" y="-3"/>
      <point x="360" y="0"/>
      <point x="373" y="0" type="curve" smooth="yes"/>
      <point x="501" y="0" type="line"/>
      <point x="508" y="53" type="line"/>
      <point x="382" y="63" type="line"/>
      <point x="421" y="28" type="line"/>
      <point x="416" y="54"/>
      <point x="409" y="113"/>
      <point x="409" y="165" type="curve" smooth="yes"/>
      <point x="409" y="321" type="line"/>
      <point x="323" y="321" type="line"/>
      <point x="323" y="135" type="line" smooth="yes"/>
      <point x="323" y="114"/>
      <point x="312" y="45"/>
      <point x="309" y="28" type="curve"/>
      <point x="348" y="67" type="line"/>
      <point x="234" y="44" type="line"/>
    </contour>
  </outline>
</glyph>
<glyph name="backslash" format="2">
  <advance width="408.1"/>
  <unicode hex="005C"/>
  <outline>
    <contour>
      <point x="328" y="-67" type="line"/>
      <point x="390" y="-48" type="line"/>
      <point x="78" y="773" type="line"/>
      <point x="18" y="754" type="line"/>
    </contour>
  </outline>
</glyph>
<glyph name="bracketright" format="2">
  <advance width="421.1"/>
  <unicode hex="005D"/>
  <outline>
    <contour>
      <point x="90" y="829" type="line"/>
      <point x="87" y="788" type="line"/>
      <point x="224" y="771" type="line"/>
      <point x="188" y="807" type="line"/>
      <point x="197" y="758"/>
      <point x="208" y="688"/>
      <point x="208" y="656" type="curve" smooth="yes"/>
      <point x="208" y="66" type="line" smooth="yes"/>
      <point x="208" y="36"/>
      <point x="198" y="-35"/>
      <point x="188" y="-86" type="curve"/>
      <point x="224" y="-49" type="line"/>
      <point x="87" y="-67" type="line"/>
      <point x="90" y="-107" type="line"/>
      <point x="265" y="-103" type="line"/>
      <point x="284" y="-85" type="line"/>
      <point x="279" y="-18"/>
      <point x="273" y="91"/>
      <point x="273" y="118" type="curve" smooth="yes"/>
      <point x="273" y="604" type="line" smooth="yes"/>
      <point x="273" y="632"/>
      <point x="279" y="740"/>
      <point x="284" y="807" type="curve"/>
      <point x="265" y="825" type="line"/>
    </contour>
  </outline>
</glyph>
<glyph name="underscore" format="2">
  <advance width="656.7"/>
  <unicode hex="005F"/>
  <outline>
    <contour>
      <point x="79" y="-232" type="line"/>
      <point x="576" y="-232" type="line"/>
      <point x="581" y="-159" type="line"/>
      <point x="77" y="-159" type="line"/>
    </contour>
  </outline>
</glyph>
<glyph name="a" format="2">
  <advance width="516.8"/>
  <unicode hex="0061"/>
  <anchor x="247" y="0" name="bottom"/>
  <anchor x="488" y="0" name="ogonek"/>
  <anchor x="230" y="494" name="top"/>
  <outline>
    <contour>
      <point x="189" y="-10" type="curve" smooth="yes"/>
      <point x="279" y="-10"/>
      <point x="357" y="59"/>
      <point x="362" y="116" type="curve"/>
      <point x="344" y="113" type="line"/>
      <point x="364" y="0" type="line"/>
      <point x="489" y="0" type="line"/>
      <point x="495" y="52" type="line"/>
      <point x="397" y="63" type="line"/>
      <point x="430" y="33" type="line"/>
      <point x="425" y="58"/>
      <point x="415" y="104"/>
      <point x="415" y="164" type="curve" smooth="yes"/>
      <point x="415" y="287" type="line" smooth="yes"/>
      <point x="415" y="444"/>
      <point x="372" y="502"/>
      <point x="254" y="502" type="curve" smooth="yes"/>
      <point x="193" y="502"/>
      <point x="134" y="494"/>
      <point x="74" y="479" type="curve"/>
      <point x="84" y="346" type="line"/>
      <point x="142" y="349" type="line"/>
      <point x="141" y="390" type="line"/>
      <point x="153" y="465" type="line"/>
      <point x="122" y="422" type="line"/>
      <point x="144" y="438"/>
      <point x="202" y="452"/>
      <point x="244" y="452" type="curve" smooth="yes"/>
      <point x="308" y="452"/>
      <point x="340" y="405"/>
      <point x="340" y="309" type="curve" smooth="yes"/>
      <point x="340" y="168" type="line"/>
      <point x="330" y="101"/>
      <point x="271" y="50"/>
      <point x="201" y="50" type="curve" smooth="yes"/>
      <point x="153" y="50"/>
      <point x="126" y="80"/>
      <point x="126" y="131" type="curve" smooth="yes"/>
      <point x="126" y="166"/>
      <point x="150" y="191"/>
      <point x="190" y="198" type="curve"/>
      <point x="353" y="229" type="line"/>
      <point x="353" y="278" type="line"/>
      <point x="178" y="249" type="line" smooth="yes"/>
      <point x="88" y="234"/>
      <point x="44" y="186"/>
      <point x="44" y="117" type="curve" smooth="yes"/>
      <point x="44" y="40"/>
      <point x="100" y="-10"/>
    </contour>
  </outline>
</glyph>
<glyph name="b" format="2">
  <advance width="538"/>
  <unicode hex="0062"/>
  <anchor x="269" y="0" name="bottom"/>
  <anchor x="269" y="756" name="top"/>
  <outline>
    <contour>
      <point x="264" y="-10" type="curve" smooth="yes"/>
      <point x="405" y="-10"/>
      <point x="492" y="115"/>
      <point x="492" y="256" type="curve" smooth="yes"/>
      <point x="492" y="394"/>
      <point x="426" y="502"/>
      <point x="293" y="502" type="curve" smooth="yes"/>
      <point x="215" y="502"/>
      <point x="166" y="452"/>
      <point x="146" y="411" type="curve"/>
      <point x="154" y="393" type="line"/>
      <point x="154" y="588" type="line" smooth="yes"/>
      <point x="154" y="625"/>
      <point x="158" y="695"/>
      <point x="161" y="738" type="curve"/>
      <point x="142" y="756" type="line"/>
      <point x="87" y="756" type="line"/>
      <point x="-2" y="759" type="line"/>
      <point x="-7" y="709" type="line"/>
      <point x="103" y="685" type="line"/>
      <point x="65" y="716" type="line"/>
      <point x="69" y="694"/>
      <point x="79" y="640"/>
      <point x="79" y="618" type="curve" smooth="yes"/>
      <point x="79" y="134" type="line" smooth="yes"/>
      <point x="79" y="119"/>
      <point x="75" y="64"/>
      <point x="72" y="26" type="curve"/>
      <point x="113" y="10"/>
      <point x="180" y="-10"/>
    </contour>
    <contour>
      <point x="167" y="28" type="line"/>
      <point x="161" y="48"/>
      <point x="154" y="109"/>
      <point x="154" y="164" type="curve" smooth="yes"/>
      <point x="154" y="275" type="line" smooth="yes"/>
      <point x="154" y="359"/>
      <point x="196" y="447"/>
      <point x="282" y="447" type="curve" smooth="yes"/>
      <point x="379" y="447"/>
      <point x="407" y="356"/>
      <point x="407" y="255" type="curve" smooth="yes"/>
      <point x="407" y="143"/>
      <point x="369" y="42"/>
      <point x="259" y="42" type="curve" smooth="yes"/>
      <point x="214" y="42"/>
      <point x="175" y="49"/>
      <point x="144" y="59" type="curve"/>
    </contour>
  </outline>
</glyph>
<glyph name="c" format="2">
  <advance width="480.9"/>
  <unicode hex="0063"/>
  <anchor x="255" y="0" name="bottom"/>
  <anchor x="279" y="494" name="top"/>
  <outline>
    <contour>
      <point x="274" y="-10" type="curve" smooth="yes"/>
      <point x="333" y="-10"/>
      <point x="386" y="6"/>
      <point x="442" y="43" type="curve"/>
      <point x="415" y="89" type="line"/>
      <point x="367" y="66"/>
      <point x="322" y="52"/>
      <point x="273" y="52" type="curve" smooth="yes"/>
      <point x="171" y="52"/>
      <point x="135" y="147"/>
      <point x="135" y="246" type="curve" smooth="yes"/>
      <point x="135" y="343"/>
      <point x="173" y="448"/>
      <point x="275" y="448" type="curve" smooth="yes"/>
      <point x="310" y="448"/>
      <point x="345" y="432"/>
      <point x="381" y="413" type="curve"/>
      <point x="350" y="445" type="line"/>
      <point x="357" y="423"/>
      <point x="366" y="394"/>
      <point x="366" y="384" type="curve" smooth="yes"/>
      <point x="366" y="350" type="line"/>
      <point x="421" y="347" type="line"/>
      <point x="431" y="466" type="line"/>
      <point x="371" y="487"/>
      <point x="335" y="502"/>
      <point x="276" y="502" type="curve" smooth="yes"/>
      <point x="123" y="502"/>
      <point x="47" y="398"/>
      <point x="47" y="246" type="curve" smooth="yes"/>
      <point x="47" y="95"/>
      <point x="122" y="-10"/>
    </contour>
  </outline>
</glyph>
<glyph name="d" format="2">
  <advance width="560.5"/>
  <unicode hex="0064"/>
  <anchor x="279" y="0" name="bottom"/>
  <anchor x="385" y="610" name="center"/>
  <anchor x="327" y="756" name="top"/>
  <anchor x="556" y="494" name="topright"/>
  <outline>
    <contour>
      <point x="250" y="-10" type="curve" smooth="yes"/>
      <point x="308" y="-10"/>
      <point x="397" y="50"/>
      <point x="395" y="96" type="curve"/>
      <point x="388" y="113" type="line"/>
      <point x="408" y="0" type="line"/>
      <point x="533" y="0" type="line"/>
      <point x="539" y="52" type="line"/>
      <point x="436" y="63" type="line"/>
      <point x="475" y="27" type="line"/>
      <point x="470" y="49"/>
      <point x="459" y="111"/>
      <point x="459" y="163" type="curve" smooth="yes"/>
      <point x="459" y="589" type="line" smooth="yes"/>
      <point x="459" y="625"/>
      <point x="462" y="695"/>
      <point x="465" y="738" type="curve"/>
      <point x="447" y="756" type="line"/>
      <point x="391" y="756" type="line"/>
      <point x="289" y="759" type="line"/>
      <point x="284" y="709" type="line"/>
      <point x="406" y="688" type="line"/>
      <point x="368" y="721" type="line"/>
      <point x="372" y="705"/>
      <point x="384" y="645"/>
      <point x="384" y="619" type="curve" smooth="yes"/>
      <point x="384" y="203" type="line"/>
      <point x="384" y="106"/>
      <point x="334" y="48"/>
      <point x="252" y="48" type="curve" smooth="yes"/>
      <point x="178" y="48"/>
      <point x="131" y="124"/>
      <point x="131" y="245" type="curve" smooth="yes"/>
      <point x="131" y="370"/>
      <point x="181" y="446"/>
      <point x="263" y="446" type="curve" smooth="yes"/>
      <point x="310" y="446"/>
      <point x="351" y="432"/>
      <point x="398" y="395" type="curve"/>
      <point x="405" y="467" type="line"/>
      <point x="334" y="496"/>
      <point x="302" y="502"/>
      <point x="253" y="502" type="curve" smooth="yes"/>
      <point x="127" y="502"/>
      <point x="48" y="404"/>
      <point x="48" y="248" type="curve" smooth="yes"/>
      <point x="48" y="88"/>
      <point x="126" y="-10"/>
    </contour>
  </outline>
</glyph>
<glyph name="h" format="2">
  <advance width="605"/>
  <unicode hex="0068"/>
  <anchor x="298" y="0" name="bottom"/>
  <anchor x="180" y="610" name="center"/>
  <anchor x="162" y="719" name="top"/>
  <outline>
    <contour>
      <point x="26" y="-5" type="line"/>
      <point x="63" y="-3"/>
      <point x="115" y="0"/>
      <point x="136" y="0" type="curve"/>
      <point x="263" y="0" type="line"/>
      <point x="270" y="52" type="line"/>
      <point x="157" y="62" type="line"/>
      <point x="194" y="25" type="line"/>
      <point x="190" y="49"/>
      <point x="185" y="112"/>
      <point x="185" y="164" type="curve" smooth="yes"/>
      <point x="185" y="275" type="line" smooth="yes"/>
      <point x="186" y="374"/>
      <point x="234" y="446"/>
      <point x="315" y="446" type="curve" smooth="yes"/>
      <point x="403" y="446"/>
      <point x="421" y="360"/>
      <point x="421" y="273" type="curve" smooth="yes"/>
      <point x="421" y="134" type="line" smooth="yes"/>
      <point x="421" y="100"/>
      <point x="412" y="64"/>
      <point x="406" y="44" type="curve"/>
      <point x="443" y="67" type="line"/>
      <point x="343" y="43" type="line"/>
      <point x="348" y="-5" type="line"/>
      <point x="382" y="-3"/>
      <point x="433" y="0"/>
      <point x="448" y="0" type="curve"/>
      <point x="576" y="0" type="line"/>
      <point x="583" y="52" type="line"/>
      <point x="470" y="62" type="line"/>
      <point x="506" y="35" type="line"/>
      <point x="502" y="61"/>
      <point x="496" y="115"/>
      <point x="496" y="164" type="curve" smooth="yes"/>
      <point x="496" y="271" type="line" smooth="yes"/>
      <point x="496" y="411"/>
      <point x="468" y="503"/>
      <point x="328" y="503" type="curve" smooth="yes"/>
      <point x="250" y="503"/>
      <point x="199" y="456"/>
      <point x="176" y="411" type="curve"/>
      <point x="185" y="393" type="line"/>
      <point x="185" y="588" type="line" smooth="yes"/>
      <point x="185" y="635"/>
      <point x="188" y="708"/>
      <point x="191" y="738" type="curve"/>
      <point x="172" y="756" type="line"/>
      <point x="117" y="756" type="line"/>
      <point x="28" y="759" type="line"/>
      <point x="23" y="709" type="line"/>
      <point x="133" y="685" type="line"/>
      <point x="94" y="731" type="line"/>
      <point x="99" y="701"/>
      <point x="109" y="643"/>
      <point x="109" y="618" type="curve" smooth="yes"/>
      <point x="109" y="134" type="line" smooth="yes"/>
      <point x="109" y="109"/>
      <point x="96" y="44"/>
      <point x="93" y="29" type="curve"/>
      <point x="133" y="66" type="line"/>
      <point x="21" y="43" type="line"/>
    </contour>
  </outline>
</glyph>
<glyph name="l" format="2">
  <advance width="292"/>
  <unicode hex="006C"/>
  <anchor x="148" y="0" name="bottom"/>
  <anchor x="153" y="382" name="center"/>
  <anchor x="364" y="410" name="centerright"/>
  <anchor x="133" y="756" name="top"/>
  <anchor x="284" y="494" name="topright"/>
  <outline>
    <contour>
      <point x="26" y="-5" type="line"/>
      <point x="63" y="-3"/>
      <point x="115" y="0"/>
      <point x="136" y="0" type="curve" smooth="yes"/>
      <point x="263" y="0" type="line"/>
      <point x="270" y="52" type="line"/>
      <point x="157" y="62" type="line"/>
      <point x="194" y="25" type="line"/>
      <point x="190" y="49"/>
      <point x="185" y="111"/>
      <point x="185" y="164" type="curve" smooth="yes"/>
      <point x="185" y="588" type="line" smooth="yes"/>
      <point x="185" y="635"/>
      <point x="188" y="708"/>
      <point x="191" y="738" type="curve"/>
      <point x="172" y="756" type="line"/>
      <point x="117" y="756" type="line"/>
      <point x="28" y="759" type="line"/>
      <point x="23" y="709" type="line"/>
      <point x="133" y="685" type="line"/>
      <point x="94" y="731" type="line"/>
      <point x="99" y="701"/>
      <point x="109" y="643"/>
      <point x="109" y="618" type="curve" smooth="yes"/>
      <point x="109" y="134" type="line" smooth="yes"/>
      <point x="109" y="109"/>
      <point x="96" y="44"/>
      <point x="93" y="29" type="curve"/>
      <point x="133" y="66" type="line"/>
      <point x="21" y="43" type="line"/>
    </contour>
  </outline>
</glyph>
<glyph name="m" format="2">
  <advance width="898.5"/>
  <unicode hex="006D"/>
  <anchor x="450" y="0" name="bottom"/>
  <anchor x="450" y="494" name="top"/>
  <outline>
    <contour>
      <point x="642" y="-5" type="line"/>
      <point x="675" y="-3"/>
      <point x="732" y="0"/>
      <point x="742" y="0" type="curve"/>
      <point x="870" y="0" type="line"/>
      <point x="876" y="52" type="line"/>
      <point x="764" y="62" type="line"/>
      <point x="800" y="40" type="line"/>
      <point x="797" y="57"/>
      <point x="790" y="114"/>
      <point x="790" y="164" type="curve" smooth="yes"/>
      <point x="790" y="271" type="line" smooth="yes"/>
      <point x="790" y="411"/>
      <point x="765" y="502"/>
      <point x="636" y="502" type="curve" smooth="yes"/>
      <point x="562" y="502"/>
      <point x="493" y="457"/>
      <point x="469" y="369" type="curve"/>
      <point x="494" y="274" type="line"/>
      <point x="496" y="373"/>
      <point x="544" y="445"/>
      <point x="622" y="445" type="curve" smooth="yes"/>
      <point x="700" y="445"/>
      <point x="715" y="359"/>
      <point x="715" y="272" type="curve" smooth="yes"/>
      <point x="715" y="134" type="line" smooth="yes"/>
      <point x="715" y="108"/>
      <point x="706" y="56"/>
      <point x="701" y="35" type="curve"/>
      <point x="737" y="67" type="line"/>
      <point x="637" y="43" type="line"/>
    </contour>
    <contour>
      <point x="40" y="-5" type="line"/>
      <point x="77" y="-3"/>
      <point x="129" y="0"/>
      <point x="150" y="0" type="curve"/>
      <point x="277" y="0" type="line"/>
      <point x="284" y="52" type="line"/>
      <point x="171" y="62" type="line"/>
      <point x="208" y="25" type="line"/>
      <point x="204" y="49"/>
      <point x="199" y="112"/>
      <point x="199" y="164" type="curve" smooth="yes"/>
      <point x="199" y="329" type="line"/>
      <point x="185" y="476" type="line"/>
      <point x="166" y="494" type="line"/>
      <point x="42" y="494" type="line"/>
      <point x="37" y="442" type="line"/>
      <point x="147" y="423" type="line"/>
      <point x="107" y="469" type="line"/>
      <point x="111" y="448"/>
      <point x="123" y="381"/>
      <point x="123" y="356" type="curve" smooth="yes"/>
      <point x="123" y="134" type="line"/>
      <point x="123" y="109"/>
      <point x="110" y="44"/>
      <point x="107" y="29" type="curve"/>
      <point x="147" y="66" type="line"/>
      <point x="35" y="43" type="line"/>
    </contour>
    <contour>
      <point x="346" y="-5" type="line"/>
      <point x="379" y="-3"/>
      <point x="436" y="0"/>
      <point x="446" y="0" type="curve"/>
      <point x="574" y="0" type="line"/>
      <point x="581" y="52" type="line"/>
      <point x="468" y="62" type="line"/>
      <point x="504" y="40" type="line"/>
      <point x="501" y="57"/>
      <point x="494" y="114"/>
      <point x="494" y="164" type="curve" smooth="yes"/>
      <point x="494" y="271" type="line" smooth="yes"/>
      <point x="494" y="411"/>
      <point x="469" y="502"/>
      <point x="340" y="502" type="curve" smooth="yes"/>
      <point x="266" y="502"/>
      <point x="197" y="457"/>
      <point x="173" y="370" type="curve"/>
      <point x="199" y="275" type="line"/>
      <point x="200" y="374"/>
      <point x="248" y="445"/>
      <point x="326" y="445" type="curve" smooth="yes"/>
      <point x="404" y="445"/>
      <point x="419" y="359"/>
      <point x="419" y="272" type="curve" smooth="yes"/>
      <point x="419" y="134" type="line" smooth="yes"/>
      <point x="419" y="108"/>
      <point x="410" y="56"/>
      <point x="405" y="35" type="curve"/>
      <point x="441" y="67" type="line"/>
      <point x="341" y="43" type="line"/>
    </contour>
  </outline>
</glyph>
<glyph name="n" format="2">
  <advance width="618.6"/>
  <unicode hex="006E"/>
  <anchor x="303" y="0" name="bottom"/>
  <anchor x="336" y="494" name="top"/>
  <anchor x="3" y="537" name="topleft"/>
  <outline>
    <contour>
      <point x="40" y="-5" type="line"/>
      <point x="77" y="-3"/>
      <point x="129" y="0"/>
      <point x="150" y="0" type="curve"/>
      <point x="277" y="0" type="line"/>
      <point x="284" y="52" type="line"/>
      <point x="171" y="62" type="line"/>
      <point x="208" y="25" type="line"/>
      <point x="204" y="49"/>
      <point x="199" y="112"/>
      <point x="199" y="164" type="curve" smooth="yes"/>
      <point x="199" y="275" type="line" smooth="yes"/>
      <point x="199" y="374"/>
      <point x="248" y="445"/>
      <point x="329" y="445" type="curve" smooth="yes"/>
      <point x="417" y="445"/>
      <point x="435" y="359"/>
      <point x="435" y="272" type="curve" smooth="yes"/>
      <point x="435" y="134" type="line" smooth="yes"/>
      <point x="435" y="100"/>
      <point x="426" y="64"/>
      <point x="420" y="44" type="curve"/>
      <point x="457" y="67" type="line"/>
      <point x="357" y="43" type="line"/>
      <point x="362" y="-5" type="line"/>
      <point x="395" y="-3"/>
      <point x="453" y="0"/>
      <point x="462" y="0" type="curve"/>
      <point x="590" y="0" type="line"/>
      <point x="597" y="52" type="line"/>
      <point x="484" y="62" type="line"/>
      <point x="520" y="35" type="line"/>
      <point x="516" y="61"/>
      <point x="510" y="115"/>
      <point x="510" y="164" type="curve" smooth="yes"/>
      <point x="510" y="271" type="line" smooth="yes"/>
      <point x="510" y="411"/>
      <point x="482" y="502"/>
      <point x="341" y="502" type="curve" smooth="yes"/>
      <point x="265" y="502"/>
      <point x="206" y="459"/>
      <point x="177" y="384" type="curve"/>
      <point x="199" y="326" type="line"/>
      <point x="185" y="476" type="line"/>
      <point x="166" y="494" type="line"/>
      <point x="42" y="494" type="line"/>
      <point x="37" y="442" type="line"/>
      <point x="147" y="423" type="line"/>
      <point x="107" y="469" type="line"/>
      <point x="111" y="448"/>
      <point x="123" y="381"/>
      <point x="123" y="356" type="curve" smooth="yes"/>
      <point x="123" y="134" type="line" smooth="yes"/>
      <point x="123" y="109"/>
      <point x="110" y="44"/>
      <point x="107" y="29" type="curve"/>
      <point x="147" y="66" type="line"/>
      <point x="35" y="43" type="line"/>
    </contour>
  </outline>
</glyph>
<glyph name="o" format="2">
  <advance width="550.5"/>
  <unicode hex="006F"/>
  <anchor x="276" y="0" name="bottom"/>
  <anchor x="261" y="247" name="center"/>
  <anchor x="352" y="0" name="ogonek"/>
  <anchor x="274" y="494" name="top"/>
  <anchor x="381" y="450" name="topright"/>
  <outline>
    <contour>
      <point x="276" y="-10" type="curve" smooth="yes"/>
      <point x="426" y="-10"/>
      <point x="503" y="95"/>
      <point x="503" y="246" type="curve" smooth="yes"/>
      <point x="503" y="400"/>
      <point x="428" y="503"/>
      <point x="276" y="503" type="curve" smooth="yes"/>
      <point x="124" y="503"/>
      <point x="47" y="397"/>
      <point x="47" y="246" type="curve" smooth="yes"/>
      <point x="47" y="96"/>
      <point x="124" y="-10"/>
    </contour>
    <contour>
      <point x="276" y="44" type="curve" smooth="yes"/>
      <point x="168" y="44"/>
      <point x="133" y="145"/>
      <point x="133" y="246" type="curve" smooth="yes"/>
      <point x="133" y="347"/>
      <point x="168" y="449"/>
      <point x="276" y="449" type="curve" smooth="yes"/>
      <point x="384" y="449"/>
      <point x="417" y="345"/>
      <point x="417" y="246" type="curve" smooth="yes"/>
      <point x="417" y="147"/>
      <point x="384" y="44"/>
    </contour>
  </outline>
</glyph>
<glyph name="r" format="2">
  <advance width="455.4"/>
  <unicode hex="0072"/>
  <anchor x="171" y="0" name="bottom"/>
  <anchor x="229" y="494" name="top"/>
  <outline>
    <contour>
      <point x="40" y="-5" type="line"/>
      <point x="77" y="-3"/>
      <point x="129" y="0"/>
      <point x="150" y="0" type="curve" smooth="yes"/>
      <point x="299" y="0" type="line"/>
      <point x="305" y="52" type="line"/>
      <point x="171" y="62" type="line"/>
      <point x="208" y="25" type="line"/>
      <point x="204" y="49"/>
      <point x="199" y="112"/>
      <point x="199" y="164" type="curve" smooth="yes"/>
      <point x="199" y="280" type="line" smooth="yes"/>
      <point x="199" y="375"/>
      <point x="240" y="437"/>
      <point x="336" y="437" type="curve" smooth="yes"/>
      <point x="349" y="437"/>
      <point x="363" y="437"/>
      <point x="377" y="438" type="curve"/>
      <point x="330" y="464" type="line"/>
      <point x="339" y="441"/>
      <point x="354" y="397"/>
      <point x="354" y="387" type="curve" smooth="yes"/>
      <point x="354" y="335" type="line"/>
      <point x="411" y="332" type="line"/>
      <point x="420" y="493" type="line"/>
      <point x="398" y="499"/>
      <point x="376" y="503"/>
      <point x="354" y="503" type="curve" smooth="yes"/>
      <point x="236" y="503"/>
      <point x="198" y="429"/>
      <point x="169" y="358" type="curve"/>
      <point x="199" y="326" type="line"/>
      <point x="185" y="476" type="line"/>
      <point x="166" y="494" type="line"/>
      <point x="42" y="494" type="line"/>
      <point x="37" y="442" type="line"/>
      <point x="147" y="423" type="line"/>
      <point x="107" y="469" type="line"/>
      <point x="111" y="448"/>
      <point x="123" y="381"/>
      <point x="123" y="356" type="curve" smooth="yes"/>
      <point x="123" y="134" type="line"/>
      <point x="123" y="109"/>
      <point x="110" y="44"/>
      <point x="107" y="29" type="curve"/>
      <point x="147" y="66" type="line"/>
      <point x="35" y="43" type="line"/>
    </contour>
  </outline>
</glyph>
<glyph name="v" format="2">
  <advance width="561.1"/>
  <unicode hex="0076"/>
  <anchor x="281" y="0" name="bottom"/>
  <anchor x="281" y="494" name="top"/>
  <outline>
    <contour>
      <point x="257" y="0" type="line"/>
      <point x="318" y="0" type="line"/>
      <point x="433" y="319" type="line" smooth="yes"/>
      <point x="451" y="370"/>
      <point x="472" y="412"/>
      <point x="496" y="467" type="curve"/>
      <point x="449" y="433" type="line"/>
      <point x="539" y="443" type="line"/>
      <point x="536" y="494" type="line"/>
      <point x="330" y="494" type="line"/>
      <point x="325" y="447" type="line"/>
      <point x="436" y="431" type="line"/>
      <point x="411" y="468" type="line"/>
      <point x="402" y="429"/>
      <point x="396" y="388"/>
      <point x="383" y="351" type="curve" smooth="yes"/>
      <point x="287" y="66" type="line"/>
      <point x="310" y="67" type="line"/>
      <point x="209" y="349" type="line" smooth="yes"/>
      <point x="196" y="386"/>
      <point x="186" y="425"/>
      <point x="174" y="467" type="curve"/>
      <point x="151" y="432" type="line"/>
      <point x="246" y="443" type="line"/>
      <point x="243" y="494" type="line"/>
      <point x="27" y="494" type="line"/>
      <point x="22" y="442" type="line"/>
      <point x="116" y="430" type="line"/>
      <point x="68" y="466" type="line"/>
      <point x="88" y="426"/>
      <point x="109" y="387"/>
      <point x="125" y="344" type="curve" smooth="yes"/>
    </contour>
  </outline>
</glyph>
<glyph name="w" format="2">
  <advance width="830.9"/>
  <unicode hex="0077"/>
  <anchor x="415" y="0" name="bottom"/>
  <anchor x="415" y="494" name="top"/>
  <outline>
    <contour>
      <point x="236" y="0" type="line"/>
      <point x="297" y="0" type="line"/>
      <point x="425" y="377" type="line"/>
      <point x="403" y="376" type="line"/>
      <point x="536" y="0" type="line"/>
      <point x="598" y="0" type="line"/>
      <point x="713" y="319" type="line" smooth="yes"/>
      <point x="731" y="370"/>
      <point x="753" y="412"/>
      <point x="776" y="467" type="curve"/>
      <point x="730" y="432" type="line"/>
      <point x="809" y="443" type="line"/>
      <point x="806" y="494" type="line"/>
      <point x="601" y="494" type="line"/>
      <point x="596" y="447" type="line"/>
      <point x="717" y="431" type="line"/>
      <point x="692" y="468" type="line"/>
      <point x="684" y="433"/>
      <point x="677" y="389"/>
      <point x="663" y="351" type="curve" smooth="yes"/>
      <point x="567" y="66" type="line"/>
      <point x="590" y="67" type="line"/>
      <point x="441" y="494" type="line"/>
      <point x="406" y="494" type="line"/>
      <point x="267" y="66" type="line"/>
      <point x="289" y="67" type="line"/>
      <point x="188" y="349" type="line" smooth="yes"/>
      <point x="176" y="382"/>
      <point x="164" y="427"/>
      <point x="154" y="467" type="curve"/>
      <point x="130" y="433" type="line"/>
      <point x="245" y="443" type="line"/>
      <point x="242" y="494" type="line"/>
      <point x="27" y="494" type="line"/>
      <point x="22" y="442" type="line"/>
      <point x="94" y="427" type="line"/>
      <point x="47" y="466" type="line"/>
      <point x="68" y="425"/>
      <point x="88" y="386"/>
      <point x="104" y="344" type="curve" smooth="yes"/>
    </contour>
  </outline>
</glyph>
<glyph name="y" format="2">
  <advance width="571"/>
  <unicode hex="0079"/>
  <anchor x="381" y="-28" name="bottom"/>
  <anchor x="291" y="494" name="top"/>
  <outline>
    <contour>
      <point x="235" y="-244" type="line"/>
      <point x="442" y="318" type="line" smooth="yes"/>
      <point x="461" y="368"/>
      <point x="486" y="416"/>
      <point x="509" y="465" type="curve"/>
      <point x="462" y="429" type="line"/>
      <point x="549" y="442" type="line"/>
      <point x="546" y="494" type="line"/>
      <point x="347" y="494" type="line"/>
      <point x="342" y="447" type="line"/>
      <point x="451" y="428" type="line"/>
      <point x="427" y="466" type="line"/>
      <point x="416" y="422"/>
      <point x="405" y="377"/>
      <point x="389" y="334" type="curve" smooth="yes"/>
      <point x="287" y="67" type="line"/>
      <point x="313" y="67" type="line"/>
      <point x="197" y="348" type="line" smooth="yes"/>
      <point x="181" y="387"/>
      <point x="172" y="428"/>
      <point x="161" y="467" type="curve"/>
      <point x="137" y="431" type="line"/>
      <point x="246" y="442" type="line"/>
      <point x="243" y="494" type="line"/>
      <point x="27" y="494" type="line"/>
      <point x="22" y="442" type="line"/>
      <point x="102" y="425" type="line"/>
      <point x="54" y="463" type="line"/>
      <point x="78" y="420"/>
      <point x="103" y="378"/>
      <point x="122" y="334" type="curve" smooth="yes"/>
      <point x="280" y="-30" type="line"/>
      <point x="278" y="32" type="line"/>
      <point x="235" y="-89"/>
      <point x="217" y="-141"/>
      <point x="171" y="-211" type="curve"/>
      <point x="173" y="-219" type="line"/>
    </contour>
  </outline>
</glyph>
<glyph name="z" format="2">
  <advance width="473.5"/>
  <unicode hex="007A"/>
  <anchor x="237" y="0" name="bottom"/>
  <anchor x="237" y="247" name="center"/>
  <anchor x="237" y="494" name="top"/>
  <outline>
    <contour>
      <point x="402" y="-3" type="curve"/>
      <point x="420" y="16" type="line"/>
      <point x="428" y="140" type="line"/>
      <point x="371" y="146" type="line"/>
      <point x="366" y="107" type="line" smooth="yes"/>
      <point x="362" y="94"/>
      <point x="343" y="52"/>
      <point x="330" y="24" type="curve"/>
      <point x="376" y="58" type="line"/>
      <point x="346" y="56"/>
      <point x="297" y="49"/>
      <point x="285" y="49" type="curve" smooth="yes"/>
      <point x="123" y="49" type="line"/>
      <point x="139" y="20" type="line"/>
      <point x="161" y="61"/>
      <point x="185" y="107"/>
      <point x="208" y="142" type="curve" smooth="yes"/>
      <point x="330" y="327" type="line"/>
      <point x="417" y="437" type="line"/>
      <point x="410" y="494" type="line"/>
      <point x="172" y="494" type="line" smooth="yes"/>
      <point x="150" y="494"/>
      <point x="109" y="496"/>
      <point x="77" y="497" type="curve"/>
      <point x="59" y="478" type="line"/>
      <point x="54" y="342" type="line"/>
      <point x="110" y="338" type="line"/>
      <point x="114" y="375" type="line" smooth="yes"/>
      <point x="115" y="389"/>
      <point x="138" y="439"/>
      <point x="152" y="471" type="curve"/>
      <point x="106" y="436" type="line"/>
      <point x="135" y="440"/>
      <point x="175" y="445"/>
      <point x="191" y="445" type="curve" smooth="yes"/>
      <point x="351" y="445" type="line"/>
      <point x="334" y="474" type="line"/>
      <point x="312" y="433"/>
      <point x="279" y="372"/>
      <point x="266" y="352" type="curve" smooth="yes"/>
      <point x="142" y="168" type="line" smooth="yes"/>
      <point x="131" y="152"/>
      <point x="81" y="95"/>
      <point x="46" y="57" type="curve"/>
      <point x="52" y="0" type="line"/>
      <point x="290" y="0" type="line" smooth="yes"/>
      <point x="310" y="0"/>
      <point x="405" y="-3"/>
    </contour>
  </outline>
</glyph>
<glyph name="braceleft" format="2">
  <advance width="409.7"/>
  <unicode hex="007B"/>
  <outline>
    <contour>
      <point x="317" y="-106" type="line"/>
      <point x="320" y="-65" type="line"/>
      <point x="177" y="-48" type="line"/>
      <point x="221" y="-68" type="line"/>
      <point x="222" y="-23"/>
      <point x="224" y="41"/>
      <point x="227" y="66" type="curve" smooth="yes"/>
      <point x="238" y="162"/>
      <point x="251" y="237"/>
      <point x="265" y="326" type="curve"/>
      <point x="137" y="365" type="line"/>
      <point x="150" y="344" type="line"/>
      <point x="150" y="378" type="line"/>
      <point x="130" y="357" type="line"/>
      <point x="265" y="398" type="line"/>
      <point x="252" y="486"/>
      <point x="238" y="566"/>
      <point x="230" y="656" type="curve" smooth="yes"/>
      <point x="228" y="679"/>
      <point x="226" y="759"/>
      <point x="224" y="812" type="curve"/>
      <point x="177" y="773" type="line"/>
      <point x="320" y="791" type="line"/>
      <point x="317" y="830" type="line"/>
      <point x="144" y="826" type="line"/>
      <point x="125" y="807" type="line"/>
      <point x="157" y="670"/>
      <point x="180" y="534"/>
      <point x="193" y="396" type="curve"/>
      <point x="209" y="439" type="line"/>
      <point x="97" y="391" type="line"/>
      <point x="93" y="334" type="line"/>
      <point x="211" y="286" type="line"/>
      <point x="193" y="329" type="line"/>
      <point x="181" y="191"/>
      <point x="158" y="53"/>
      <point x="125" y="-83" type="curve"/>
      <point x="144" y="-102" type="line"/>
    </contour>
  </outline>
</glyph>
<glyph name="asciitilde" format="2">
  <advance width="682.6"/>
  <unicode hex="007E"/>
  <outline>
    <contour>
      <point x="465" y="177" type="curve" smooth="yes"/>
      <point x="516" y="177"/>
      <point x="576" y="283"/>
      <point x="573" y="279" type="curve"/>
      <point x="535" y="311" type="line"/>
      <point x="536" y="313"/>
      <point x="493" y="256"/>
      <point x="462" y="256" type="curve" smooth="yes"/>
      <point x="408" y="256"/>
      <point x="287" y="316"/>
      <point x="217" y="316" type="curve" smooth="yes"/>
      <point x="166" y="316"/>
      <point x="107" y="209"/>
      <point x="109" y="213" type="curve"/>
      <point x="148" y="181" type="line"/>
      <point x="147" y="179"/>
      <point x="190" y="237"/>
      <point x="220" y="237" type="curve" smooth="yes"/>
      <point x="274" y="237"/>
      <point x="405" y="177"/>
    </contour>
  </outline>
</glyph>
<glyph name="cent" format="2">
  <advance width="555.5"/>
  <unicode hex="00A2"/>
  <outline>
    <contour>
      <point x="310" y="70" type="curve" smooth="yes"/>
      <point x="368" y="70"/>
      <point x="427" y="87"/>
      <point x="478" y="123" type="curve"/>
      <point x="451" y="169" type="line"/>
      <point x="409" y="147"/>
      <point x="359" y="133"/>
      <point x="309" y="133" type="curve" smooth="yes"/>
      <point x="207" y="133"/>
      <point x="171" y="227"/>
      <point x="171" y="326" type="curve" smooth="yes"/>
      <point x="171" y="424"/>
      <point x="209" y="528"/>
      <point x="311" y="528" type="curve" smooth="yes"/>
      <point x="346" y="528"/>
      <point x="381" y="512"/>
      <point x="417" y="493" type="curve"/>
      <point x="386" y="525" type="line"/>
      <point x="389" y="515"/>
      <point x="401" y="474"/>
      <point x="401" y="464" type="curve" smooth="yes"/>
      <point x="401" y="429" type="line"/>
      <point x="457" y="426" type="line"/>
      <point x="467" y="547" type="line"/>
      <point x="416" y="566"/>
      <point x="364" y="583"/>
      <point x="312" y="583" type="curve" smooth="yes"/>
      <point x="158" y="583"/>
      <point x="83" y="479"/>
      <point x="83" y="326" type="curve" smooth="yes"/>
      <point x="83" y="174"/>
      <point x="158" y="70"/>
    </contour>
    <contour>
      <point x="312" y="-66" type="line"/>
      <point x="319" y="102" type="line"/>
      <point x="276" y="102" type="line"/>
      <point x="269" y="-63" type="line"/>
    </contour>
    <contour>
      <point x="293" y="553" type="line"/>
      <point x="336" y="553" type="line"/>
      <point x="342" y="716" type="line"/>
      <point x="300" y="719" type="line"/>
    </contour>
  </outline>
</glyph>
<glyph name="sterling" format="2">
  <advance width="673.5"/>
  <unicode hex="00A3"/>
  <outline>
    <contour>
      <point x="99" y="-5" type="line"/>
      <point x="136" y="-3"/>
      <point x="182" y="0"/>
      <point x="213" y="0" type="curve" smooth="yes"/>
      <point x="548" y="0" type="line"/>
      <point x="567" y="18" type="line"/>
      <point x="582" y="163" type="line"/>
      <point x="529" y="168" type="line"/>
      <point x="513" y="100" type="line" smooth="yes"/>
      <point x="510" y="85"/>
      <point x="490" y="56"/>
      <point x="475" y="34" type="curve"/>
      <point x="525" y="67" type="line"/>
      <point x="485" y="62"/>
      <point x="419" y="54"/>
      <point x="404" y="54" type="curve" smooth="yes"/>
      <point x="242" y="54" type="line"/>
      <point x="278" y="30" type="line"/>
      <point x="272" y="78"/>
      <point x="268" y="122"/>
      <point x="268" y="164" type="curve" smooth="yes"/>
      <point x="268" y="511" type="line" smooth="yes"/>
      <point x="268" y="574"/>
      <point x="309" y="610"/>
      <point x="380" y="610" type="curve" smooth="yes"/>
      <point x="445" y="610"/>
      <point x="506" y="585"/>
      <point x="517" y="580" type="curve"/>
      <point x="476" y="621" type="line"/>
      <point x="485" y="590"/>
      <point x="496" y="546"/>
      <point x="496" y="530" type="curve" smooth="yes"/>
      <point x="496" y="490" type="line"/>
      <point x="553" y="484" type="line"/>
      <point x="568" y="630" type="line"/>
      <point x="508" y="646"/>
      <point x="441" y="662"/>
      <point x="381" y="662" type="curve" smooth="yes"/>
      <point x="268" y="662"/>
      <point x="183" y="604"/>
      <point x="183" y="498" type="curve" smooth="yes"/>
      <point x="183" y="134" type="line" smooth="yes"/>
      <point x="183" y="114"/>
      <point x="174" y="61"/>
      <point x="171" y="40" type="curve"/>
      <point x="207" y="66" type="line"/>
      <point x="94" y="43" type="line"/>
    </contour>
    <contour>
      <point x="77" y="277" type="line"/>
      <point x="487" y="296" type="line"/>
      <point x="485" y="335" type="line"/>
      <point x="75" y="317" type="line"/>
    </contour>
  </outline>
</glyph>
<glyph name="currency" format="2">
  <advance width="704.1"/>
  <unicode hex="00A4"/>
  <outline>
    <contour>
      <point x="360" y="70" type="curve" smooth="yes"/>
      <point x="511" y="70"/>
      <point x="588" y="169"/>
      <point x="588" y="313" type="curve" smooth="yes"/>
      <point x="588" y="461"/>
      <point x="513" y="558"/>
      <point x="360" y="558" type="curve" smooth="yes"/>
      <point x="208" y="558"/>
      <point x="131" y="459"/>
      <point x="131" y="313" type="curve" smooth="yes"/>
      <point x="131" y="169"/>
      <point x="208" y="70"/>
    </contour>
    <contour>
      <point x="113" y="26" type="line"/>
      <point x="217" y="140" type="line"/>
      <point x="181" y="166" type="line"/>
      <point x="81" y="57" type="line"/>
    </contour>
    <contour>
      <point x="575" y="26" type="line"/>
      <point x="607" y="57" type="line"/>
      <point x="507" y="166" type="line"/>
      <point x="471" y="140" type="line"/>
    </contour>
    <contour>
      <point x="360" y="126" type="curve" smooth="yes"/>
      <point x="255" y="126"/>
      <point x="222" y="215"/>
      <point x="222" y="313" type="curve" smooth="yes"/>
      <point x="222" y="411"/>
      <point x="255" y="502"/>
      <point x="360" y="502" type="curve" smooth="yes"/>
      <point x="464" y="502"/>
      <point x="497" y="411"/>
      <point x="497" y="313" type="curve" smooth="yes"/>
      <point x="497" y="215"/>
      <point x="464" y="126"/>
    </contour>
    <contour>
      <point x="178" y="463" type="line"/>
      <point x="211" y="491" type="line"/>
      <point x="113" y="600" type="line"/>
      <point x="81" y="569" type="line"/>
    </contour>
    <contour>
      <point x="510" y="463" type="line"/>
      <point x="607" y="569" type="line"/>
      <point x="575" y="600" type="line"/>
      <point x="477" y="491" type="line"/>
    </contour>
  </outline>
</glyph>
<glyph name="brokenbar" format="2">
  <advance width="336.6"/>
  <unicode hex="00A6"/>
  <outline>
    <contour>
      <point x="199" y="392" type="line"/>
      <point x="199" y="752" type="line"/>
      <point x="137" y="760" type="line"/>
      <point x="137" y="400" type="line"/>
    </contour>
    <contour>
      <point x="199" y="-122" type="line"/>
      <point x="199" y="205" type="line"/>
      <point x="137" y="212" type="line"/>
      <point x="137" y="-113" type="line"/>
    </contour>
  </outline>
</glyph>
<glyph name="registered" format="2">
  <advance width="934.4"/>
  <unicode hex="00AE"/>
  <outline>
    <contour>
      <point x="467" y="-15" type="curve" smooth="yes"/>
      <point x="669" y="-15"/>
      <point x="833" y="152"/>
      <point x="833" y="350" type="curve" smooth="yes"/>
      <point x="833" y="554"/>
      <point x="670" y="715"/>
      <point x="467" y="715" type="curve" smooth="yes"/>
      <point x="267" y="715"/>
      <point x="102" y="552"/>
      <point x="102" y="350" type="curve" smooth="yes"/>
      <point x="102" y="144"/>
      <point x="269" y="-15"/>
    </contour>
    <contour>
      <point x="302" y="136" type="line"/>
      <point x="332" y="137"/>
      <point x="375" y="139"/>
      <point x="387" y="139" type="curve"/>
      <point x="465" y="139" type="line"/>
      <point x="469" y="176" type="line"/>
      <point x="396" y="183" type="line"/>
      <point x="429" y="154" type="line"/>
      <point x="426" y="169"/>
      <point x="420" y="212"/>
      <point x="420" y="245" type="curve" smooth="yes"/>
      <point x="420" y="449" type="line" smooth="yes"/>
      <point x="420" y="483"/>
      <point x="425" y="517"/>
      <point x="427" y="535" type="curve"/>
      <point x="373" y="556" type="line"/>
      <point x="362" y="556"/>
      <point x="327" y="558"/>
      <point x="303" y="559" type="curve"/>
      <point x="300" y="520" type="line"/>
      <point x="372" y="508" type="line"/>
      <point x="339" y="536" type="line"/>
      <point x="342" y="518"/>
      <point x="347" y="481"/>
      <point x="347" y="466" type="curve" smooth="yes"/>
      <point x="347" y="228" type="line" smooth="yes"/>
      <point x="347" y="213"/>
      <point x="341" y="173"/>
      <point x="339" y="154" type="curve"/>
      <point x="372" y="186" type="line"/>
      <point x="299" y="172" type="line"/>
    </contour>
    <contour>
      <point x="553" y="139" type="curve"/>
      <point x="595" y="139"/>
      <point x="637" y="139"/>
      <point x="657" y="139" type="curve"/>
      <point x="661" y="176" type="line"/>
      <point x="624" y="179" type="line"/>
      <point x="616" y="192"/>
      <point x="604" y="209"/>
      <point x="599" y="216" type="curve"/>
      <point x="596" y="221"/>
      <point x="558" y="280"/>
      <point x="526" y="345" type="curve"/>
      <point x="450" y="343" type="line"/>
      <point x="522" y="207" type="line"/>
      <point x="528" y="197"/>
      <point x="543" y="162"/>
    </contour>
    <contour>
      <point x="468" y="27" type="curve" smooth="yes"/>
      <point x="290" y="27"/>
      <point x="144" y="173"/>
      <point x="144" y="350" type="curve" smooth="yes"/>
      <point x="144" y="531"/>
      <point x="290" y="674"/>
      <point x="468" y="674" type="curve" smooth="yes"/>
      <point x="646" y="674"/>
      <point x="791" y="526"/>
      <point x="791" y="350" type="curve" smooth="yes"/>
      <point x="791" y="173"/>
      <point x="647" y="27"/>
    </contour>
    <contour>
      <point x="461" y="310" type="curve" smooth="yes"/>
      <point x="543" y="310"/>
      <point x="616" y="358"/>
      <point x="616" y="438" type="curve" smooth="yes"/>
      <point x="616" y="514"/>
      <point x="563" y="559"/>
      <point x="480" y="559" type="curve" smooth="yes"/>
      <point x="447" y="559"/>
      <point x="406" y="556"/>
      <point x="373" y="556" type="curve"/>
      <point x="373" y="513" type="line" smooth="yes"/>
      <point x="369" y="497"/>
      <point x="436" y="519"/>
      <point x="452" y="519" type="curve" smooth="yes"/>
      <point x="510" y="519"/>
      <point x="540" y="489"/>
      <point x="540" y="435" type="curve" smooth="yes"/>
      <point x="540" y="378"/>
      <point x="506" y="350"/>
      <point x="449" y="350" type="curve" smooth="yes"/>
      <point x="432" y="350"/>
      <point x="391" y="352"/>
      <point x="365" y="354" type="curve"/>
      <point x="365" y="315" type="line"/>
      <point x="392" y="313"/>
      <point x="436" y="310"/>
    </contour>
  </outline>
</glyph>
<glyph name="threesuperior" format="2">
  <advance width="341.3"/>
  <unicode hex="00B3"/>
  <outline>
    <contour>
      <point x="50" y="266" type="line"/>
      <point x="197" y="280"/>
      <point x="294" y="352"/>
      <point x="294" y="434" type="curve" smooth="yes"/>
      <point x="294" y="487"/>
      <point x="248" y="531"/>
      <point x="183" y="535" type="curve"/>
      <point x="182" y="522" type="line"/>
      <point x="243" y="542"/>
      <point x="277" y="582"/>
      <point x="277" y="629" type="curve" smooth="yes"/>
      <point x="277" y="696"/>
      <point x="231" y="731"/>
      <point x="146" y="731" type="curve" smooth="yes"/>
      <point x="111" y="731"/>
      <point x="78" y="726"/>
      <point x="42" y="714" type="curve"/>
      <point x="50" y="618" type="line"/>
      <point x="92" y="621" type="line"/>
      <point x="91" y="650" type="line" smooth="yes"/>
      <point x="91" y="662"/>
      <point x="99" y="686"/>
      <point x="104" y="707" type="curve"/>
      <point x="80" y="669" type="line"/>
      <point x="98" y="680"/>
      <point x="117" y="687"/>
      <point x="143" y="687" type="curve" smooth="yes"/>
      <point x="181" y="687"/>
      <point x="201" y="666"/>
      <point x="201" y="627" type="curve" smooth="yes"/>
      <point x="201" y="576"/>
      <point x="165" y="544"/>
      <point x="91" y="535" type="curve"/>
      <point x="100" y="497" type="line"/>
      <point x="109" y="498"/>
      <point x="126" y="499"/>
      <point x="140" y="499" type="curve" smooth="yes"/>
      <point x="186" y="499"/>
      <point x="214" y="473"/>
      <point x="214" y="429" type="curve" smooth="yes"/>
      <point x="214" y="370"/>
      <point x="144" y="321"/>
      <point x="37" y="306" type="curve"/>
    </contour>
  </outline>
</glyph>
<glyph name="paragraph" format="2">
  <advance width="670.6"/>
  <unicode hex="00B6"/>
  <outline>
    <contour>
      <point x="332" y="-95" type="line"/>
      <point x="379" y="-93"/>
      <point x="448" y="-90"/>
      <point x="466" y="-90" type="curve"/>
      <point x="491" y="-90" type="line"/>
      <point x="509" y="-72" type="line"/>
      <point x="507" y="-47"/>
      <point x="502" y="24"/>
      <point x="502" y="75" type="curve" smooth="yes"/>
      <point x="502" y="540" type="line" smooth="yes"/>
      <point x="502" y="592"/>
      <point x="509" y="655"/>
      <point x="512" y="678" type="curve"/>
      <point x="475" y="643" type="line"/>
      <point x="588" y="653" type="line"/>
      <point x="584" y="710" type="line"/>
      <point x="551" y="708"/>
      <point x="491" y="705"/>
      <point x="449" y="705" type="curve"/>
      <point x="433" y="705" type="line"/>
      <point x="415" y="687" type="line"/>
      <point x="415" y="657"/>
      <point x="416" y="591"/>
      <point x="416" y="570" type="curve" smooth="yes"/>
      <point x="416" y="45" type="line" smooth="yes"/>
      <point x="416" y="24"/>
      <point x="407" y="-33"/>
      <point x="401" y="-62" type="curve"/>
      <point x="441" y="-24" type="line"/>
      <point x="327" y="-47" type="line"/>
    </contour>
    <contour>
      <point x="338" y="293" type="curve" smooth="yes"/>
      <point x="367" y="293" type="line"/>
      <point x="367" y="662" type="line"/>
      <point x="400" y="662"/>
      <point x="441" y="659"/>
      <point x="483" y="655" type="curve"/>
      <point x="483" y="705" type="line"/>
      <point x="428" y="705"/>
      <point x="371" y="710"/>
      <point x="316" y="710" type="curve" smooth="yes"/>
      <point x="178" y="710"/>
      <point x="94" y="640"/>
      <point x="94" y="502" type="curve" smooth="yes"/>
      <point x="94" y="368"/>
      <point x="204" y="293"/>
    </contour>
  </outline>
</glyph>
<glyph name="Oslash" format="2">
  <advance width="795.2"/>
  <unicode hex="00D8"/>
  <anchor x="398" y="0" name="bottom"/>
  <anchor x="407" y="353" name="center"/>
  <anchor x="507" y="0" name="ogonek"/>
  <anchor x="398" y="705" name="top"/>
  <anchor x="577" y="630" name="topright"/>
  <outline>
    <contour>
      <point x="163" y="-136" type="line"/>
      <point x="665" y="816" type="line"/>
      <point x="625" y="838" type="line"/>
      <point x="124" y="-114" type="line"/>
    </contour>
    <contour>
      <point x="398" y="-15" type="curve" smooth="yes"/>
      <point x="615" y="-15"/>
      <point x="723" y="135"/>
      <point x="723" y="352" type="curve" smooth="yes"/>
      <point x="723" y="570"/>
      <point x="615" y="720"/>
      <point x="398" y="720" type="curve" smooth="yes"/>
      <point x="181" y="720"/>
      <point x="72" y="570"/>
      <point x="72" y="352" type="curve" smooth="yes"/>
      <point x="72" y="135"/>
      <point x="181" y="-15"/>
    </contour>
    <contour>
      <point x="398" y="35" type="curve" smooth="yes"/>
      <point x="246" y="35"/>
      <point x="173" y="179"/>
      <point x="173" y="352" type="curve" smooth="yes"/>
      <point x="173" y="526"/>
      <point x="246" y="670"/>
      <point x="398" y="670" type="curve" smooth="yes"/>
      <point x="549" y="670"/>
      <point x="622" y="526"/>
      <point x="622" y="352" type="curve" smooth="yes"/>
      <point x="622" y="179"/>
      <point x="549" y="35"/>
    </contour>
  </outline>
</glyph>
<glyph name="Thorn" format="2">
  <advance width="612.3"/>
  <unicode hex="00DE"/>
  <anchor x="306" y="0" name="bottom"/>
  <anchor x="306" y="705" name="top"/>
  <outline>
    <contour>
      <point x="61" y="-4" type="line"/>
      <point x="56" y="-4"/>
      <point x="173" y="1"/>
      <point x="195" y="1" type="curve"/>
      <point x="323" y="1" type="line"/>
      <point x="330" y="54" type="line"/>
      <point x="204" y="64" type="line"/>
      <point x="243" y="29" type="line"/>
      <point x="238" y="55"/>
      <point x="231" y="115"/>
      <point x="231" y="165" type="curve" smooth="yes"/>
      <point x="231" y="541" type="line" smooth="yes"/>
      <point x="231" y="593"/>
      <point x="239" y="662"/>
      <point x="242" y="679" type="curve"/>
      <point x="204" y="644" type="line"/>
      <point x="317" y="654" type="line"/>
      <point x="313" y="711" type="line"/>
      <point x="274" y="708"/>
      <point x="238" y="705"/>
      <point x="178" y="705" type="curve" smooth="yes"/>
      <point x="159" y="705"/>
      <point x="100" y="708"/>
      <point x="63" y="710" type="curve"/>
      <point x="58" y="658" type="line"/>
      <point x="172" y="641" type="line"/>
      <point x="131" y="679" type="line"/>
      <point x="135" y="660"/>
      <point x="145" y="593"/>
      <point x="145" y="571" type="curve" smooth="yes"/>
      <point x="145" y="136" type="line" smooth="yes"/>
      <point x="145" y="115"/>
      <point x="134" y="46"/>
      <point x="131" y="29" type="curve"/>
      <point x="170" y="68" type="line"/>
      <point x="56" y="45" type="line"/>
    </contour>
    <contour>
      <point x="169" y="168" type="line"/>
      <point x="197" y="168"/>
      <point x="281" y="167"/>
      <point x="309" y="167" type="curve" smooth="yes"/>
      <point x="443" y="167"/>
      <point x="555" y="238"/>
      <point x="555" y="361" type="curve" smooth="yes"/>
      <point x="555" y="491"/>
      <point x="471" y="558"/>
      <point x="333" y="558" type="curve" smooth="yes"/>
      <point x="302" y="558"/>
      <point x="211" y="555"/>
      <point x="169" y="552" type="curve"/>
      <point x="169" y="504" type="line"/>
      <point x="195" y="507"/>
      <point x="271" y="510"/>
      <point x="291" y="510" type="curve" smooth="yes"/>
      <point x="396" y="510"/>
      <point x="466" y="459"/>
      <point x="466" y="361" type="curve" smooth="yes"/>
      <point x="466" y="265"/>
      <point x="396" y="216"/>
      <point x="292" y="216" type="curve" smooth="yes"/>
      <point x="263" y="216"/>
      <point x="200" y="217"/>
      <point x="169" y="219" type="curve"/>
    </contour>
  </outline>
</glyph>
<glyph name="germandbls" format="2">
  <advance width="639.7"/>
  <unicode hex="00DF"/>
  <outline>
    <contour>
      <point x="445" y="-10" type="curve" smooth="yes"/>
      <point x="547" y="-10"/>
      <point x="606" y="28"/>
      <point x="606" y="130" type="curve" smooth="yes"/>
      <point x="606" y="274"/>
      <point x="373" y="289"/>
      <point x="373" y="377" type="curve" smooth="yes"/>
      <point x="373" y="469"/>
      <point x="524" y="464"/>
      <point x="524" y="609" type="curve" smooth="yes"/>
      <point x="524" y="715"/>
      <point x="427" y="770"/>
      <point x="323" y="770" type="curve" smooth="yes"/>
      <point x="199" y="770"/>
      <point x="124" y="700"/>
      <point x="124" y="577" type="curve" smooth="yes"/>
      <point x="124" y="134" type="line" smooth="yes"/>
      <point x="124" y="120"/>
      <point x="117" y="62"/>
      <point x="111" y="26" type="curve"/>
      <point x="148" y="66" type="line"/>
      <point x="34" y="43" type="line"/>
      <point x="39" y="-5" type="line"/>
      <point x="77" y="-3"/>
      <point x="139" y="0"/>
      <point x="155" y="0" type="curve"/>
      <point x="205" y="0" type="line"/>
      <point x="202" y="54"/>
      <point x="199" y="114"/>
      <point x="199" y="164" type="curve" smooth="yes"/>
      <point x="199" y="546" type="line" smooth="yes"/>
      <point x="199" y="650"/>
      <point x="215" y="714"/>
      <point x="323" y="714" type="curve" smooth="yes"/>
      <point x="399" y="714"/>
      <point x="458" y="675"/>
      <point x="458" y="609" type="curve" smooth="yes"/>
      <point x="458" y="494"/>
      <point x="296" y="507"/>
      <point x="296" y="372" type="curve" smooth="yes"/>
      <point x="296" y="218"/>
      <point x="526" y="223"/>
      <point x="526" y="118" type="curve" smooth="yes"/>
      <point x="526" y="65"/>
      <point x="494" y="38"/>
      <point x="444" y="38" type="curve" smooth="yes"/>
      <point x="408" y="38"/>
      <point x="383" y="47"/>
      <point x="338" y="73" type="curve"/>
      <point x="379" y="25" type="line"/>
      <point x="371" y="58"/>
      <point x="358" y="109"/>
      <point x="358" y="124" type="curve" smooth="yes"/>
      <point x="358" y="161" type="line"/>
      <point x="302" y="164" type="line"/>
      <point x="291" y="31" type="line"/>
      <point x="318" y="13"/>
      <point x="379" y="-10"/>
    </contour>
    <contour>
      <point x="44" y="442" type="line"/>
      <point x="140" y="442" type="line"/>
      <point x="139" y="496" type="line"/>
      <point x="41" y="484" type="line"/>
    </contour>
  </outline>
</glyph>
<glyph name="eth" format="2">
  <advance width="556.9"/>
  <unicode hex="00F0"/>
  <outline>
    <contour>
      <point x="273" y="-10" type="curve" smooth="yes"/>
      <point x="424" y="-10"/>
      <point x="501" y="97"/>
      <point x="501" y="252" type="curve" smooth="yes"/>
      <point x="501" y="479"/>
      <point x="388" y="688"/>
      <point x="189" y="765" type="curve"/>
      <point x="171" y="725" type="line"/>
      <point x="349" y="634"/>
      <point x="414" y="468"/>
      <point x="414" y="248" type="curve" smooth="yes"/>
      <point x="414" y="142"/>
      <point x="378" y="44"/>
      <point x="273" y="44" type="curve" smooth="yes"/>
      <point x="172" y="44"/>
      <point x="134" y="136"/>
      <point x="134" y="236" type="curve" smooth="yes"/>
      <point x="134" y="336"/>
      <point x="175" y="429"/>
      <point x="269" y="429" type="curve" smooth="yes"/>
      <point x="285" y="429"/>
      <point x="310" y="427"/>
      <point x="324" y="425" type="curve"/>
      <point x="331" y="468" type="line"/>
      <point x="313" y="474"/>
      <point x="290" y="483"/>
      <point x="262" y="483" type="curve" smooth="yes"/>
      <point x="132" y="483"/>
      <point x="45" y="379"/>
      <point x="45" y="235" type="curve" smooth="yes"/>
      <point x="45" y="93"/>
      <point x="130" y="-10"/>
    </contour>
    <contour>
      <point x="184" y="544" type="line"/>
      <point x="318" y="614" type="line"/>
      <point x="291" y="651" type="line"/>
      <point x="162" y="584" type="line"/>
    </contour>
    <contour>
      <point x="354" y="631" type="line"/>
      <point x="471" y="691" type="line"/>
      <point x="449" y="733" type="line"/>
      <point x="324" y="668" type="line"/>
    </contour>
  </outline>
</glyph>
<glyph name="oslash" format="2">
  <advance width="550.4"/>
  <unicode hex="00F8"/>
  <anchor x="281" y="494" name="top"/>
  <anchor x="276" y="0" name="bottom"/>
  <anchor x="261" y="247" name="center"/>
  <anchor x="352" y="0" name="ogonek"/>
  <anchor x="381" y="450" name="topright"/>
  <outline>
    <contour>
      <point x="111" y="-102" type="line"/>
      <point x="469" y="576" type="line"/>
      <point x="431" y="595" type="line"/>
      <point x="74" y="-83" type="line"/>
    </contour>
    <component base="o"/>
  </outline>
</glyph>
<glyph name="thorn" format="2">
  <advance width="540.2"/>
  <unicode hex="00FE"/>
  <anchor x="256" y="0" name="bottom"/>
  <anchor x="256" y="494" name="top"/>
  <outline>
    <contour>
      <point x="9" y="-233" type="line"/>
      <point x="46" y="-231"/>
      <point x="87" y="-228"/>
      <point x="108" y="-228" type="curve"/>
      <point x="257" y="-228" type="line"/>
      <point x="263" y="-175" type="line"/>
      <point x="129" y="-165" type="line"/>
      <point x="166" y="-203" type="line"/>
      <point x="162" y="-179"/>
      <point x="157" y="-116"/>
      <point x="157" y="-64" type="curve" smooth="yes"/>
      <point x="157" y="286" type="line" smooth="yes"/>
      <point x="157" y="382"/>
      <point x="207" y="447"/>
      <point x="284" y="447" type="curve" smooth="yes"/>
      <point x="367" y="447"/>
      <point x="411" y="382"/>
      <point x="411" y="255" type="curve" smooth="yes"/>
      <point x="411" y="121"/>
      <point x="357" y="47"/>
      <point x="261" y="47" type="curve" smooth="yes"/>
      <point x="223" y="47"/>
      <point x="182" y="63"/>
      <point x="142" y="96" type="curve"/>
      <point x="141" y="25" type="line"/>
      <point x="182" y="3"/>
      <point x="226" y="-10"/>
      <point x="266" y="-10" type="curve" smooth="yes"/>
      <point x="396" y="-10"/>
      <point x="494" y="104"/>
      <point x="494" y="256" type="curve" smooth="yes"/>
      <point x="494" y="413"/>
      <point x="418" y="503"/>
      <point x="288" y="503" type="curve" smooth="yes"/>
      <point x="229" y="503"/>
      <point x="150" y="448"/>
      <point x="145" y="395" type="curve"/>
      <point x="157" y="379" type="line"/>
      <point x="157" y="597" type="line" smooth="yes"/>
      <point x="157" y="637"/>
      <point x="160" y="691"/>
      <point x="163" y="738" type="curve"/>
      <point x="144" y="756" type="line"/>
      <point x="89" y="756" type="line"/>
      <point x="0" y="759" type="line"/>
      <point x="-5" y="709" type="line"/>
      <point x="105" y="685" type="line"/>
      <point x="65" y="731" type="line"/>
      <point x="69" y="710"/>
      <point x="81" y="643"/>
      <point x="81" y="618" type="curve" smooth="yes"/>
      <point x="81" y="-94" type="line" smooth="yes"/>
      <point x="81" y="-119"/>
      <point x="68" y="-184"/>
      <point x="65" y="-199" type="curve"/>
      <point x="105" y="-161" type="line"/>
      <point x="4" y="-184" type="line"/>
    </contour>
  </outline>
</glyph>
<glyph name="aogonek" format="2">
  <advance width="518"/>
  <unicode hex="0105"/>
  <outline>
    <contour>
      <point x="189" y="-10" type="curve" smooth="yes"/>
      <point x="254" y="-10"/>
      <point x="324" y="29"/>
      <point x="350" y="80" type="curve"/>
      <point x="363" y="0" type="line"/>
      <point x="437" y="0"/>
      <point x="489" y="0"/>
      <point x="489" y="0" type="curve"/>
      <point x="495" y="52" type="line"/>
      <point x="425" y="59" type="line"/>
      <point x="425" y="59"/>
      <point x="415" y="114"/>
      <point x="415" y="164" type="curve" smooth="yes"/>
      <point x="415" y="288" type="line" smooth="yes"/>
      <point x="415" y="445"/>
      <point x="372" y="503"/>
      <point x="254" y="503" type="curve" smooth="yes"/>
      <point x="193" y="503"/>
      <point x="134" y="495"/>
      <point x="74" y="479" type="curve"/>
      <point x="84" y="347" type="line"/>
      <point x="140" y="350" type="line"/>
      <point x="141" y="390" type="line"/>
      <point x="148" y="433" type="line"/>
      <point x="173" y="445"/>
      <point x="210" y="453"/>
      <point x="244" y="453" type="curve" smooth="yes"/>
      <point x="308" y="453"/>
      <point x="340" y="406"/>
      <point x="340" y="310" type="curve" smooth="yes"/>
      <point x="340" y="277" type="line"/>
      <point x="178" y="249" type="line" smooth="yes"/>
      <point x="88" y="234"/>
      <point x="44" y="188"/>
      <point x="44" y="117" type="curve" smooth="yes"/>
      <point x="44" y="40"/>
      <point x="100" y="-10"/>
    </contour>
    <contour>
      <point x="201" y="50" type="curve" smooth="yes"/>
      <point x="153" y="50"/>
      <point x="126" y="80"/>
      <point x="126" y="131" type="curve" smooth="yes"/>
      <point x="126" y="166"/>
      <point x="150" y="191"/>
      <point x="190" y="198" type="curve" smooth="yes"/>
      <point x="340" y="227" type="line"/>
      <point x="340" y="168" type="line"/>
      <point x="330" y="101"/>
      <point x="271" y="50"/>
    </contour>
    <component base="ogonekcomb" xOffset="228"/>
  </outline>
</glyph>
<glyph name="idotless" format="2">
  <advance width="305.5"/>
  <unicode hex="0131"/>
  <anchor x="146" y="0" name="bottom"/>
  <anchor x="173" y="0" name="ogonek"/>
  <anchor x="133" y="494" name="top"/>
  <outline>
    <contour>
      <point x="40" y="-5" type="line"/>
      <point x="77" y="-3"/>
      <point x="129" y="0"/>
      <point x="150" y="0" type="curve"/>
      <point x="277" y="0" type="line"/>
      <point x="284" y="52" type="line"/>
      <point x="171" y="62" type="line"/>
      <point x="208" y="25" type="line"/>
      <point x="204" y="49"/>
      <point x="199" y="112"/>
      <point x="199" y="164" type="curve" smooth="yes"/>
      <point x="199" y="326" type="line" smooth="yes"/>
      <point x="199" y="373"/>
      <point x="202" y="446"/>
      <point x="205" y="476" type="curve"/>
      <point x="186" y="494" type="line"/>
      <point x="42" y="494" type="line"/>
      <point x="37" y="442" type="line"/>
      <point x="147" y="423" type="line"/>
      <point x="108" y="469" type="line"/>
      <point x="113" y="439"/>
      <point x="123" y="381"/>
      <point x="123" y="356" type="curve" smooth="yes"/>
      <point x="123" y="134" type="line" smooth="yes"/>
      <point x="123" y="109"/>
      <point x="110" y="44"/>
      <point x="107" y="29" type="curve"/>
      <point x="147" y="66" type="line"/>
      <point x="35" y="43" type="line"/>
    </contour>
  </outline>
</glyph>
<glyph name="oe" format="2">
  <advance width="852.4"/>
  <unicode hex="0153"/>
  <anchor x="426" y="0" name="bottom"/>
  <anchor x="426" y="494" name="top"/>
  <outline>
    <contour>
      <point x="276" y="-10" type="curve" smooth="yes"/>
      <point x="363" y="-10"/>
      <point x="425" y="24"/>
      <point x="464" y="82" type="curve"/>
      <point x="439" y="81" type="line"/>
      <point x="478" y="25"/>
      <point x="541" y="-10"/>
      <point x="629" y="-10" type="curve" smooth="yes"/>
      <point x="745" y="-10"/>
      <point x="809" y="54"/>
      <point x="804" y="49" type="curve"/>
      <point x="776" y="94" type="line"/>
      <point x="748" y="76"/>
      <point x="688" y="52"/>
      <point x="625" y="52" type="curve" smooth="yes"/>
      <point x="530" y="52"/>
      <point x="487" y="159"/>
      <point x="487" y="250" type="curve" smooth="yes"/>
      <point x="494" y="382"/>
      <point x="529" y="454"/>
      <point x="612" y="454" type="curve" smooth="yes"/>
      <point x="686" y="454"/>
      <point x="721" y="396"/>
      <point x="721" y="325" type="curve" smooth="yes"/>
      <point x="721" y="271" type="line"/>
      <point x="754" y="307" type="line"/>
      <point x="476" y="286" type="line"/>
      <point x="475" y="239" type="line"/>
      <point x="789" y="239" type="line"/>
      <point x="806" y="271" type="line"/>
      <point x="805" y="410"/>
      <point x="756" y="503"/>
      <point x="616" y="503" type="curve" smooth="yes"/>
      <point x="532" y="503"/>
      <point x="474" y="468"/>
      <point x="439" y="414" type="curve"/>
      <point x="463" y="416" type="line"/>
      <point x="425" y="471"/>
      <point x="363" y="503"/>
      <point x="276" y="503" type="curve" smooth="yes"/>
      <point x="124" y="503"/>
      <point x="47" y="397"/>
      <point x="47" y="246" type="curve" smooth="yes"/>
      <point x="47" y="96"/>
      <point x="124" y="-10"/>
    </contour>
    <contour>
      <point x="276" y="44" type="curve" smooth="yes"/>
      <point x="168" y="44"/>
      <point x="133" y="145"/>
      <point x="133" y="246" type="curve" smooth="yes"/>
      <point x="133" y="347"/>
      <point x="168" y="450"/>
      <point x="276" y="450" type="curve" smooth="yes"/>
      <point x="384" y="450"/>
      <point x="417" y="345"/>
      <point x="417" y="246" type="curve" smooth="yes"/>
      <point x="417" y="147"/>
      <point x="384" y="44"/>
    </contour>
  </outline>
</glyph>
<glyph name="florin" format="2">
  <advance width="498.3"/>
  <unicode hex="0192"/>
  <outline>
    <contour>
      <point x="67" y="-194" type="line"/>
      <point x="198" y="-194"/>
      <point x="263" y="-109"/>
      <point x="263" y="-3" type="curve"/>
      <point x="263" y="485" type="line"/>
      <point x="266" y="614"/>
      <point x="250" y="720"/>
      <point x="354" y="720" type="curve" smooth="yes"/>
      <point x="365" y="720"/>
      <point x="386" y="717"/>
      <point x="401" y="715" type="curve"/>
      <point x="353" y="747" type="line"/>
      <point x="364" y="709"/>
      <point x="372" y="674"/>
      <point x="372" y="667" type="curve"/>
      <point x="373" y="632" type="line"/>
      <point x="411" y="629" type="line"/>
      <point x="423" y="763" type="line"/>
      <point x="412" y="766"/>
      <point x="386" y="770"/>
      <point x="364" y="770" type="curve" smooth="yes"/>
      <point x="248" y="770"/>
      <point x="188" y="703"/>
      <point x="188" y="599" type="curve"/>
      <point x="188" y="2" type="line"/>
      <point x="188" y="-90"/>
      <point x="163" y="-144"/>
      <point x="68" y="-144" type="curve"/>
    </contour>
    <contour>
      <point x="109" y="442" type="line"/>
      <point x="202" y="442" type="line"/>
      <point x="201" y="496" type="line"/>
      <point x="106" y="484" type="line"/>
    </contour>
    <contour>
      <point x="250" y="442" type="line"/>
      <point x="401" y="442" type="line"/>
      <point x="406" y="494" type="line"/>
      <point x="250" y="494" type="line"/>
    </contour>
  </outline>
</glyph>
<glyph name="gstroke" format="2">
  <advance width="511.3"/>
  <unicode hex="01E5"/>
  <anchor x="246" y="493" name="top"/>
  <outline>
    <contour>
      <point x="223" y="-235" type="curve" smooth="yes"/>
      <point x="362" y="-235"/>
      <point x="475" y="-149"/>
      <point x="475" y="-44" type="curve" smooth="yes"/>
      <point x="475" y="4"/>
      <point x="459" y="33"/>
      <point x="431" y="42" type="curve" smooth="yes"/>
      <point x="397" y="53"/>
      <point x="318" y="62"/>
      <point x="237" y="72" type="curve" smooth="yes"/>
      <point x="163" y="81"/>
      <point x="145" y="87"/>
      <point x="145" y="107" type="curve" smooth="yes"/>
      <point x="145" y="114"/>
      <point x="156" y="133"/>
      <point x="184" y="162" type="curve"/>
      <point x="151" y="174" type="line"/>
      <point x="93" y="126"/>
      <point x="66" y="98"/>
      <point x="66" y="83" type="curve" smooth="yes"/>
      <point x="66" y="45"/>
      <point x="83" y="21"/>
      <point x="129" y="8" type="curve" smooth="yes"/>
      <point x="168" y="-4"/>
      <point x="187" y="-7"/>
      <point x="223" y="-12" type="curve" smooth="yes"/>
      <point x="353" y="-29" type="line" smooth="yes"/>
      <point x="383" y="-33"/>
      <point x="392" y="-44"/>
      <point x="392" y="-74" type="curve" smooth="yes"/>
      <point x="392" y="-136"/>
      <point x="332" y="-179"/>
      <point x="250" y="-179" type="curve" smooth="yes"/>
      <point x="154" y="-179"/>
      <point x="110" y="-148"/>
      <point x="110" y="-79" type="curve" smooth="yes"/>
      <point x="110" y="-58"/>
      <point x="120" y="-42"/>
      <point x="167" y="15" type="curve"/>
      <point x="128" y="20" type="line"/>
      <point x="70" y="-25"/>
      <point x="26" y="-71"/>
      <point x="26" y="-90" type="curve" smooth="yes"/>
      <point x="26" y="-185"/>
      <point x="94" y="-235"/>
    </contour>
    <contour>
      <point x="-24" y="-119" type="line"/>
      <point x="58" y="-119" type="line"/>
      <point x="80" y="-120" type="line"/>
      <point x="416" y="-120" type="line"/>
      <point x="435" y="-119" type="line"/>
      <point x="519" y="-119" type="line"/>
      <point x="524" y="-77" type="line"/>
      <point x="445" y="-77" type="line"/>
      <point x="424" y="-76" type="line"/>
      <point x="87" y="-76" type="line"/>
      <point x="60" y="-77" type="line"/>
      <point x="-24" y="-77" type="line"/>
    </contour>
    <contour>
      <point x="240" y="140" type="curve" smooth="yes"/>
      <point x="355" y="140"/>
      <point x="431" y="212"/>
      <point x="431" y="321" type="curve" smooth="yes"/>
      <point x="431" y="429"/>
      <point x="356" y="502"/>
      <point x="240" y="502" type="curve" smooth="yes"/>
      <point x="125" y="502"/>
      <point x="49" y="431"/>
      <point x="49" y="322" type="curve" smooth="yes"/>
      <point x="49" y="214"/>
      <point x="124" y="140"/>
    </contour>
    <contour>
      <point x="240" y="190" type="curve" smooth="yes"/>
      <point x="166" y="190"/>
      <point x="129" y="234"/>
      <point x="129" y="322" type="curve" smooth="yes"/>
      <point x="129" y="408"/>
      <point x="167" y="453"/>
      <point x="240" y="453" type="curve" smooth="yes"/>
      <point x="314" y="453"/>
      <point x="350" y="409"/>
      <point x="350" y="321" type="curve" smooth="yes"/>
      <point x="350" y="233"/>
      <point x="314" y="190"/>
    </contour>
    <contour>
      <point x="473" y="442" type="line"/>
      <point x="465" y="506" type="line"/>
      <point x="317" y="474" type="line"/>
      <point x="378" y="444" type="line"/>
    </contour>
  </outline>
</glyph>
<glyph name="schwa" format="2">
  <advance width="506.5"/>
  <unicode hex="0259"/>
  <outline>
    <contour>
      <point x="239" y="-10" type="curve" smooth="yes"/>
      <point x="384" y="-10"/>
      <point x="458" y="96"/>
      <point x="458" y="246" type="curve" smooth="yes"/>
      <point x="458" y="400"/>
      <point x="385" y="503"/>
      <point x="230" y="503" type="curve" smooth="yes"/>
      <point x="152" y="503"/>
      <point x="107" y="481"/>
      <point x="66" y="455" type="curve"/>
      <point x="92" y="409" type="line"/>
      <point x="148" y="436"/>
      <point x="178" y="443"/>
      <point x="233" y="443" type="curve" smooth="yes"/>
      <point x="329" y="443"/>
      <point x="370" y="348"/>
      <point x="370" y="247" type="curve" smooth="yes"/>
      <point x="370" y="144"/>
      <point x="337" y="45"/>
      <point x="239" y="45" type="curve" smooth="yes"/>
      <point x="162" y="45"/>
      <point x="130" y="105"/>
      <point x="130" y="179" type="curve" smooth="yes"/>
      <point x="130" y="232" type="line"/>
      <point x="96" y="199" type="line"/>
      <point x="388" y="202" type="line"/>
      <point x="388" y="250" type="line"/>
      <point x="70" y="266" type="line"/>
      <point x="41" y="247" type="line"/>
      <point x="31" y="109"/>
      <point x="99" y="-10"/>
    </contour>
  </outline>
</glyph>
<glyph name="verticallinemod" format="2">
  <advance width="211.3"/>
  <unicode hex="02C8"/>
  <outline>
    <contour>
      <point x="136" y="392" type="line"/>
      <point x="136" y="752" type="line"/>
      <point x="74" y="760" type="line"/>
      <point x="74" y="400" type="line"/>
    </contour>
  </outline>
</glyph>
<glyph name="verticallinelowmod" format="2">
  <advance width="210.2"/>
  <unicode hex="02CC"/>
  <outline>
    <contour>
      <point x="136" y="-382" type="line"/>
      <point x="136" y="-55" type="line"/>
      <point x="74" y="-48" type="line"/>
      <point x="74" y="-373" type="line"/>
    </contour>
  </outline>
</glyph>
<glyph name="gravecomb" format="2">
  <unicode hex="0300"/>
  <anchor x="147" y="494" name="_top"/>
  <anchor x="105" y="660" name="top"/>
  <outline>
    <contour>
      <point x="196" y="542" type="line"/>
      <point x="234" y="574" type="line"/>
      <point x="77" y="739" type="line"/>
      <point x="22" y="692" type="line"/>
    </contour>
  </outline>
</glyph>
<glyph name="acutecomb" format="2">
  <unicode hex="0301"/>
  <anchor x="103" y="494" name="_top"/>
  <anchor x="122" y="660" name="top"/>
  <outline>
    <contour>
      <point x="65" y="543" type="line"/>
      <point x="239" y="693" type="line"/>
      <point x="184" y="740" type="line"/>
      <point x="27" y="575" type="line"/>
    </contour>
  </outline>
</glyph>
<glyph name="macroncomb" format="2">
  <unicode hex="0304"/>
  <anchor x="222" y="494" name="_top"/>
  <anchor x="222" y="605" name="top"/>
  <outline>
    <contour>
      <point x="72" y="569" type="line"/>
      <point x="367" y="569" type="line"/>
      <point x="372" y="623" type="line"/>
      <point x="72" y="623" type="line"/>
    </contour>
  </outline>
</glyph>
<glyph name="brevecomb" format="2">
  <unicode hex="0306"/>
  <anchor x="178" y="494" name="_top"/>
  <anchor x="178" y="660" name="top"/>
  <outline>
    <contour>
      <point x="43" y="677" type="line"/>
      <point x="60" y="599"/>
      <point x="119" y="560"/>
      <point x="178" y="560" type="curve" smooth="yes"/>
      <point x="236" y="560"/>
      <point x="295" y="599"/>
      <point x="312" y="677" type="curve"/>
      <point x="276" y="689" type="line"/>
      <point x="254" y="645"/>
      <point x="216" y="623"/>
      <point x="178" y="623" type="curve" smooth="yes"/>
      <point x="140" y="623"/>
      <point x="102" y="645"/>
      <point x="80" y="689" type="curve"/>
    </contour>
  </outline>
</glyph>
<glyph name="dblgravecomb" format="2">
  <unicode hex="030F"/>
  <anchor x="264" y="494" name="_top"/>
  <anchor x="200" y="759" name="top"/>
  <outline>
    <contour>
      <point x="211" y="560" type="line"/>
      <point x="242" y="595" type="line"/>
      <point x="83" y="724" type="line"/>
      <point x="40" y="670" type="line"/>
    </contour>
    <contour>
      <point x="339" y="561" type="line"/>
      <point x="374" y="591" type="line"/>
      <point x="241" y="732" type="line"/>
      <point x="191" y="684" type="line"/>
    </contour>
  </outline>
</glyph>
<glyph name="commaaccentcomb" format="2">
  <unicode hex="0326"/>
  <anchor x="105" y="0" name="_bottom"/>
  <anchor x="105" y="-248" name="bottom"/>
  <outline>
    <contour>
      <point x="109" y="-248" type="line"/>
      <point x="129" y="-214"/>
      <point x="155" y="-153"/>
      <point x="155" y="-113" type="curve" smooth="yes"/>
      <point x="155" y="-72"/>
      <point x="136" y="-50"/>
      <point x="104" y="-50" type="curve" smooth="yes"/>
      <point x="81" y="-50"/>
      <point x="56" y="-67"/>
      <point x="56" y="-105" type="curve" smooth="yes"/>
      <point x="56" y="-151"/>
      <point x="93" y="-162"/>
      <point x="109" y="-161" type="curve"/>
      <point x="82" y="-138" type="line"/>
      <point x="95" y="-154"/>
      <point x="79" y="-215"/>
      <point x="73" y="-236" type="curve"/>
    </contour>
  </outline>
</glyph>
<glyph name="macronbelowcomb" format="2">
  <unicode hex="0331"/>
  <anchor x="214" y="0" name="_bottom"/>
  <anchor x="214" y="-105" name="bottom"/>
  <outline>
    <contour>
      <point x="70" y="-105" type="line"/>
      <point x="353" y="-105" type="line"/>
      <point x="357" y="-63" type="line"/>
      <point x="70" y="-63" type="line"/>
    </contour>
  </outline>
</glyph>
<glyph name="Omega" format="2">
  <advance width="928.2"/>
  <unicode hex="03A9"/>
  <outline>
    <contour>
      <point x="121" y="-4" type="line"/>
      <point x="164" y="-2"/>
      <point x="203" y="0"/>
      <point x="246" y="0" type="curve" smooth="yes"/>
      <point x="398" y="0" type="line"/>
      <point x="407" y="88" type="line"/>
      <point x="294" y="140"/>
      <point x="246" y="228"/>
      <point x="246" y="382" type="curve" smooth="yes"/>
      <point x="246" y="533"/>
      <point x="307" y="673"/>
      <point x="464" y="673" type="curve" smooth="yes"/>
      <point x="620" y="673"/>
      <point x="682" y="534"/>
      <point x="682" y="382" type="curve" smooth="yes"/>
      <point x="682" y="222"/>
      <point x="630" y="139"/>
      <point x="520" y="88" type="curve"/>
      <point x="530" y="0" type="line"/>
      <point x="683" y="0" type="line" smooth="yes"/>
      <point x="723" y="0"/>
      <point x="765" y="-2"/>
      <point x="806" y="-4" type="curve"/>
      <point x="815" y="7" type="line"/>
      <point x="830" y="161" type="line"/>
      <point x="778" y="166" type="line"/>
      <point x="766" y="111"/>
      <point x="772" y="103"/>
      <point x="740" y="61" type="curve"/>
      <point x="718" y="57"/>
      <point x="683" y="53"/>
      <point x="653" y="52" type="curve" smooth="yes"/>
      <point x="544" y="49" type="line"/>
      <point x="576" y="17" type="line"/>
      <point x="576" y="94" type="line"/>
      <point x="556" y="56" type="line"/>
      <point x="699" y="106"/>
      <point x="779" y="206"/>
      <point x="779" y="382" type="curve" smooth="yes"/>
      <point x="779" y="587"/>
      <point x="667" y="720"/>
      <point x="464" y="720" type="curve" smooth="yes"/>
      <point x="261" y="720"/>
      <point x="149" y="587"/>
      <point x="149" y="382" type="curve" smooth="yes"/>
      <point x="149" y="203"/>
      <point x="229" y="106"/>
      <point x="372" y="56" type="curve"/>
      <point x="351" y="94" type="line"/>
      <point x="351" y="17" type="line"/>
      <point x="384" y="49" type="line"/>
      <point x="276" y="52" type="line" smooth="yes"/>
      <point x="241" y="53"/>
      <point x="211" y="57"/>
      <point x="188" y="61" type="curve"/>
      <point x="160" y="103"/>
      <point x="159" y="115"/>
      <point x="151" y="166" type="curve"/>
      <point x="98" y="161" type="line"/>
      <point x="113" y="7" type="line"/>
    </contour>
  </outline>
</glyph>
<glyph name="figuredash" format="2">
  <advance width="656.7"/>
  <unicode hex="2012"/>
  <outline>
    <contour>
      <point x="79" y="278" type="line"/>
      <point x="576" y="278" type="line"/>
      <point x="581" y="351" type="line"/>
      <point x="77" y="351" type="line"/>
    </contour>
  </outline>
</glyph>
<glyph name="emdash" format="2">
  <advance width="1155.4"/>
  <unicode hex="2014"/>
  <outline>
    <contour>
      <point x="77" y="225" type="line"/>
      <point x="1076" y="225" type="line"/>
      <point x="1081" y="286" type="line"/>
      <point x="75" y="286" type="line"/>
    </contour>
  </outline>
</glyph>
<glyph name="horizontalbar" format="2">
  <advance width="1158.7"/>
  <unicode hex="2015"/>
  <outline>
    <contour>
      <point x="79" y="217" type="line"/>
      <point x="1078" y="217" type="line"/>
      <point x="1083" y="290" type="line"/>
      <point x="77" y="290" type="line"/>
    </contour>
  </outline>
</glyph>
<glyph name="dagger" format="2">
  <advance width="532.4"/>
  <unicode hex="2020"/>
  <outline>
    <contour>
      <point x="245" y="0" type="line"/>
      <point x="304" y="0" type="line"/>
      <point x="295" y="94"/>
      <point x="295" y="658"/>
      <point x="307" y="738" type="curve"/>
      <point x="288" y="756" type="line"/>
      <point x="229" y="756" type="line"/>
      <point x="236" y="668"/>
      <point x="236" y="99"/>
      <point x="226" y="18" type="curve"/>
    </contour>
    <contour>
      <point x="430" y="353" type="curve"/>
      <point x="448" y="372" type="line"/>
      <point x="448" y="421" type="line"/>
      <point x="318" y="417"/>
      <point x="203" y="414"/>
      <point x="103" y="424" type="curve"/>
      <point x="85" y="405" type="line"/>
      <point x="85" y="356" type="line"/>
      <point x="218" y="360"/>
      <point x="333" y="362"/>
    </contour>
  </outline>
</glyph>
<glyph name="daggerdbl" format="2">
  <advance width="555"/>
  <unicode hex="2021"/>
  <outline>
    <contour>
      <point x="256" y="0" type="line"/>
      <point x="316" y="0" type="line"/>
      <point x="307" y="94"/>
      <point x="307" y="658"/>
      <point x="319" y="738" type="curve"/>
      <point x="300" y="756" type="line"/>
      <point x="240" y="756" type="line"/>
      <point x="248" y="668"/>
      <point x="248" y="99"/>
      <point x="237" y="18" type="curve"/>
    </contour>
    <contour>
      <point x="442" y="257" type="curve"/>
      <point x="460" y="276" type="line"/>
      <point x="460" y="326" type="line"/>
      <point x="334" y="322"/>
      <point x="224" y="317"/>
      <point x="114" y="329" type="curve"/>
      <point x="96" y="310" type="line"/>
      <point x="96" y="260" type="line"/>
      <point x="226" y="264"/>
      <point x="339" y="266"/>
    </contour>
    <contour>
      <point x="442" y="448" type="curve"/>
      <point x="460" y="467" type="line"/>
      <point x="460" y="517" type="line"/>
      <point x="334" y="513"/>
      <point x="221" y="509"/>
      <point x="114" y="520" type="curve"/>
      <point x="96" y="501" type="line"/>
      <point x="96" y="451" type="line"/>
      <point x="226" y="455"/>
      <point x="336" y="458"/>
    </contour>
  </outline>
</glyph>
<glyph name="twodotenleader" format="2">
  <advance width="524.6"/>
  <unicode hex="2025"/>
  <outline>
    <contour>
      <point x="361" y="-6" type="curve" smooth="yes"/>
      <point x="399" y="-6"/>
      <point x="421" y="21"/>
      <point x="421" y="59" type="curve" smooth="yes"/>
      <point x="421" y="100"/>
      <point x="398" y="125"/>
      <point x="361" y="125" type="curve" smooth="yes"/>
      <point x="323" y="125"/>
      <point x="302" y="97"/>
      <point x="302" y="59" type="curve" smooth="yes"/>
      <point x="302" y="21"/>
      <point x="323" y="-6"/>
    </contour>
    <contour>
      <point x="163" y="-6" type="curve" smooth="yes"/>
      <point x="201" y="-6"/>
      <point x="223" y="21"/>
      <point x="223" y="59" type="curve" smooth="yes"/>
      <point x="223" y="100"/>
      <point x="200" y="125"/>
      <point x="163" y="125" type="curve" smooth="yes"/>
      <point x="125" y="125"/>
      <point x="104" y="97"/>
      <point x="104" y="59" type="curve" smooth="yes"/>
      <point x="104" y="21"/>
      <point x="125" y="-6"/>
    </contour>
  </outline>
</glyph>
<glyph name="ellipsis" format="2">
  <advance width="786.8"/>
  <unicode hex="2026"/>
  <outline>
    <contour>
      <point x="623" y="-6" type="curve" smooth="yes"/>
      <point x="661" y="-6"/>
      <point x="683" y="21"/>
      <point x="683" y="59" type="curve" smooth="yes"/>
      <point x="683" y="100"/>
      <point x="661" y="125"/>
      <point x="623" y="125" type="curve" smooth="yes"/>
      <point x="585" y="125"/>
      <point x="564" y="97"/>
      <point x="564" y="59" type="curve" smooth="yes"/>
      <point x="564" y="21"/>
      <point x="585" y="-6"/>
    </contour>
    <contour>
      <point x="163" y="-6" type="curve" smooth="yes"/>
      <point x="201" y="-6"/>
      <point x="223" y="21"/>
      <point x="223" y="59" type="curve" smooth="yes"/>
      <point x="223" y="100"/>
      <point x="201" y="125"/>
      <point x="163" y="125" type="curve" smooth="yes"/>
      <point x="125" y="125"/>
      <point x="104" y="97"/>
      <point x="104" y="59" type="curve" smooth="yes"/>
      <point x="104" y="21"/>
      <point x="125" y="-6"/>
    </contour>
    <contour>
      <point x="393" y="-6" type="curve" smooth="yes"/>
      <point x="431" y="-6"/>
      <point x="453" y="21"/>
      <point x="453" y="59" type="curve" smooth="yes"/>
      <point x="453" y="100"/>
      <point x="431" y="125"/>
      <point x="393" y="125" type="curve" smooth="yes"/>
      <point x="355" y="125"/>
      <point x="334" y="97"/>
      <point x="334" y="59" type="curve" smooth="yes"/>
      <point x="334" y="21"/>
      <point x="355" y="-6"/>
    </contour>
  </outline>
</glyph>
<glyph name="minute" format="2">
  <advance width="352.1"/>
  <unicode hex="2032"/>
  <outline>
    <contour>
      <point x="182" y="387" type="line"/>
      <point x="230" y="666" type="line"/>
      <point x="159" y="686" type="line"/>
      <point x="131" y="395" type="line"/>
    </contour>
  </outline>
</glyph>
<glyph name="guilsinglleft" format="2">
  <advance width="346.5"/>
  <unicode hex="2039"/>
  <outline>
    <contour>
      <point x="231" y="36" type="line"/>
      <point x="267" y="60" type="line"/>
      <point x="143" y="282" type="line"/>
      <point x="143" y="222" type="line"/>
      <point x="267" y="444" type="line"/>
      <point x="231" y="469" type="line"/>
      <point x="64" y="252" type="line"/>
    </contour>
  </outline>
</glyph>
<glyph name="fraction" format="2">
  <advance width="203.7"/>
  <unicode hex="2044"/>
  <outline>
    <contour>
      <point x="-79" y="-49" type="line"/>
      <point x="355" y="690" type="line"/>
      <point x="307" y="721" type="line"/>
      <point x="-128" y="-18" type="line"/>
    </contour>
  </outline>
</glyph>
<glyph name="zerosuperior" format="2">
  <advance width="411.2"/>
  <unicode hex="2070"/>
  <outline>
    <contour>
      <point x="206" y="324" type="curve" smooth="yes"/>
      <point x="316" y="324"/>
      <point x="360" y="419"/>
      <point x="360" y="528" type="curve"/>
      <point x="360" y="636"/>
      <point x="316" y="731"/>
      <point x="206" y="731" type="curve" smooth="yes"/>
      <point x="95" y="731"/>
      <point x="51" y="637"/>
      <point x="51" y="528" type="curve"/>
      <point x="51" y="418"/>
      <point x="95" y="324"/>
    </contour>
    <contour>
      <point x="206" y="369" type="curve" smooth="yes"/>
      <point x="145" y="369"/>
      <point x="132" y="455"/>
      <point x="132" y="528" type="curve"/>
      <point x="132" y="601"/>
      <point x="145" y="687"/>
      <point x="206" y="687" type="curve" smooth="yes"/>
      <point x="267" y="687"/>
      <point x="278" y="600"/>
      <point x="278" y="528" type="curve" smooth="yes"/>
      <point x="278" y="456"/>
      <point x="267" y="369"/>
    </contour>
  </outline>
</glyph>
<glyph name="foursuperior" format="2">
  <advance width="385.8"/>
  <unicode hex="2074"/>
  <outline>
    <contour>
      <point x="71" y="445" type="line"/>
      <point x="225" y="445" type="line"/>
      <point x="225" y="491" type="line"/>
      <point x="81" y="490" type="line"/>
      <point x="93" y="465" type="line"/>
      <point x="226" y="652" type="line" smooth="yes"/>
      <point x="233" y="662"/>
      <point x="276" y="706"/>
      <point x="307" y="736" type="curve"/>
      <point x="254" y="778" type="line"/>
      <point x="35" y="490" type="line"/>
    </contour>
    <contour>
      <point x="149" y="327" type="line"/>
      <point x="172" y="328"/>
      <point x="211" y="330"/>
      <point x="231" y="330" type="curve" smooth="yes"/>
      <point x="337" y="330" type="line"/>
      <point x="340" y="368" type="line"/>
      <point x="255" y="374" type="line"/>
      <point x="290" y="341" type="line"/>
      <point x="286" y="373"/>
      <point x="282" y="408"/>
      <point x="282" y="429" type="curve" smooth="yes"/>
      <point x="282" y="586" type="line"/>
      <point x="215" y="563" type="line"/>
      <point x="215" y="422" type="line" smooth="yes"/>
      <point x="215" y="401"/>
      <point x="210" y="368"/>
      <point x="206" y="341" type="curve"/>
      <point x="241" y="376" type="line"/>
      <point x="146" y="364" type="line"/>
    </contour>
    <contour>
      <point x="273" y="445" type="line"/>
      <point x="340" y="445" type="line"/>
      <point x="340" y="499" type="line"/>
      <point x="273" y="495" type="line"/>
    </contour>
  </outline>
</glyph>
<glyph name="fivesuperior" format="2">
  <advance width="341"/>
  <unicode hex="2075"/>
  <outline>
    <contour>
      <point x="61" y="266" type="line"/>
      <point x="204" y="286"/>
      <point x="292" y="344"/>
      <point x="292" y="440" type="curve" smooth="yes"/>
      <point x="292" y="515"/>
      <point x="240" y="557"/>
      <point x="154" y="557" type="curve" smooth="yes"/>
      <point x="131" y="557"/>
      <point x="109" y="553"/>
      <point x="89" y="548" type="curve"/>
      <point x="108" y="524" type="line"/>
      <point x="116" y="660" type="line"/>
      <point x="165" y="660" type="line"/>
      <point x="277" y="670" type="line"/>
      <point x="274" y="731" type="line"/>
      <point x="124" y="725" type="line"/>
      <point x="76" y="725" type="line"/>
      <point x="64" y="715" type="line"/>
      <point x="52" y="520" type="line"/>
      <point x="77" y="496" type="line"/>
      <point x="102" y="503"/>
      <point x="120" y="505"/>
      <point x="134" y="505" type="curve" smooth="yes"/>
      <point x="187" y="505"/>
      <point x="215" y="478"/>
      <point x="215" y="431" type="curve" smooth="yes"/>
      <point x="215" y="360"/>
      <point x="149" y="324"/>
      <point x="48" y="305" type="curve"/>
    </contour>
  </outline>
</glyph>
<glyph name="sixsuperior" format="2">
  <advance width="384.3"/>
  <unicode hex="2076"/>
  <outline>
    <contour>
      <point x="198" y="323" type="curve" smooth="yes"/>
      <point x="275" y="323"/>
      <point x="339" y="377"/>
      <point x="339" y="454" type="curve" smooth="yes"/>
      <point x="339" y="531"/>
      <point x="292" y="578"/>
      <point x="213" y="578" type="curve" smooth="yes"/>
      <point x="198" y="578"/>
      <point x="183" y="575"/>
      <point x="165" y="570" type="curve"/>
      <point x="169" y="533" type="line"/>
      <point x="178" y="534"/>
      <point x="188" y="535"/>
      <point x="199" y="535" type="curve" smooth="yes"/>
      <point x="242" y="535"/>
      <point x="261" y="495"/>
      <point x="261" y="454" type="curve" smooth="yes"/>
      <point x="261" y="411"/>
      <point x="240" y="369"/>
      <point x="197" y="369" type="curve" smooth="yes"/>
      <point x="145" y="369"/>
      <point x="126" y="428"/>
      <point x="126" y="479" type="curve" smooth="yes"/>
      <point x="126" y="581"/>
      <point x="176" y="701"/>
      <point x="326" y="747" type="curve"/>
      <point x="318" y="783" type="line"/>
      <point x="136" y="750"/>
      <point x="48" y="607"/>
      <point x="48" y="479" type="curve" smooth="yes"/>
      <point x="48" y="387"/>
      <point x="103" y="323"/>
    </contour>
  </outline>
</glyph>
<glyph name="sevensuperior" format="2">
  <advance width="363.7"/>
  <unicode hex="2077"/>
  <outline>
    <contour>
      <point x="140" y="266" type="line"/>
      <point x="325" y="692" type="line"/>
      <point x="315" y="725" type="line"/>
      <point x="136" y="725" type="line" smooth="yes"/>
      <point x="126" y="725"/>
      <point x="87" y="728"/>
      <point x="61" y="730" type="curve"/>
      <point x="49" y="718" type="line"/>
      <point x="43" y="608" type="line"/>
      <point x="85" y="606" type="line"/>
      <point x="89" y="635" type="line" smooth="yes"/>
      <point x="89" y="636"/>
      <point x="100" y="668"/>
      <point x="110" y="687" type="curve"/>
      <point x="67" y="655" type="line"/>
      <point x="88" y="657"/>
      <point x="127" y="661"/>
      <point x="141" y="661" type="curve" smooth="yes"/>
      <point x="270" y="661" type="line"/>
      <point x="248" y="691" type="line"/>
      <point x="238" y="654"/>
      <point x="221" y="587"/>
      <point x="213" y="571" type="curve" smooth="yes"/>
      <point x="77" y="288" type="line"/>
    </contour>
  </outline>
</glyph>
<glyph name="eightsuperior" format="2">
  <advance width="380.3"/>
  <unicode hex="2078"/>
  <outline>
    <contour>
      <point x="190" y="324" type="curve" smooth="yes"/>
      <point x="263" y="324"/>
      <point x="332" y="358"/>
      <point x="332" y="429" type="curve" smooth="yes"/>
      <point x="332" y="498"/>
      <point x="274" y="529"/>
      <point x="221" y="557" type="curve" smooth="yes"/>
      <point x="175" y="581"/>
      <point x="134" y="602"/>
      <point x="134" y="646" type="curve" smooth="yes"/>
      <point x="134" y="678"/>
      <point x="159" y="703"/>
      <point x="191" y="703" type="curve" smooth="yes"/>
      <point x="224" y="703"/>
      <point x="248" y="679"/>
      <point x="248" y="644" type="curve" smooth="yes"/>
      <point x="248" y="601"/>
      <point x="211" y="561"/>
      <point x="173" y="538" type="curve"/>
      <point x="208" y="518" type="line"/>
      <point x="275" y="551"/>
      <point x="319" y="598"/>
      <point x="319" y="645" type="curve" smooth="yes"/>
      <point x="319" y="708"/>
      <point x="255" y="743"/>
      <point x="191" y="743" type="curve" smooth="yes"/>
      <point x="125" y="743"/>
      <point x="62" y="708"/>
      <point x="62" y="646" type="curve" smooth="yes"/>
      <point x="62" y="572"/>
      <point x="121" y="542"/>
      <point x="172" y="516" type="curve" smooth="yes"/>
      <point x="210" y="496"/>
      <point x="259" y="475"/>
      <point x="259" y="427" type="curve" smooth="yes"/>
      <point x="259" y="389"/>
      <point x="230" y="364"/>
      <point x="191" y="364" type="curve" smooth="yes"/>
      <point x="150" y="364"/>
      <point x="122" y="390"/>
      <point x="122" y="429" type="curve" smooth="yes"/>
      <point x="122" y="470"/>
      <point x="158" y="510"/>
      <point x="219" y="539" type="curve"/>
      <point x="181" y="565" type="line"/>
      <point x="132" y="542"/>
      <point x="48" y="498"/>
      <point x="48" y="429" type="curve" smooth="yes"/>
      <point x="48" y="358"/>
      <point x="117" y="324"/>
    </contour>
  </outline>
</glyph>
<glyph name="threeinferior" format="2">
  <advance width="341.3"/>
  <unicode hex="2083"/>
  <outline>
    <contour>
      <point x="50" y="-164" type="line"/>
      <point x="197" y="-150"/>
      <point x="294" y="-78"/>
      <point x="294" y="4" type="curve" smooth="yes"/>
      <point x="294" y="58"/>
      <point x="248" y="101"/>
      <point x="183" y="105" type="curve"/>
      <point x="182" y="92" type="line"/>
      <point x="243" y="112"/>
      <point x="277" y="152"/>
      <point x="277" y="199" type="curve" smooth="yes"/>
      <point x="277" y="266"/>
      <point x="231" y="301"/>
      <point x="146" y="301" type="curve" smooth="yes"/>
      <point x="111" y="301"/>
      <point x="78" y="296"/>
      <point x="42" y="284" type="curve"/>
      <point x="50" y="188" type="line"/>
      <point x="91" y="191" type="line"/>
      <point x="91" y="220" type="line" smooth="yes"/>
      <point x="91" y="227"/>
      <point x="99" y="259"/>
      <point x="104" y="277" type="curve"/>
      <point x="80" y="239" type="line"/>
      <point x="98" y="250"/>
      <point x="117" y="257"/>
      <point x="143" y="257" type="curve" smooth="yes"/>
      <point x="181" y="257"/>
      <point x="201" y="236"/>
      <point x="201" y="197" type="curve" smooth="yes"/>
      <point x="201" y="144"/>
      <point x="161" y="114"/>
      <point x="91" y="105" type="curve"/>
      <point x="100" y="67" type="line"/>
      <point x="109" y="68"/>
      <point x="126" y="69"/>
      <point x="140" y="69" type="curve" smooth="yes"/>
      <point x="186" y="69"/>
      <point x="214" y="43"/>
      <point x="214" y="-1" type="curve" smooth="yes"/>
      <point x="214" y="-59"/>
      <point x="145" y="-109"/>
      <point x="37" y="-124" type="curve"/>
    </contour>
  </outline>
</glyph>
<glyph name="fiveinferior" format="2">
  <advance width="341"/>
  <unicode hex="2085"/>
  <outline>
    <contour>
      <point x="61" y="-164" type="line"/>
      <point x="204" y="-144"/>
      <point x="292" y="-86"/>
      <point x="292" y="10" type="curve" smooth="yes"/>
      <point x="292" y="85"/>
      <point x="240" y="127"/>
      <point x="154" y="127" type="curve" smooth="yes"/>
      <point x="133" y="127"/>
      <point x="108" y="123"/>
      <point x="89" y="118" type="curve"/>
      <point x="108" y="94" type="line"/>
      <point x="116" y="230" type="line"/>
      <point x="165" y="230" type="line"/>
      <point x="277" y="240" type="line"/>
      <point x="274" y="301" type="line"/>
      <point x="124" y="295" type="line"/>
      <point x="76" y="295" type="line"/>
      <point x="64" y="285" type="line"/>
      <point x="52" y="90" type="line"/>
      <point x="77" y="66" type="line"/>
      <point x="102" y="73"/>
      <point x="120" y="75"/>
      <point x="134" y="75" type="curve" smooth="yes"/>
      <point x="187" y="75"/>
      <point x="215" y="48"/>
      <point x="215" y="1" type="curve" smooth="yes"/>
      <point x="215" y="-69"/>
      <point x="150" y="-106"/>
      <point x="48" y="-125" type="curve"/>
    </contour>
  </outline>
</glyph>
<glyph name="sixinferior" format="2">
  <advance width="384.3"/>
  <unicode hex="2086"/>
  <outline>
    <contour>
      <point x="198" y="-107" type="curve" smooth="yes"/>
      <point x="275" y="-107"/>
      <point x="339" y="-53"/>
      <point x="339" y="24" type="curve" smooth="yes"/>
      <point x="339" y="101"/>
      <point x="292" y="148"/>
      <point x="213" y="148" type="curve" smooth="yes"/>
      <point x="198" y="148"/>
      <point x="183" y="145"/>
      <point x="165" y="140" type="curve"/>
      <point x="169" y="103" type="line"/>
      <point x="178" y="104"/>
      <point x="188" y="105"/>
      <point x="199" y="105" type="curve" smooth="yes"/>
      <point x="242" y="105"/>
      <point x="261" y="65"/>
      <point x="261" y="24" type="curve" smooth="yes"/>
      <point x="261" y="-19"/>
      <point x="240" y="-61"/>
      <point x="197" y="-61" type="curve" smooth="yes"/>
      <point x="145" y="-61"/>
      <point x="126" y="-2"/>
      <point x="126" y="49" type="curve" smooth="yes"/>
      <point x="126" y="151"/>
      <point x="176" y="271"/>
      <point x="326" y="317" type="curve"/>
      <point x="318" y="353" type="line"/>
      <point x="136" y="320"/>
      <point x="48" y="177"/>
      <point x="48" y="49" type="curve" smooth="yes"/>
      <point x="48" y="-43"/>
      <point x="103" y="-107"/>
    </contour>
  </outline>
</glyph>
<glyph name="naira" format="2">
  <advance width="910.6"/>
  <unicode hex="20A6"/>
  <outline>
    <contour>
      <point x="132" y="-5" type="line"/>
      <point x="171" y="-3"/>
      <point x="229" y="0"/>
      <point x="247" y="0" type="curve"/>
      <point x="350" y="0" type="line"/>
      <point x="357" y="50" type="line"/>
      <point x="245" y="60" type="line"/>
      <point x="283" y="25" type="line"/>
      <point x="279" y="51"/>
      <point x="272" y="106"/>
      <point x="272" y="157" type="curve" smooth="yes"/>
      <point x="272" y="548" type="line"/>
      <point x="253" y="541" type="line"/>
      <point x="653" y="0" type="line"/>
      <point x="708" y="0" type="line"/>
      <point x="709" y="499" type="line" smooth="yes"/>
      <point x="709" y="544"/>
      <point x="725" y="607"/>
      <point x="730" y="629" type="curve"/>
      <point x="690" y="595" type="line"/>
      <point x="798" y="604" type="line"/>
      <point x="795" y="659" type="line"/>
      <point x="766" y="657"/>
      <point x="712" y="655"/>
      <point x="670" y="655" type="curve" smooth="yes"/>
      <point x="655" y="655"/>
      <point x="595" y="658"/>
      <point x="568" y="659" type="curve"/>
      <point x="563" y="608" type="line"/>
      <point x="672" y="592" type="line"/>
      <point x="632" y="634" type="line"/>
      <point x="636" y="616"/>
      <point x="647" y="547"/>
      <point x="647" y="527" type="curve" smooth="yes"/>
      <point x="647" y="124" type="line"/>
      <point x="667" y="129" type="line"/>
      <point x="393" y="493" type="line" smooth="yes"/>
      <point x="382" y="508"/>
      <point x="334" y="583"/>
      <point x="300" y="636" type="curve"/>
      <point x="280" y="655" type="line"/>
      <point x="240" y="655" type="line" smooth="yes"/>
      <point x="226" y="655"/>
      <point x="169" y="657"/>
      <point x="129" y="659" type="curve"/>
      <point x="124" y="608" type="line"/>
      <point x="235" y="593" type="line"/>
      <point x="198" y="625" type="line"/>
      <point x="200" y="610"/>
      <point x="211" y="547"/>
      <point x="211" y="527" type="curve" smooth="yes"/>
      <point x="211" y="129" type="line" smooth="yes"/>
      <point x="211" y="107"/>
      <point x="201" y="48"/>
      <point x="197" y="29" type="curve"/>
      <point x="235" y="64" type="line"/>
      <point x="127" y="42" type="line"/>
    </contour>
    <contour>
      <point x="74" y="271" type="line"/>
      <point x="240" y="279" type="line"/>
      <point x="240" y="317" type="line"/>
      <point x="72" y="311" type="line"/>
    </contour>
    <contour>
      <point x="678" y="299" type="line"/>
      <point x="838" y="306" type="line"/>
      <point x="836" y="345" type="line"/>
      <point x="678" y="338" type="line"/>
    </contour>
  </outline>
</glyph>
<glyph name="rupee" format="2">
  <advance width="1030.1"/>
  <unicode hex="20A8"/>
  <outline>
    <contour>
      <point x="748" y="-10" type="curve" smooth="yes"/>
      <point x="865" y="-10"/>
      <point x="944" y="30"/>
      <point x="944" y="135" type="curve" smooth="yes"/>
      <point x="944" y="290"/>
      <point x="695" y="281"/>
      <point x="695" y="386" type="curve" smooth="yes"/>
      <point x="695" y="428"/>
      <point x="726" y="454"/>
      <point x="774" y="454" type="curve" smooth="yes"/>
      <point x="806" y="454"/>
      <point x="839" y="448"/>
      <point x="871" y="436" type="curve"/>
      <point x="829" y="475" type="line"/>
      <point x="842" y="444"/>
      <point x="857" y="395"/>
      <point x="857" y="383" type="curve" smooth="yes"/>
      <point x="857" y="348" type="line"/>
      <point x="914" y="345" type="line"/>
      <point x="915" y="487" type="line"/>
      <point x="860" y="498"/>
      <point x="811" y="503"/>
      <point x="773" y="503" type="curve" smooth="yes"/>
      <point x="681" y="503"/>
      <point x="619" y="449"/>
      <point x="619" y="372" type="curve" smooth="yes"/>
      <point x="619" y="213"/>
      <point x="866" y="225"/>
      <point x="866" y="118" type="curve" smooth="yes"/>
      <point x="866" y="62"/>
      <point x="818" y="38"/>
      <point x="745" y="38" type="curve" smooth="yes"/>
      <point x="614" y="38"/>
      <point x="564" y="86"/>
      <point x="484" y="211" type="curve" smooth="yes"/>
      <point x="416" y="316" type="line"/>
      <point x="320" y="319" type="line"/>
      <point x="399" y="181" type="line" smooth="yes"/>
      <point x="469" y="60"/>
      <point x="544" y="-10"/>
    </contour>
    <contour>
      <point x="82" y="-5" type="line"/>
      <point x="127" y="-3"/>
      <point x="191" y="0"/>
      <point x="216" y="0" type="curve" smooth="yes"/>
      <point x="344" y="0" type="line"/>
      <point x="351" y="52" type="line"/>
      <point x="225" y="62" type="line"/>
      <point x="263" y="28" type="line"/>
      <point x="258" y="54"/>
      <point x="251" y="113"/>
      <point x="251" y="164" type="curve" smooth="yes"/>
      <point x="251" y="487" type="line" smooth="yes"/>
      <point x="251" y="531"/>
      <point x="259" y="609"/>
      <point x="260" y="621" type="curve"/>
      <point x="199" y="654" type="line"/>
      <point x="180" y="654"/>
      <point x="122" y="657"/>
      <point x="84" y="659" type="curve"/>
      <point x="79" y="607" type="line"/>
      <point x="191" y="590" type="line"/>
      <point x="154" y="628" type="line"/>
      <point x="159" y="594"/>
      <point x="167" y="544"/>
      <point x="167" y="523" type="curve" smooth="yes"/>
      <point x="167" y="134" type="line" smooth="yes"/>
      <point x="167" y="113"/>
      <point x="156" y="45"/>
      <point x="153" y="28" type="curve"/>
      <point x="191" y="66" type="line"/>
      <point x="77" y="43" type="line"/>
    </contour>
    <contour>
      <point x="333" y="303" type="curve" smooth="yes"/>
      <point x="485" y="303"/>
      <point x="564" y="391"/>
      <point x="564" y="489" type="curve" smooth="yes"/>
      <point x="564" y="589"/>
      <point x="493" y="661"/>
      <point x="345" y="661" type="curve" smooth="yes"/>
      <point x="290" y="661"/>
      <point x="254" y="654"/>
      <point x="199" y="654" type="curve"/>
      <point x="200" y="601" type="line"/>
      <point x="237" y="608"/>
      <point x="293" y="614"/>
      <point x="314" y="614" type="curve" smooth="yes"/>
      <point x="430" y="614"/>
      <point x="477" y="557"/>
      <point x="477" y="482" type="curve" smooth="yes"/>
      <point x="477" y="408"/>
      <point x="430" y="350"/>
      <point x="314" y="350" type="curve" smooth="yes"/>
      <point x="272" y="350"/>
      <point x="228" y="358"/>
      <point x="185" y="364" type="curve"/>
      <point x="185" y="308" type="line"/>
      <point x="235" y="305"/>
      <point x="280" y="303"/>
    </contour>
  </outline>
</glyph>
<glyph name="dong" format="2">
  <advance width="656"/>
  <unicode hex="20AB"/>
  <outline>
    <contour>
      <point x="278" y="71" type="curve" smooth="yes"/>
      <point x="335" y="71"/>
      <point x="414" y="119"/>
      <point x="420" y="172" type="curve"/>
      <point x="409" y="187" type="line"/>
      <point x="427" y="80" type="line"/>
      <point x="553" y="80" type="line"/>
      <point x="559" y="132" type="line"/>
      <point x="459" y="142" type="line"/>
      <point x="500" y="107" type="line"/>
      <point x="496" y="129"/>
      <point x="485" y="182"/>
      <point x="485" y="234" type="curve" smooth="yes"/>
      <point x="485" y="595" type="line" smooth="yes"/>
      <point x="485" y="627"/>
      <point x="488" y="695"/>
      <point x="491" y="737" type="curve"/>
      <point x="473" y="753" type="line"/>
      <point x="417" y="753" type="line" smooth="yes"/>
      <point x="402" y="753"/>
      <point x="352" y="756"/>
      <point x="318" y="758" type="curve"/>
      <point x="312" y="706" type="line"/>
      <point x="431" y="684" type="line"/>
      <point x="390" y="718" type="line"/>
      <point x="393" y="706"/>
      <point x="405" y="646"/>
      <point x="405" y="622" type="curve" smooth="yes"/>
      <point x="405" y="269" type="line" smooth="yes"/>
      <point x="405" y="186"/>
      <point x="361" y="138"/>
      <point x="286" y="138" type="curve" smooth="yes"/>
      <point x="219" y="138"/>
      <point x="178" y="197"/>
      <point x="178" y="301" type="curve" smooth="yes"/>
      <point x="178" y="408"/>
      <point x="222" y="467"/>
      <point x="298" y="467" type="curve" smooth="yes"/>
      <point x="339" y="467"/>
      <point x="378" y="456"/>
      <point x="420" y="431" type="curve"/>
      <point x="424" y="504" type="line"/>
      <point x="363" y="523"/>
      <point x="332" y="528"/>
      <point x="289" y="528" type="curve" smooth="yes"/>
      <point x="164" y="528"/>
      <point x="87" y="441"/>
      <point x="87" y="299" type="curve" smooth="yes"/>
      <point x="87" y="157"/>
      <point x="158" y="71"/>
    </contour>
    <contour>
      <point x="106" y="-34" type="line"/>
      <point x="552" y="-16" type="line"/>
      <point x="550" y="23" type="line"/>
      <point x="104" y="6" type="line"/>
    </contour>
    <contour>
      <point x="274" y="596" type="line"/>
      <point x="575" y="596" type="line"/>
      <point x="580" y="636" type="line"/>
      <point x="274" y="636" type="line"/>
    </contour>
  </outline>
</glyph>
<glyph name="peso" format="2">
  <advance width="789.7"/>
  <unicode hex="20B1"/>
  <outline>
    <contour>
      <point x="124" y="-5" type="line"/>
      <point x="170" y="-3"/>
      <point x="236" y="0"/>
      <point x="253" y="0" type="curve"/>
      <point x="386" y="0" type="line"/>
      <point x="393" y="50" type="line"/>
      <point x="262" y="60" type="line"/>
      <point x="300" y="26" type="line"/>
      <point x="295" y="50"/>
      <point x="289" y="112"/>
      <point x="289" y="157" type="curve" smooth="yes"/>
      <point x="289" y="499" type="line" smooth="yes"/>
      <point x="289" y="549"/>
      <point x="297" y="609"/>
      <point x="300" y="628" type="curve"/>
      <point x="236" y="655" type="line"/>
      <point x="223" y="655"/>
      <point x="166" y="657"/>
      <point x="127" y="659" type="curve"/>
      <point x="122" y="608" type="line"/>
      <point x="229" y="592" type="line"/>
      <point x="191" y="629" type="line"/>
      <point x="194" y="610"/>
      <point x="205" y="548"/>
      <point x="205" y="527" type="curve" smooth="yes"/>
      <point x="205" y="129" type="line" smooth="yes"/>
      <point x="205" y="107"/>
      <point x="194" y="42"/>
      <point x="191" y="26" type="curve"/>
      <point x="229" y="64" type="line"/>
      <point x="119" y="42" type="line"/>
    </contour>
    <contour>
      <point x="89" y="373" type="line"/>
      <point x="251" y="381" type="line"/>
      <point x="251" y="421" type="line"/>
      <point x="87" y="413" type="line"/>
    </contour>
    <contour>
      <point x="89" y="479" type="line"/>
      <point x="251" y="487" type="line"/>
      <point x="251" y="527" type="line"/>
      <point x="87" y="519" type="line"/>
    </contour>
    <contour>
      <point x="376" y="270" type="curve" smooth="yes"/>
      <point x="504" y="270"/>
      <point x="612" y="341"/>
      <point x="612" y="466" type="curve" smooth="yes"/>
      <point x="612" y="593"/>
      <point x="530" y="659"/>
      <point x="398" y="659" type="curve" smooth="yes"/>
      <point x="345" y="659"/>
      <point x="289" y="655"/>
      <point x="236" y="655" type="curve"/>
      <point x="236" y="604" type="line"/>
      <point x="276" y="608"/>
      <point x="321" y="612"/>
      <point x="358" y="612" type="curve" smooth="yes"/>
      <point x="458" y="612"/>
      <point x="524" y="561"/>
      <point x="524" y="466" type="curve" smooth="yes"/>
      <point x="524" y="367"/>
      <point x="458" y="318"/>
      <point x="358" y="318" type="curve" smooth="yes"/>
      <point x="328" y="318"/>
      <point x="263" y="324"/>
      <point x="222" y="329" type="curve"/>
      <point x="222" y="274" type="line"/>
      <point x="259" y="272"/>
      <point x="327" y="270"/>
    </contour>
    <contour>
      <point x="588" y="395" type="line"/>
      <point x="712" y="401" type="line"/>
      <point x="710" y="440" type="line"/>
      <point x="588" y="434" type="line"/>
    </contour>
    <contour>
      <point x="588" y="501" type="line"/>
      <point x="712" y="507" type="line"/>
      <point x="710" y="546" type="line"/>
      <point x="588" y="540" type="line"/>
    </contour>
  </outline>
</glyph>
<glyph name="cedi" format="2">
  <advance width="645.1"/>
  <unicode hex="20B5"/>
  <outline>
    <contour>
      <point x="368" y="-13" type="curve" smooth="yes"/>
      <point x="442" y="-13"/>
      <point x="505" y="3"/>
      <point x="562" y="17" type="curve"/>
      <point x="556" y="152" type="line"/>
      <point x="504" y="150" type="line"/>
      <point x="504" y="136"/>
      <point x="503" y="115"/>
      <point x="502" y="108" type="curve"/>
      <point x="502" y="97"/>
      <point x="490" y="59"/>
      <point x="480" y="34" type="curve"/>
      <point x="508" y="65" type="line"/>
      <point x="468" y="50"/>
      <point x="411" y="40"/>
      <point x="367" y="40" type="curve" smooth="yes"/>
      <point x="238" y="40"/>
      <point x="174" y="161"/>
      <point x="174" y="314" type="curve" smooth="yes"/>
      <point x="174" y="466"/>
      <point x="238" y="588"/>
      <point x="368" y="588" type="curve" smooth="yes"/>
      <point x="407" y="588"/>
      <point x="463" y="575"/>
      <point x="499" y="560" type="curve"/>
      <point x="474" y="590" type="line"/>
      <point x="479" y="571"/>
      <point x="492" y="534"/>
      <point x="492" y="523" type="curve" smooth="yes"/>
      <point x="492" y="481" type="line"/>
      <point x="545" y="477" type="line"/>
      <point x="554" y="610" type="line"/>
      <point x="497" y="624"/>
      <point x="441" y="640"/>
      <point x="368" y="640" type="curve" smooth="yes"/>
      <point x="178" y="640"/>
      <point x="82" y="505"/>
      <point x="82" y="313" type="curve" smooth="yes"/>
      <point x="82" y="119"/>
      <point x="179" y="-13"/>
    </contour>
    <contour>
      <point x="369" y="-154" type="line"/>
      <point x="376" y="15" type="line"/>
      <point x="333" y="15" type="line"/>
      <point x="326" y="-151" type="line"/>
    </contour>
    <contour>
      <point x="347" y="616" type="line"/>
      <point x="389" y="616" type="line"/>
      <point x="396" y="785" type="line"/>
      <point x="354" y="788" type="line"/>
    </contour>
  </outline>
</glyph>
<glyph name="rupeeIndian" format="2">
  <advance width="646.9"/>
  <unicode hex="20B9"/>
  <outline>
    <contour>
      <point x="91" y="279" type="line"/>
      <point x="230" y="279" type="line"/>
      <point x="357" y="279"/>
      <point x="462" y="350"/>
      <point x="462" y="472" type="curve" smooth="yes"/>
      <point x="462" y="595"/>
      <point x="383" y="659"/>
      <point x="252" y="659" type="curve" smooth="yes"/>
      <point x="199" y="659"/>
      <point x="147" y="656"/>
      <point x="91" y="653" type="curve"/>
      <point x="91" y="603" type="line" smooth="yes"/>
      <point x="87" y="601"/>
      <point x="177" y="612"/>
      <point x="211" y="612" type="curve" smooth="yes"/>
      <point x="311" y="612"/>
      <point x="376" y="563"/>
      <point x="376" y="470" type="curve" smooth="yes"/>
      <point x="376" y="374"/>
      <point x="311" y="327"/>
      <point x="210" y="327" type="curve"/>
      <point x="91" y="327" type="line"/>
    </contour>
    <contour>
      <point x="385" y="0" type="curve"/>
      <point x="440" y="0"/>
      <point x="503" y="0"/>
      <point x="535" y="0" type="curve"/>
      <point x="542" y="50" type="line"/>
      <point x="472" y="57" type="line"/>
      <point x="455" y="78"/>
      <point x="431" y="110"/>
      <point x="423" y="122" type="curve"/>
      <point x="418" y="130"/>
      <point x="360" y="223"/>
      <point x="306" y="325" type="curve"/>
      <point x="215" y="321" type="line"/>
      <point x="331" y="108" type="line"/>
      <point x="340" y="92"/>
      <point x="367" y="37"/>
    </contour>
    <contour>
      <point x="93" y="454" type="line"/>
      <point x="562" y="476" type="line"/>
      <point x="560" y="515" type="line"/>
      <point x="91" y="494" type="line"/>
    </contour>
    <contour>
      <point x="93" y="614" type="line"/>
      <point x="562" y="636" type="line"/>
      <point x="560" y="674" type="line"/>
      <point x="91" y="653" type="line"/>
    </contour>
  </outline>
</glyph>
<glyph name="liraTurkish" format="2">
  <advance width="642.2"/>
  <unicode hex="20BA"/>
  <outline>
    <contour>
      <point x="381" y="-15" type="curve" smooth="yes"/>
      <point x="441" y="-15"/>
      <point x="508" y="1"/>
      <point x="568" y="17" type="curve"/>
      <point x="554" y="162" type="line"/>
      <point x="496" y="156" type="line"/>
      <point x="496" y="117" type="line" smooth="yes"/>
      <point x="496" y="100"/>
      <point x="485" y="56"/>
      <point x="476" y="25" type="curve"/>
      <point x="517" y="67" type="line"/>
      <point x="475" y="50"/>
      <point x="426" y="37"/>
      <point x="380" y="37" type="curve" smooth="yes"/>
      <point x="309" y="37"/>
      <point x="269" y="72"/>
      <point x="269" y="135" type="curve" smooth="yes"/>
      <point x="269" y="541" type="line" smooth="yes"/>
      <point x="269" y="592"/>
      <point x="277" y="679"/>
      <point x="279" y="695" type="curve"/>
      <point x="269" y="705" type="line"/>
      <point x="169" y="705" type="line"/>
      <point x="172" y="686"/>
      <point x="183" y="592"/>
      <point x="183" y="571" type="curve" smooth="yes"/>
      <point x="183" y="149" type="line" smooth="yes"/>
      <point x="183" y="43"/>
      <point x="268" y="-15"/>
    </contour>
    <contour>
      <point x="81" y="271" type="line"/>
      <point x="491" y="290" type="line"/>
      <point x="489" y="329" type="line"/>
      <point x="79" y="311" type="line"/>
    </contour>
    <contour>
      <point x="76" y="377" type="line"/>
      <point x="486" y="396" type="line"/>
      <point x="484" y="435" type="line"/>
      <point x="74" y="417" type="line"/>
    </contour>
  </outline>
</glyph>
<glyph name="ruble" format="2">
  <advance width="691.7"/>
  <unicode hex="20BD"/>
  <outline>
    <contour>
      <point x="125" y="-5" type="line"/>
      <point x="170" y="-3"/>
      <point x="236" y="0"/>
      <point x="253" y="0" type="curve"/>
      <point x="386" y="0" type="line"/>
      <point x="393" y="50" type="line"/>
      <point x="262" y="60" type="line"/>
      <point x="301" y="26" type="line"/>
      <point x="296" y="50"/>
      <point x="289" y="112"/>
      <point x="289" y="157" type="curve" smooth="yes"/>
      <point x="289" y="499" type="line" smooth="yes"/>
      <point x="289" y="549"/>
      <point x="297" y="609"/>
      <point x="300" y="628" type="curve"/>
      <point x="236" y="655" type="line"/>
      <point x="223" y="655"/>
      <point x="166" y="657"/>
      <point x="127" y="659" type="curve"/>
      <point x="122" y="608" type="line"/>
      <point x="230" y="592" type="line"/>
      <point x="191" y="629" type="line"/>
      <point x="195" y="610"/>
      <point x="205" y="548"/>
      <point x="205" y="527" type="curve" smooth="yes"/>
      <point x="205" y="129" type="line" smooth="yes"/>
      <point x="205" y="107"/>
      <point x="194" y="42"/>
      <point x="191" y="26" type="curve"/>
      <point x="230" y="64" type="line"/>
      <point x="120" y="42" type="line"/>
    </contour>
    <contour>
      <point x="75" y="146" type="line"/>
      <point x="414" y="162" type="line"/>
      <point x="412" y="202" type="line"/>
      <point x="73" y="186" type="line"/>
    </contour>
    <contour>
      <point x="376" y="268" type="curve" smooth="yes"/>
      <point x="505" y="268"/>
      <point x="612" y="340"/>
      <point x="612" y="466" type="curve" smooth="yes"/>
      <point x="612" y="593"/>
      <point x="530" y="659"/>
      <point x="398" y="659" type="curve" smooth="yes"/>
      <point x="345" y="659"/>
      <point x="289" y="655"/>
      <point x="236" y="655" type="curve"/>
      <point x="236" y="604" type="line"/>
      <point x="277" y="608"/>
      <point x="321" y="612"/>
      <point x="359" y="612" type="curve" smooth="yes"/>
      <point x="459" y="612"/>
      <point x="524" y="561"/>
      <point x="524" y="466" type="curve" smooth="yes"/>
      <point x="524" y="366"/>
      <point x="458" y="316"/>
      <point x="358" y="316" type="curve" smooth="yes"/>
      <point x="328" y="316"/>
      <point x="263" y="322"/>
      <point x="222" y="327" type="curve"/>
      <point x="222" y="272" type="line"/>
      <point x="260" y="270"/>
      <point x="328" y="268"/>
    </contour>
  </outline>
</glyph>
<glyph name="upArrow" format="2">
  <advance width="693.6"/>
  <unicode hex="2191"/>
  <outline>
    <contour>
      <point x="135" y="192" type="line"/>
      <point x="369" y="464" type="line"/>
      <point x="325" y="464" type="line"/>
      <point x="559" y="193" type="line"/>
      <point x="610" y="234" type="line"/>
      <point x="354" y="529" type="line"/>
      <point x="340" y="529" type="line"/>
      <point x="84" y="233" type="line"/>
    </contour>
    <contour>
      <point x="317" y="0" type="line"/>
      <point x="375" y="0" type="line"/>
      <point x="384" y="9" type="line"/>
      <point x="381" y="33"/>
      <point x="377" y="78"/>
      <point x="377" y="115" type="curve" smooth="yes"/>
      <point x="377" y="499" type="line"/>
      <point x="317" y="500" type="line"/>
    </contour>
  </outline>
</glyph>
<glyph name="rightArrow" format="2">
  <advance width="713.6"/>
  <unicode hex="2192"/>
  <outline>
    <contour>
      <point x="334" y="-8" type="line"/>
      <point x="629" y="248" type="line"/>
      <point x="629" y="263" type="line"/>
      <point x="333" y="518" type="line"/>
      <point x="292" y="468" type="line"/>
      <point x="564" y="233" type="line"/>
      <point x="564" y="278" type="line"/>
      <point x="294" y="43" type="line"/>
    </contour>
    <contour>
      <point x="100" y="220" type="line"/>
      <point x="123" y="222"/>
      <point x="168" y="225"/>
      <point x="205" y="225" type="curve" smooth="yes"/>
      <point x="599" y="225" type="line"/>
      <point x="601" y="286" type="line"/>
      <point x="91" y="286" type="line"/>
      <point x="91" y="229" type="line"/>
    </contour>
  </outline>
</glyph>
<glyph name="downArrow" format="2">
  <advance width="693.4"/>
  <unicode hex="2193"/>
  <outline>
    <contour>
      <point x="340" y="-11" type="line"/>
      <point x="354" y="-11" type="line"/>
      <point x="610" y="285" type="line"/>
      <point x="559" y="326" type="line"/>
      <point x="325" y="54" type="line"/>
      <point x="369" y="54" type="line"/>
      <point x="135" y="325" type="line"/>
      <point x="84" y="284" type="line"/>
    </contour>
    <contour>
      <point x="317" y="19" type="line"/>
      <point x="377" y="18" type="line"/>
      <point x="377" y="518" type="line"/>
      <point x="319" y="518" type="line"/>
      <point x="310" y="509" type="line"/>
      <point x="313" y="485"/>
      <point x="317" y="440"/>
      <point x="317" y="403" type="curve" smooth="yes"/>
    </contour>
  </outline>
</glyph>
<glyph name="leftRightArrow" format="2">
  <advance width="1275.7"/>
  <unicode hex="2194"/>
  <outline>
    <contour>
      <point x="896" y="-7" type="line"/>
      <point x="1191" y="249" type="line"/>
      <point x="1191" y="264" type="line"/>
      <point x="895" y="520" type="line"/>
      <point x="855" y="469" type="line"/>
      <point x="1127" y="234" type="line"/>
      <point x="1127" y="279" type="line"/>
      <point x="856" y="44" type="line"/>
    </contour>
    <contour>
      <point x="380" y="-7" type="line"/>
      <point x="421" y="44" type="line"/>
      <point x="149" y="278" type="line"/>
      <point x="150" y="233" type="line"/>
      <point x="420" y="469" type="line"/>
      <point x="379" y="520" type="line"/>
      <point x="85" y="263" type="line"/>
      <point x="85" y="248" type="line"/>
    </contour>
    <contour>
      <point x="113" y="226" type="line"/>
      <point x="1162" y="226" type="line"/>
      <point x="1163" y="284" type="line"/>
      <point x="114" y="284" type="line"/>
    </contour>
  </outline>
</glyph>
<glyph name="southEastArrow" format="2">
  <advance width="640"/>
  <unicode hex="2198"/>
  <outline>
    <contour>
      <point x="500" y="59" type="line"/>
      <point x="510" y="70" type="line"/>
      <point x="481" y="460" type="line"/>
      <point x="416" y="453" type="line"/>
      <point x="443" y="94" type="line"/>
      <point x="475" y="126" type="line"/>
      <point x="117" y="151" type="line"/>
      <point x="110" y="87" type="line"/>
    </contour>
    <contour>
      <point x="462" y="64" type="line"/>
      <point x="506" y="106" type="line"/>
      <point x="145" y="466" type="line"/>
      <point x="105" y="427" type="line"/>
      <point x="105" y="414" type="line"/>
      <point x="123" y="399"/>
      <point x="157" y="368"/>
      <point x="183" y="342" type="curve" smooth="yes"/>
    </contour>
  </outline>
</glyph>
<glyph name="partialdiff" format="2">
  <advance width="655.6"/>
  <unicode hex="2202"/>
  <outline>
    <contour>
      <point x="306" y="-11" type="curve" smooth="yes"/>
      <point x="483" y="-11"/>
      <point x="544" y="160"/>
      <point x="544" y="352" type="curve" smooth="yes"/>
      <point x="544" y="544"/>
      <point x="482" y="720"/>
      <point x="305" y="720" type="curve" smooth="yes"/>
      <point x="253" y="720"/>
      <point x="212" y="702"/>
      <point x="173" y="681" type="curve"/>
      <point x="188" y="638" type="line"/>
      <point x="220" y="648"/>
      <point x="254" y="664"/>
      <point x="306" y="664" type="curve" smooth="yes"/>
      <point x="427" y="664"/>
      <point x="453" y="485"/>
      <point x="453" y="352" type="curve" smooth="yes"/>
      <point x="453" y="220"/>
      <point x="428" y="44"/>
      <point x="306" y="44" type="curve" smooth="yes"/>
      <point x="225" y="44"/>
      <point x="187" y="117"/>
      <point x="187" y="198" type="curve" smooth="yes"/>
      <point x="187" y="274"/>
      <point x="235" y="346"/>
      <point x="311" y="346" type="curve" smooth="yes"/>
      <point x="342" y="346"/>
      <point x="374" y="341"/>
      <point x="395" y="338" type="curve"/>
      <point x="401" y="384" type="line"/>
      <point x="380" y="392"/>
      <point x="333" y="403"/>
      <point x="302" y="403" type="curve" smooth="yes"/>
      <point x="180" y="403"/>
      <point x="95" y="321"/>
      <point x="95" y="198" type="curve" smooth="yes"/>
      <point x="95" y="76"/>
      <point x="185" y="-11"/>
    </contour>
  </outline>
</glyph>
<glyph name="emptyset" format="2">
  <advance width="932.6"/>
  <unicode hex="2205"/>
  <outline>
    <contour>
      <point x="466" y="-15" type="curve" smooth="yes"/>
      <point x="668" y="-15"/>
      <point x="832" y="152"/>
      <point x="832" y="350" type="curve" smooth="yes"/>
      <point x="832" y="554"/>
      <point x="669" y="715"/>
      <point x="466" y="715" type="curve" smooth="yes"/>
      <point x="266" y="715"/>
      <point x="101" y="552"/>
      <point x="101" y="350" type="curve" smooth="yes"/>
      <point x="101" y="144"/>
      <point x="268" y="-15"/>
    </contour>
    <contour>
      <point x="467" y="50" type="curve" smooth="yes"/>
      <point x="302" y="50"/>
      <point x="167" y="185"/>
      <point x="167" y="350" type="curve" smooth="yes"/>
      <point x="167" y="519"/>
      <point x="302" y="650"/>
      <point x="467" y="650" type="curve" smooth="yes"/>
      <point x="631" y="650"/>
      <point x="766" y="514"/>
      <point x="766" y="350" type="curve" smooth="yes"/>
      <point x="766" y="185"/>
      <point x="632" y="50"/>
    </contour>
    <component base="fraction" xOffset="356" yOffset="13"/>
  </outline>
</glyph>
<glyph name="increment" format="2">
  <advance width="775.2"/>
  <unicode hex="2206"/>
  <outline>
    <contour>
      <point x="154" y="41" type="line"/>
      <point x="391" y="639" type="line"/>
      <point x="385" y="639" type="line"/>
      <point x="622" y="41" type="line"/>
      <point x="688" y="48" type="line"/>
      <point x="415" y="756" type="line"/>
      <point x="361" y="756" type="line"/>
      <point x="88" y="48" type="line"/>
    </contour>
    <contour>
      <point x="92" y="0" type="line"/>
      <point x="683" y="0" type="line"/>
      <point x="688" y="48" type="line"/>
      <point x="622" y="53" type="line"/>
      <point x="154" y="53" type="line"/>
      <point x="88" y="48" type="line"/>
    </contour>
  </outline>
</glyph>
<glyph name="radical" format="2">
  <advance width="798.6"/>
  <unicode hex="221A"/>
  <outline>
    <contour>
      <point x="433" y="-90" type="line"/>
      <point x="489" y="-90" type="line"/>
      <point x="712" y="701" type="line"/>
      <point x="643" y="721" type="line"/>
      <point x="452" y="0" type="line"/>
      <point x="469" y="0" type="line"/>
      <point x="337" y="513" type="line"/>
      <point x="84" y="446" type="line"/>
      <point x="102" y="376" type="line"/>
      <point x="318" y="437" type="line"/>
      <point x="277" y="461" type="line"/>
    </contour>
  </outline>
</glyph>
<glyph name="infinity" format="2">
  <advance width="950.8"/>
  <unicode hex="221E"/>
  <outline>
    <contour>
      <point x="287" y="131" type="curve" smooth="yes"/>
      <point x="393" y="131"/>
      <point x="439" y="197"/>
      <point x="480" y="274" type="curve" smooth="yes"/>
      <point x="492" y="296" type="line" smooth="yes"/>
      <point x="517" y="342"/>
      <point x="558" y="465"/>
      <point x="667" y="465" type="curve" smooth="yes"/>
      <point x="735" y="465"/>
      <point x="794" y="403"/>
      <point x="794" y="339" type="curve" smooth="yes"/>
      <point x="794" y="268"/>
      <point x="737" y="212"/>
      <point x="662" y="212" type="curve" smooth="yes"/>
      <point x="577" y="212"/>
      <point x="516" y="276"/>
      <point x="489" y="310" type="curve"/>
      <point x="470" y="272" type="line"/>
      <point x="502" y="214"/>
      <point x="569" y="129"/>
      <point x="662" y="129" type="curve" smooth="yes"/>
      <point x="774" y="129"/>
      <point x="839" y="231"/>
      <point x="839" y="339" type="curve" smooth="yes"/>
      <point x="839" y="449"/>
      <point x="773" y="548"/>
      <point x="665" y="548" type="curve" smooth="yes"/>
      <point x="556" y="548"/>
      <point x="511" y="480"/>
      <point x="469" y="401" type="curve" smooth="yes"/>
      <point x="462" y="388" type="line" smooth="yes"/>
      <point x="416" y="301"/>
      <point x="379" y="213"/>
      <point x="284" y="213" type="curve" smooth="yes"/>
      <point x="216" y="213"/>
      <point x="157" y="277"/>
      <point x="157" y="340" type="curve" smooth="yes"/>
      <point x="157" y="410"/>
      <point x="214" y="467"/>
      <point x="289" y="467" type="curve" smooth="yes"/>
      <point x="343" y="467"/>
      <point x="402" y="440"/>
      <point x="459" y="368" type="curve"/>
      <point x="481" y="405" type="line"/>
      <point x="447" y="463"/>
      <point x="380" y="549"/>
      <point x="289" y="549" type="curve" smooth="yes"/>
      <point x="177" y="549"/>
      <point x="112" y="448"/>
      <point x="112" y="340" type="curve" smooth="yes"/>
      <point x="112" y="230"/>
      <point x="178" y="131"/>
    </contour>
  </outline>
</glyph>
<glyph name="notequal" format="2">
  <advance width="671"/>
  <unicode hex="2260"/>
  <outline>
    <contour>
      <point x="247" y="-17" type="line"/>
      <point x="487" y="500" type="line"/>
      <point x="419" y="512" type="line"/>
      <point x="179" y="-5" type="line"/>
    </contour>
    <contour>
      <point x="108" y="121" type="line"/>
      <point x="563" y="121" type="line"/>
      <point x="563" y="189" type="line"/>
      <point x="108" y="183" type="line"/>
    </contour>
    <contour>
      <point x="108" y="309" type="line"/>
      <point x="563" y="314" type="line"/>
      <point x="563" y="376" type="line"/>
      <point x="108" y="376" type="line"/>
    </contour>
  </outline>
</glyph>
<glyph name="squareddotoperator" format="2">
  <advance width="998.6"/>
  <unicode hex="22A1"/>
  <outline>
    <contour>
      <point x="147" y="0" type="line"/>
      <point x="852" y="0" type="line"/>
      <point x="852" y="705" type="line"/>
      <point x="147" y="705" type="line"/>
    </contour>
    <contour>
      <point x="220" y="74" type="line"/>
      <point x="220" y="632" type="line"/>
      <point x="778" y="632" type="line"/>
      <point x="778" y="74" type="line"/>
    </contour>
    <component base="bullet" xOffset="299" yOffset="99"/>
  </outline>
</glyph>
<glyph name="rightWhiteTriangle" format="2">
  <advance width="755.8"/>
  <unicode hex="25B7"/>
  <outline>
    <contour>
      <point x="146" y="61" type="line"/>
      <point x="674" y="353" type="line"/>
      <point x="146" y="645" type="line"/>
    </contour>
    <contour>
      <point x="206" y="130" type="line"/>
      <point x="206" y="576" type="line"/>
      <point x="177" y="560" type="line"/>
      <point x="579" y="336" type="line"/>
      <point x="579" y="370" type="line"/>
      <point x="177" y="146" type="line"/>
    </contour>
  </outline>
</glyph>
<glyph name="downWhiteTriangle" format="2">
  <advance width="754.6"/>
  <unicode hex="25BD"/>
  <outline>
    <contour>
      <point x="377" y="90" type="line"/>
      <point x="670" y="615" type="line"/>
      <point x="85" y="615" type="line"/>
    </contour>
    <contour>
      <point x="361" y="185" type="line"/>
      <point x="394" y="185" type="line"/>
      <point x="171" y="585" type="line"/>
      <point x="154" y="555" type="line"/>
      <point x="601" y="555" type="line"/>
      <point x="584" y="585" type="line"/>
    </contour>
  </outline>
</glyph>
<glyph name="leftBlackTriangle" format="2">
  <advance width="567.9"/>
  <unicode hex="25C0"/>
  <outline>
    <contour>
      <point x="422" y="77" type="line"/>
      <point x="422" y="449" type="line"/>
      <point x="87" y="262" type="line"/>
    </contour>
  </outline>
</glyph>
<glyph name="fisheye" format="2">
  <advance width="808.5"/>
  <unicode hex="25C9"/>
  <outline>
    <contour>
      <point x="405" y="-14" type="curve" smooth="yes"/>
      <point x="570" y="-14"/>
      <point x="705" y="120"/>
      <point x="705" y="286" type="curve" smooth="yes"/>
      <point x="705" y="451"/>
      <point x="570" y="586"/>
      <point x="405" y="586" type="curve" smooth="yes"/>
      <point x="239" y="586"/>
      <point x="105" y="451"/>
      <point x="105" y="286" type="curve" smooth="yes"/>
      <point x="105" y="120"/>
      <point x="239" y="-14"/>
    </contour>
    <contour>
      <point x="405" y="24" type="curve" smooth="yes"/>
      <point x="261" y="24"/>
      <point x="143" y="142"/>
      <point x="143" y="286" type="curve" smooth="yes"/>
      <point x="143" y="429"/>
      <point x="261" y="548"/>
      <point x="405" y="548" type="curve" smooth="yes"/>
      <point x="548" y="548"/>
      <point x="666" y="429"/>
      <point x="666" y="286" type="curve" smooth="yes"/>
      <point x="666" y="142"/>
      <point x="548" y="24"/>
    </contour>
    <contour>
      <point x="405" y="123" type="curve" smooth="yes"/>
      <point x="496" y="123"/>
      <point x="568" y="195"/>
      <point x="568" y="286" type="curve" smooth="yes"/>
      <point x="568" y="377"/>
      <point x="496" y="449"/>
      <point x="405" y="449" type="curve" smooth="yes"/>
      <point x="314" y="449"/>
      <point x="241" y="377"/>
      <point x="241" y="286" type="curve" smooth="yes"/>
      <point x="241" y="195"/>
      <point x="314" y="123"/>
    </contour>
  </outline>
</glyph>
<glyph name="rightHalfBlackWhiteCircle" format="2">
  <advance width="930.4"/>
  <unicode hex="25D1"/>
  <outline>
    <contour>
      <point x="465" y="-11" type="curve" smooth="yes"/>
      <point x="466" y="-10.999" type="line" smooth="yes"/>
      <point x="665" y="-11"/>
      <point x="829" y="153"/>
      <point x="829" y="352.498" type="curve" smooth="yes"/>
      <point x="829" y="553"/>
      <point x="666" y="716"/>
      <point x="466" y="716" type="curve" smooth="yes"/>
      <point x="465" y="716" type="line" smooth="yes"/>
      <point x="265" y="716"/>
      <point x="102" y="553"/>
      <point x="102" y="352" type="curve" smooth="yes"/>
      <point x="102" y="152"/>
      <point x="265" y="-11"/>
    </contour>
    <contour>
      <point x="465" y="50" type="line" smooth="yes"/>
      <point x="299" y="50"/>
      <point x="163" y="186"/>
      <point x="163" y="352" type="curve" smooth="yes"/>
      <point x="163" y="519"/>
      <point x="299" y="655"/>
      <point x="465" y="655" type="curve" smooth="yes"/>
      <point x="466" y="654.998" type="line"/>
      <point x="466" y="50.002" type="line"/>
    </contour>
  </outline>
</glyph>
<glyph name="eightspokedasterisk" format="2">
  <advance width="762"/>
  <unicode hex="2733"/>
  <outline>
    <contour>
      <point x="354" y="-9" type="line"/>
      <point x="414" y="0" type="line"/>
      <point x="402" y="288" type="line"/>
      <point x="402" y="371" type="line"/>
      <point x="360" y="363" type="line"/>
      <point x="360" y="266" type="line" smooth="yes"/>
      <point x="360" y="213"/>
      <point x="352" y="123"/>
      <point x="343" y="2" type="curve"/>
    </contour>
    <contour>
      <point x="154" y="80" type="line"/>
      <point x="350" y="292" type="line"/>
      <point x="409" y="351" type="line"/>
      <point x="374" y="375" type="line"/>
      <point x="304" y="305" type="line" smooth="yes"/>
      <point x="264" y="265"/>
      <point x="196" y="208"/>
      <point x="106" y="131" type="curve"/>
      <point x="107" y="115" type="line"/>
    </contour>
    <contour>
      <point x="28" y="320" type="line"/>
      <point x="315" y="332" type="line"/>
      <point x="400" y="332" type="line"/>
      <point x="391" y="373" type="line"/>
      <point x="294" y="373" type="line" smooth="yes"/>
      <point x="239" y="373"/>
      <point x="157" y="380"/>
      <point x="31" y="390" type="curve"/>
      <point x="19" y="378" type="line"/>
    </contour>
    <contour>
      <point x="380" y="324" type="line"/>
      <point x="403" y="360" type="line"/>
      <point x="334" y="428" type="line" smooth="yes"/>
      <point x="293" y="469"/>
      <point x="248" y="524"/>
      <point x="159" y="627" type="curve"/>
      <point x="144" y="626" type="line"/>
      <point x="109" y="579" type="line"/>
      <point x="320" y="384" type="line"/>
    </contour>
    <contour>
      <point x="360" y="334" type="line"/>
      <point x="402" y="342" type="line"/>
      <point x="402" y="439" type="line" smooth="yes"/>
      <point x="402" y="500"/>
      <point x="410" y="587"/>
      <point x="419" y="703" type="curve"/>
      <point x="407" y="714" type="line"/>
      <point x="348" y="705" type="line"/>
      <point x="360" y="417" type="line"/>
    </contour>
    <contour>
      <point x="388" y="330" type="line"/>
      <point x="457" y="400" type="line" smooth="yes"/>
      <point x="496" y="440"/>
      <point x="572" y="502"/>
      <point x="655" y="574" type="curve"/>
      <point x="654" y="590" type="line"/>
      <point x="607" y="625" type="line"/>
      <point x="413" y="413" type="line"/>
      <point x="353" y="354" type="line"/>
    </contour>
    <contour>
      <point x="732" y="315" type="curve"/>
      <point x="742" y="327" type="line"/>
      <point x="733" y="385" type="line"/>
      <point x="446" y="373" type="line"/>
      <point x="362" y="373" type="line"/>
      <point x="371" y="332" type="line"/>
      <point x="467" y="332" type="line" smooth="yes"/>
      <point x="531" y="332"/>
      <point x="610" y="323"/>
    </contour>
    <contour>
      <point x="602" y="78" type="curve"/>
      <point x="619" y="79" type="line"/>
      <point x="653" y="126" type="line"/>
      <point x="441" y="321" type="line"/>
      <point x="382" y="381" type="line"/>
      <point x="359" y="345" type="line"/>
      <point x="428" y="277" type="line" smooth="yes"/>
      <point x="469" y="237"/>
      <point x="513" y="180"/>
    </contour>
  </outline>
</glyph>
<glyph name="SquareWithUpperRightDiagonalHalfBlack" format="2">
  <advance width="998.6"/>
  <unicode hex="2B14"/>
  <outline>
    <contour>
      <point x="147" y="0" type="line"/>
      <point x="852" y="0" type="line"/>
      <point x="852" y="705" type="line"/>
      <point x="147" y="705" type="line"/>
    </contour>
    <contour>
      <point x="198" y="18" type="line"/>
      <point x="198" y="687" type="line"/>
      <point x="174" y="678" type="line"/>
      <point x="824" y="27" type="line"/>
      <point x="834" y="52" type="line"/>
      <point x="165" y="52" type="line"/>
    </contour>
  </outline>
</glyph>
<glyph name="saltillo" format="2">
  <advance width="160.6"/>
  <unicode hex="A78C"/>
  <outline>
    <contour>
      <point x="103" y="258" type="line"/>
      <point x="125" y="638" type="line"/>
      <point x="107" y="655" type="line"/>
      <point x="27" y="655" type="line"/>
      <point x="34" y="588"/>
      <point x="54" y="454"/>
      <point x="54" y="444" type="curve" smooth="yes"/>
      <point x="47" y="263" type="line"/>
    </contour>
  </outline>
</glyph>
<glyph name="fi" format="2">
  <advance width="660"/>
  <unicode hex="FB01"/>
  <anchor x="330" y="0" name="caret_1"/>
  <outline>
    <contour>
      <point x="505" y="592" type="curve" smooth="yes"/>
      <point x="543" y="592"/>
      <point x="563" y="617"/>
      <point x="563" y="654" type="curve" smooth="yes"/>
      <point x="563" y="695"/>
      <point x="542" y="718"/>
      <point x="505" y="718" type="curve" smooth="yes"/>
      <point x="467" y="718"/>
      <point x="447" y="692"/>
      <point x="447" y="654" type="curve" smooth="yes"/>
      <point x="447" y="617"/>
      <point x="467" y="592"/>
    </contour>
    <contour>
      <point x="188" y="464" type="line"/>
      <point x="176" y="442" type="line"/>
      <point x="396" y="442" type="line"/>
      <point x="506" y="423" type="line"/>
      <point x="467" y="469" type="line"/>
      <point x="472" y="439"/>
      <point x="482" y="381"/>
      <point x="482" y="356" type="curve" smooth="yes"/>
      <point x="482" y="134" type="line" smooth="yes"/>
      <point x="482" y="109"/>
      <point x="469" y="44"/>
      <point x="466" y="29" type="curve"/>
      <point x="506" y="66" type="line"/>
      <point x="394" y="43" type="line"/>
      <point x="399" y="-5" type="line"/>
      <point x="436" y="-3"/>
      <point x="488" y="0"/>
      <point x="509" y="0" type="curve"/>
      <point x="636" y="0" type="line"/>
      <point x="643" y="52" type="line"/>
      <point x="530" y="62" type="line"/>
      <point x="567" y="25" type="line"/>
      <point x="563" y="49"/>
      <point x="558" y="112"/>
      <point x="558" y="164" type="curve" smooth="yes"/>
      <point x="558" y="326" type="line" smooth="yes"/>
      <point x="558" y="373"/>
      <point x="561" y="446"/>
      <point x="564" y="476" type="curve"/>
      <point x="545" y="494" type="line"/>
      <point x="176" y="494" type="line"/>
      <point x="188" y="485" type="line"/>
      <point x="191" y="614"/>
      <point x="176" y="720"/>
      <point x="279" y="720" type="curve" smooth="yes"/>
      <point x="290" y="720"/>
      <point x="312" y="720"/>
      <point x="327" y="720" type="curve"/>
      <point x="278" y="747" type="line"/>
      <point x="289" y="709"/>
      <point x="298" y="674"/>
      <point x="298" y="667" type="curve"/>
      <point x="298" y="632" type="line"/>
      <point x="337" y="629" type="line"/>
      <point x="348" y="763" type="line"/>
      <point x="337" y="766"/>
      <point x="312" y="770"/>
      <point x="289" y="770" type="curve" smooth="yes"/>
      <point x="173" y="770"/>
      <point x="113" y="703"/>
      <point x="113" y="599" type="curve" smooth="yes"/>
      <point x="113" y="478" type="line"/>
      <point x="126" y="496" type="line"/>
      <point x="31" y="484" type="line"/>
      <point x="34" y="442" type="line"/>
      <point x="127" y="442" type="line"/>
      <point x="113" y="461" type="line"/>
      <point x="113" y="134" type="line" smooth="yes"/>
      <point x="113" y="109"/>
      <point x="100" y="44"/>
      <point x="97" y="29" type="curve"/>
      <point x="137" y="66" type="line"/>
      <point x="25" y="43" type="line"/>
      <point x="30" y="-5" type="line"/>
      <point x="67" y="-3"/>
      <point x="119" y="0"/>
      <point x="140" y="0" type="curve"/>
      <point x="288" y="0" type="line"/>
      <point x="295" y="52" type="line"/>
      <point x="161" y="62" type="line"/>
      <point x="198" y="25" type="line"/>
      <point x="194" y="49"/>
      <point x="188" y="112"/>
      <point x="188" y="164" type="curve" smooth="yes"/>
    </contour>
  </outline>
</glyph>
<glyph name="A.sups" format="2">
  <advance width="449.1"/>
  <outline>
    <contour>
      <point x="25" y="327" type="line"/>
      <point x="49" y="328"/>
      <point x="94" y="330"/>
      <point x="110" y="330" type="curve" smooth="yes"/>
      <point x="167" y="330" type="line"/>
      <point x="170" y="367" type="line"/>
      <point x="102" y="375" type="line"/>
      <point x="127" y="351" type="line"/>
      <point x="129" y="373"/>
      <point x="130" y="388"/>
      <point x="135" y="404" type="curve" smooth="yes"/>
      <point x="223" y="681" type="line"/>
      <point x="206" y="681" type="line"/>
      <point x="290" y="424" type="line" smooth="yes"/>
      <point x="296" y="405"/>
      <point x="302" y="380"/>
      <point x="306" y="353" type="curve"/>
      <point x="329" y="378" type="line"/>
      <point x="260" y="362" type="line"/>
      <point x="263" y="327" type="line"/>
      <point x="297" y="328"/>
      <point x="348" y="330"/>
      <point x="365" y="330" type="curve" smooth="yes"/>
      <point x="423" y="330" type="line"/>
      <point x="427" y="367" type="line"/>
      <point x="361" y="377" type="line"/>
      <point x="398" y="355" type="line"/>
      <point x="388" y="372"/>
      <point x="376" y="395"/>
      <point x="369" y="415" type="curve" smooth="yes"/>
      <point x="245" y="764" type="line"/>
      <point x="195" y="757" type="line"/>
      <point x="83" y="427" type="line" smooth="yes"/>
      <point x="75" y="402"/>
      <point x="59" y="374"/>
      <point x="49" y="355" type="curve"/>
      <point x="85" y="376" type="line"/>
      <point x="22" y="362" type="line"/>
    </contour>
    <contour>
      <point x="134" y="458" type="line"/>
      <point x="300" y="458" type="line"/>
      <point x="300" y="498" type="line"/>
      <point x="134" y="498" type="line"/>
    </contour>
  </outline>
</glyph>
<glyph name="AE.sups" format="2">
  <advance width="616"/>
  <outline>
    <contour>
      <point x="24" y="327" type="line"/>
      <point x="44" y="328"/>
      <point x="79" y="330"/>
      <point x="108" y="330" type="curve"/>
      <point x="164" y="330" type="line"/>
      <point x="168" y="367" type="line"/>
      <point x="95" y="375" type="line"/>
      <point x="120" y="353" type="line"/>
      <point x="123" y="368"/>
      <point x="129" y="395"/>
      <point x="133" y="404" type="curve" smooth="yes"/>
      <point x="266" y="681" type="line"/>
      <point x="247" y="684" type="line"/>
      <point x="300" y="409" type="line" smooth="yes"/>
      <point x="304" y="388"/>
      <point x="307" y="373"/>
      <point x="307" y="352" type="curve"/>
      <point x="334" y="378" type="line"/>
      <point x="265" y="362" type="line"/>
      <point x="268" y="327" type="line"/>
      <point x="302" y="328"/>
      <point x="354" y="330"/>
      <point x="371" y="330" type="curve"/>
      <point x="387" y="344" type="line"/>
      <point x="368" y="439" type="line" smooth="yes"/>
      <point x="324" y="653" type="line" smooth="yes"/>
      <point x="320" y="676"/>
      <point x="317" y="729"/>
      <point x="316" y="742" type="curve"/>
      <point x="316" y="757" type="line"/>
      <point x="248" y="757" type="line"/>
      <point x="88" y="427" type="line" smooth="yes"/>
      <point x="82" y="414"/>
      <point x="55" y="371"/>
      <point x="45" y="358" type="curve"/>
      <point x="81" y="376" type="line"/>
      <point x="21" y="362" type="line"/>
    </contour>
    <contour>
      <point x="141" y="458" type="line"/>
      <point x="318" y="458" type="line"/>
      <point x="316" y="498" type="line"/>
      <point x="140" y="498" type="line"/>
    </contour>
    <contour>
      <point x="545" y="328" type="curve"/>
      <point x="557" y="339" type="line"/>
      <point x="566" y="437" type="line"/>
      <point x="528" y="440" type="line"/>
      <point x="519" y="402" type="line" smooth="yes"/>
      <point x="517" y="393"/>
      <point x="507" y="374"/>
      <point x="492" y="356" type="curve"/>
      <point x="518" y="380" type="line"/>
      <point x="510" y="378"/>
      <point x="482" y="372"/>
      <point x="456" y="372" type="curve" smooth="yes"/>
      <point x="322" y="372" type="line"/>
      <point x="322" y="330" type="line"/>
      <point x="474" y="330" type="line" smooth="yes"/>
      <point x="487" y="330"/>
      <point x="521" y="329"/>
    </contour>
    <contour>
      <point x="471" y="487" type="line"/>
      <point x="504" y="490" type="line"/>
      <point x="502" y="514"/>
      <point x="502" y="538"/>
      <point x="502" y="561" type="curve" smooth="yes"/>
      <point x="502" y="612" type="line"/>
      <point x="471" y="615" type="line"/>
      <point x="462" y="551" type="line"/>
      <point x="482" y="576" type="line"/>
      <point x="473" y="574"/>
      <point x="448" y="569"/>
      <point x="432" y="569" type="curve" smooth="yes"/>
      <point x="322" y="569" type="line"/>
      <point x="322" y="529" type="line"/>
      <point x="420" y="529" type="line" smooth="yes"/>
      <point x="433" y="529"/>
      <point x="468" y="526"/>
      <point x="488" y="524" type="curve"/>
      <point x="462" y="547" type="line"/>
    </contour>
    <contour>
      <point x="513" y="662" type="line"/>
      <point x="553" y="665" type="line"/>
      <point x="548" y="749" type="line"/>
      <point x="536" y="760" type="line"/>
      <point x="511" y="758"/>
      <point x="475" y="757"/>
      <point x="466" y="757" type="curve" smooth="yes"/>
      <point x="299" y="757" type="line"/>
      <point x="299" y="717" type="line"/>
      <point x="448" y="717" type="line" smooth="yes"/>
      <point x="474" y="717"/>
      <point x="500" y="714"/>
      <point x="513" y="713" type="curve"/>
      <point x="485" y="736" type="line"/>
      <point x="494" y="724"/>
      <point x="506" y="699"/>
      <point x="508" y="693" type="curve" smooth="yes"/>
    </contour>
  </outline>
</glyph>
<glyph name="B.sups" format="2">
  <advance width="421"/>
  <outline>
    <contour>
      <point x="50" y="327" type="line"/>
      <point x="77" y="328"/>
      <point x="119" y="330"/>
      <point x="137" y="330" type="curve" smooth="yes"/>
      <point x="168" y="330"/>
      <point x="210" y="327"/>
      <point x="240" y="327" type="curve" smooth="yes"/>
      <point x="314" y="327"/>
      <point x="373" y="369"/>
      <point x="373" y="443" type="curve" smooth="yes"/>
      <point x="373" y="509"/>
      <point x="325" y="548"/>
      <point x="248" y="553" type="curve"/>
      <point x="269" y="521" type="line"/>
      <point x="269" y="584" type="line"/>
      <point x="249" y="552" type="line"/>
      <point x="312" y="557"/>
      <point x="355" y="601"/>
      <point x="355" y="659" type="curve" smooth="yes"/>
      <point x="355" y="722"/>
      <point x="297" y="760"/>
      <point x="230" y="760" type="curve" smooth="yes"/>
      <point x="199" y="760"/>
      <point x="155" y="757"/>
      <point x="124" y="757" type="curve" smooth="yes"/>
      <point x="109" y="757"/>
      <point x="71" y="759"/>
      <point x="51" y="760" type="curve"/>
      <point x="48" y="722" type="line"/>
      <point x="116" y="711" type="line"/>
      <point x="90" y="735" type="line"/>
      <point x="91" y="730"/>
      <point x="98" y="684"/>
      <point x="98" y="667" type="curve" smooth="yes"/>
      <point x="98" y="420" type="line" smooth="yes"/>
      <point x="98" y="404"/>
      <point x="92" y="365"/>
      <point x="90" y="348" type="curve"/>
      <point x="122" y="376" type="line"/>
      <point x="47" y="362" type="line"/>
    </contour>
    <contour>
      <point x="176" y="351" type="line"/>
      <point x="174" y="362"/>
      <point x="169" y="406"/>
      <point x="169" y="438" type="curve" smooth="yes"/>
      <point x="169" y="650" type="line" smooth="yes"/>
      <point x="169" y="682"/>
      <point x="174" y="725"/>
      <point x="175" y="734" type="curve"/>
      <point x="156" y="720" type="line"/>
      <point x="174" y="720"/>
      <point x="196" y="720"/>
      <point x="216" y="720" type="curve" smooth="yes"/>
      <point x="258" y="720"/>
      <point x="286" y="692"/>
      <point x="286" y="649" type="curve" smooth="yes"/>
      <point x="286" y="601"/>
      <point x="253" y="572"/>
      <point x="206" y="572" type="curve" smooth="yes"/>
      <point x="202" y="572" type="line"/>
      <point x="198" y="530" type="line"/>
      <point x="204" y="530" type="line" smooth="yes"/>
      <point x="256" y="530"/>
      <point x="299" y="507"/>
      <point x="299" y="449" type="curve" smooth="yes"/>
      <point x="299" y="397"/>
      <point x="267" y="368"/>
      <point x="221" y="368" type="curve" smooth="yes"/>
      <point x="199" y="368"/>
      <point x="180" y="370"/>
      <point x="157" y="373" type="curve"/>
    </contour>
  </outline>
</glyph>
<glyph name="C.sups" format="2">
  <advance width="437.1"/>
  <outline>
    <contour>
      <point x="250" y="321" type="curve" smooth="yes"/>
      <point x="302" y="321"/>
      <point x="346" y="332"/>
      <point x="386" y="342" type="curve"/>
      <point x="381" y="439" type="line"/>
      <point x="341" y="437" type="line"/>
      <point x="340" y="409" type="line" smooth="yes"/>
      <point x="340" y="399"/>
      <point x="330" y="375"/>
      <point x="322" y="355" type="curve"/>
      <point x="350" y="382" type="line"/>
      <point x="315" y="371"/>
      <point x="281" y="365"/>
      <point x="250" y="365" type="curve" smooth="yes"/>
      <point x="166" y="365"/>
      <point x="129" y="445"/>
      <point x="129" y="544" type="curve" smooth="yes"/>
      <point x="129" y="643"/>
      <point x="167" y="722"/>
      <point x="250" y="722" type="curve" smooth="yes"/>
      <point x="281" y="722"/>
      <point x="316" y="714"/>
      <point x="344" y="705" type="curve"/>
      <point x="318" y="731" type="line"/>
      <point x="323" y="715"/>
      <point x="333" y="690"/>
      <point x="333" y="682" type="curve" smooth="yes"/>
      <point x="333" y="651" type="line"/>
      <point x="373" y="649" type="line"/>
      <point x="380" y="745" type="line"/>
      <point x="340" y="756"/>
      <point x="300" y="766"/>
      <point x="250" y="766" type="curve" smooth="yes"/>
      <point x="117" y="766"/>
      <point x="48" y="676"/>
      <point x="48" y="544" type="curve" smooth="yes"/>
      <point x="48" y="411"/>
      <point x="117" y="321"/>
    </contour>
  </outline>
</glyph>
<glyph name="E.sups" format="2">
  <advance width="416.7"/>
  <outline>
    <contour>
      <point x="50" y="327" type="line"/>
      <point x="82" y="329"/>
      <point x="123" y="330"/>
      <point x="137" y="330" type="curve" smooth="yes"/>
      <point x="276" y="330" type="line" smooth="yes"/>
      <point x="288" y="330"/>
      <point x="323" y="329"/>
      <point x="345" y="328" type="curve"/>
      <point x="357" y="339" type="line"/>
      <point x="366" y="437" type="line"/>
      <point x="329" y="440" type="line"/>
      <point x="321" y="402" type="line" smooth="yes"/>
      <point x="319" y="393"/>
      <point x="305" y="373"/>
      <point x="294" y="356" type="curve"/>
      <point x="320" y="380" type="line"/>
      <point x="310" y="378"/>
      <point x="285" y="372"/>
      <point x="257" y="372" type="curve" smooth="yes"/>
      <point x="151" y="372" type="line"/>
      <point x="176" y="350" type="line"/>
      <point x="174" y="363"/>
      <point x="169" y="410"/>
      <point x="169" y="438" type="curve" smooth="yes"/>
      <point x="169" y="650" type="line" smooth="yes"/>
      <point x="169" y="668"/>
      <point x="172" y="709"/>
      <point x="175" y="733" type="curve"/>
      <point x="145" y="717" type="line"/>
      <point x="250" y="717" type="line" smooth="yes"/>
      <point x="274" y="717"/>
      <point x="303" y="714"/>
      <point x="314" y="713" type="curve"/>
      <point x="287" y="736" type="line"/>
      <point x="299" y="717"/>
      <point x="308" y="698"/>
      <point x="309" y="693" type="curve" smooth="yes"/>
      <point x="314" y="662" type="line"/>
      <point x="353" y="665" type="line"/>
      <point x="349" y="749" type="line"/>
      <point x="337" y="760" type="line"/>
      <point x="311" y="758"/>
      <point x="276" y="757"/>
      <point x="267" y="757" type="curve" smooth="yes"/>
      <point x="124" y="757" type="line" smooth="yes"/>
      <point x="109" y="757"/>
      <point x="71" y="759"/>
      <point x="51" y="760" type="curve"/>
      <point x="48" y="722" type="line"/>
      <point x="122" y="710" type="line"/>
      <point x="89" y="740" type="line"/>
      <point x="93" y="715"/>
      <point x="98" y="680"/>
      <point x="98" y="667" type="curve" smooth="yes"/>
      <point x="98" y="420" type="line" smooth="yes"/>
      <point x="98" y="403"/>
      <point x="91" y="362"/>
      <point x="89" y="350" type="curve"/>
      <point x="122" y="376" type="line"/>
      <point x="47" y="362" type="line"/>
    </contour>
    <contour>
      <point x="272" y="487" type="line"/>
      <point x="305" y="490" type="line"/>
      <point x="304" y="510"/>
      <point x="303" y="534"/>
      <point x="303" y="561" type="curve" smooth="yes"/>
      <point x="303" y="612" type="line"/>
      <point x="272" y="615" type="line"/>
      <point x="263" y="551" type="line"/>
      <point x="282" y="576" type="line"/>
      <point x="275" y="575"/>
      <point x="249" y="569"/>
      <point x="232" y="569" type="curve" smooth="yes"/>
      <point x="146" y="569" type="line"/>
      <point x="146" y="529" type="line"/>
      <point x="221" y="529" type="line" smooth="yes"/>
      <point x="239" y="529"/>
      <point x="277" y="525"/>
      <point x="289" y="524" type="curve"/>
      <point x="263" y="547" type="line"/>
    </contour>
  </outline>
</glyph>
